<svg xmlns="http://www.w3.org/2000/svg" version="1.1" xmlns:xlink="http://www.w3.org/1999/xlink" xmlns:svgjs="http://svgjs.dev/svgjs" viewBox="0 0 800 800" opacity="0.74"><defs><filter id="bbburst-blur-1" x="-100%" y="-100%" width="400%" height="400%"><feGaussianBlur in="SourceGraphic" stdDeviation="1"></feGaussianBlur></filter><filter id="bbburst-blur-2" x="-100%" y="-100%" width="400%" height="400%"><feGaussianBlur in="SourceGraphic" stdDeviation="2"></feGaussianBlur></filter><filter id="bbburst-blur-3" x="-100%" y="-100%" width="400%" height="400%"><feGaussianBlur in="SourceGraphic" stdDeviation="4"></feGaussianBlur></filter><filter id="bbburst-blur-4" x="-100%" y="-100%" width="400%" height="400%"><feGaussianBlur in="SourceGraphic" stdDeviation="12"></feGaussianBlur></filter><symbol id="bbburst-shape-2" viewBox="0 0 126 115"><path d="m63 0 62.77 43.877-23.976 70.996H24.206L.23 43.877 63 0Z"></path></symbol><symbol id="bbburst-shape-5" viewBox="0 0 145 145"><circle cx="72.5" cy="72.5" r="72.5"></circle></symbol><symbol id="bbburst-shape-8" viewBox="0 0 87 168"><path d="m12 12 31.2546 18.0749c16.4102 9.4902 20.014 31.6325 7.4603 45.8369L36.3296 92.1884c-12.5684 14.2206-8.9394 36.3916 7.5068 45.8636L75 156" stroke-width="14" stroke-linecap="round" stroke-linejoin="round"></path></symbol><symbol id="bbburst-shape-10" viewBox="0 0 145 145"><circle cx="72.5" cy="72.5" r="61.5" fill="none" stroke-width="22"></circle></symbol><symbol id="bbburst-shape-14" viewBox="0 0 185 109"><path d="M168 16.5C168 58.1975 134.197 92 92.5 92 50.8025 92 17 58.1975 17 16.5" stroke-width="33" stroke-linecap="round"></path></symbol></defs><use xlink:href="#bbburst-shape-14" width="30.7759067149347" opacity="0.35696656652509373" transform="matrix(0.7807242937991,0.6248756492870373,-0.6248756492870373,0.7807242937991,583.0506319477977,-205.98989943558524)" fill="none" stroke="#ffff01" filter="url(#bbburst-blur-2)"></use><use xlink:href="#bbburst-shape-5" width="11.181914687139276" opacity="0.7614316476265839" transform="matrix(0.9244946316178186,0.3811950630711707,-0.3811950630711707,0.9244946316178186,549.6602450054426,-79.25910771338005)" fill="#ffff01" filter="url(#bbburst-blur-1)"></use><use xlink:href="#bbburst-shape-8" width="14.642690796332097" opacity="0.7134446840335582" transform="matrix(0.8223571175523875,0.5689716787423859,-0.5689716787423859,0.8223571175523875,640.5407938676689,194.4379909594315)" fill="none" stroke="#ffff01" filter="url(#bbburst-blur-1)"></use><use xlink:href="#bbburst-shape-8" width="29.26968838347503" opacity="0.2607055953267562" transform="matrix(1.2223640156721642,-0.26139283308809486,0.26139283308809486,1.2223640156721642,598.2886364681915,-173.47607711340703)" fill="none" stroke="#ffff01" filter="url(#bbburst-blur-3)"></use><use xlink:href="#bbburst-shape-8" width="21.503714034323526" opacity="0.5607626746915945" transform="matrix(0.7600099746559357,-0.6499114081345888,0.6499114081345888,0.7600099746559357,-65.43705279325314,114.83845548497084)" fill="none" stroke="#ffff01" filter="url(#bbburst-blur-1)"></use><use xlink:href="#bbburst-shape-8" width="12.989721296950782" opacity="0.7655997913438711" transform="matrix(0.8041879932826331,-0.5943750259390544,0.5943750259390544,0.8041879932826331,78.31553661742936,11.96716155065559)" fill="none" stroke="#ffff01" filter="url(#bbburst-blur-1)"></use><use xlink:href="#bbburst-shape-2" width="5.825801410037533" opacity="0.9332265940850373" transform="matrix(0.9630187097698325,-0.2694345275447211,0.2694345275447211,0.9630187097698325,286.4361183375448,-14.319157249643581)" fill="#ffff01"></use><use xlink:href="#bbburst-shape-8" width="12.877367785519402" opacity="0.7449182641573933" transform="matrix(0.7353318509560348,-0.6777072147834726,0.6777072147834726,0.7353318509560348,9.740468001362729,119.12007288076609)" fill="none" stroke="#ffff01" filter="url(#bbburst-blur-1)"></use><use xlink:href="#bbburst-shape-14" width="10.394046009304098" opacity="0.7110380004375974" transform="matrix(0.9997595048247635,0.02193017356391875,-0.02193017356391875,0.9997595048247635,382.9175993060772,-128.3851429859846)" fill="none" stroke="#ffff01" filter="url(#bbburst-blur-1)"></use><use xlink:href="#bbburst-shape-14" width="33.40378189065254" opacity="0.15710442175098271" transform="matrix(1.0589969048053192,0.6640975497716838,-0.6640975497716838,1.0589969048053192,768.8499488234818,-394.1522354930716)" fill="none" stroke="#ffff01" filter="url(#bbburst-blur-3)"></use><use xlink:href="#bbburst-shape-8" width="8.650874313884763" opacity="0.8617018630975184" transform="matrix(0.9992519317044467,0.03867269042789578,-0.03867269042789578,0.9992519317044467,449.62585626611605,-48.78081823883463)" fill="none" stroke="#ffff01"></use><use xlink:href="#bbburst-shape-14" width="5.321818743291699" opacity="0.9761080699288234" transform="matrix(0.879944680172915,-0.4750761621418047,0.4750761621418047,0.879944680172915,211.80455879568996,59.20105788203847)" fill="none" stroke="#ffff01"></use><use xlink:href="#bbburst-shape-8" width="28.626783766714894" opacity="0.3622513079597738" transform="matrix(0.7415282408461231,0.6709216556556018,-0.6709216556556018,0.7415282408461231,564.0322532813727,365.0373687819908)" fill="none" stroke="#ffff01" filter="url(#bbburst-blur-2)"></use><use xlink:href="#bbburst-shape-14" width="13.972603664718857" opacity="0.7187571434813935" transform="matrix(0.734728112296954,-0.6783617036659385,0.6783617036659385,0.734728112296954,232.317546464288,175.5428786968505)" fill="none" stroke="#ffff01" filter="url(#bbburst-blur-1)"></use><use xlink:href="#bbburst-shape-2" width="14.063676731597202" opacity="0.7512921472075305" transform="matrix(0.9321778592359916,-0.36200060600806166,0.36200060600806166,0.9321778592359916,360.50758808590854,26.067901371824632)" fill="#ffff01" filter="url(#bbburst-blur-1)"></use><use xlink:href="#bbburst-shape-8" width="27.430492498386982" opacity="0.4744055421699226" transform="matrix(0.9191745907297626,0.39385031643604584,-0.39385031643604584,0.9191745907297626,712.7668147374551,-139.7223687150232)" fill="none" stroke="#ffff01" filter="url(#bbburst-blur-2)"></use><use xlink:href="#bbburst-shape-8" width="12.272532314114821" opacity="0.7884836453225692" transform="matrix(0.9976354518677297,-0.06872776132445063,0.06872776132445063,0.9976354518677297,439.75611753335556,62.003157398160226)" fill="none" stroke="#ffff01"></use><use xlink:href="#bbburst-shape-8" width="7.181850037783489" opacity="0.9114746572352171" transform="matrix(0.9373122041770683,0.34849079170148217,-0.34849079170148217,0.9373122041770683,563.9832532113228,52.20650172387701)" fill="none" stroke="#ffff01"></use><use xlink:href="#bbburst-shape-8" width="32.838045868880634" opacity="0.11869605885413492" transform="matrix(1.247482640621904,-0.07929099158795788,0.07929099158795788,1.247482640621904,713.5203417267896,55.70558587602193)" fill="none" stroke="#ffff01" filter="url(#bbburst-blur-3)"></use><use xlink:href="#bbburst-shape-10" width="20.345103316009663" opacity="0.46634451075480543" transform="matrix(0.7194424797375403,-0.6945520271002734,0.6945520271002734,0.7194424797375403,112.29581287777694,-120.84289946073952)" fill="none" stroke="#ffff01" filter="url(#bbburst-blur-2)"></use><use xlink:href="#bbburst-shape-2" width="18.075416548383835" opacity="0.5699221860258588" transform="matrix(0.834936266029051,-0.5503466468231325,0.5503466468231325,0.834936266029051,288.3667908484318,225.89095478281166)" fill="#ffff01" filter="url(#bbburst-blur-1)"></use><use xlink:href="#bbburst-shape-2" width="20.716356721576002" opacity="0.39214010456292103" transform="matrix(0.9830252265046241,-0.18347044463763762,0.18347044463763762,0.9830252265046241,368.0471725683226,277.32351261442875)" fill="#ffff01" filter="url(#bbburst-blur-2)"></use><use xlink:href="#bbburst-shape-5" width="19.50849769363441" opacity="0.5783225917570487" transform="matrix(0.708661809371617,-0.7055483257283982,0.7055483257283982,0.708661809371617,124.35211750768826,-65.85777566698471)" fill="#ffff01" filter="url(#bbburst-blur-1)"></use><use xlink:href="#bbburst-shape-8" width="9.7401554942067" opacity="0.8869552592076463" transform="matrix(0.9999613140172704,0.008796048479515728,-0.008796048479515728,0.9999613140172704,359.17110361275576,32.05539598635312)" fill="none" stroke="#ffff01"></use><use xlink:href="#bbburst-shape-14" width="6.313029960913687" opacity="0.9676496528512377" transform="matrix(0.9732244953720759,-0.2298566544778904,0.2298566544778904,0.9732244953720759,294.66007838661596,21.70435235920678)" fill="none" stroke="#ffff01"></use><use xlink:href="#bbburst-shape-8" width="31.80648894960068" opacity="0.30259310527866756" transform="matrix(0.8901075504267058,-0.8776152623293249,0.8776152623293249,0.8901075504267058,-160.9799086402332,303.19357517478915)" fill="none" stroke="#ffff01" filter="url(#bbburst-blur-3)"></use><use xlink:href="#bbburst-shape-2" width="8.552492263433749" opacity="0.8379646253398907" transform="matrix(0.9288718409221319,-0.37040127313756577,0.37040127313756577,0.9288718409221319,192.33603746779806,77.29193180765265)" fill="#ffff01"></use><use xlink:href="#bbburst-shape-2" width="14.10275677331223" opacity="0.7347851641408449" transform="matrix(0.9983926399375702,0.05667571365663881,-0.05667571365663881,0.9983926399375702,475.58036768350587,-102.94632341349927)" fill="#ffff01" filter="url(#bbburst-blur-1)"></use><use xlink:href="#bbburst-shape-14" width="9.528232916659395" opacity="0.8496710539430049" transform="matrix(0.878954490672822,-0.4769056545335565,0.4769056545335565,0.878954490672822,271.2455250881303,64.67511696090338)" fill="none" stroke="#ffff01"></use><use xlink:href="#bbburst-shape-8" width="18.59626505438471" opacity="0.64847759937733" transform="matrix(0.8387530761701181,0.5445119624169557,-0.5445119624169557,0.8387530761701181,461.9768972259714,3.669120650247521)" fill="none" stroke="#ffff01" filter="url(#bbburst-blur-1)"></use><use xlink:href="#bbburst-shape-10" width="26.54818933578083" opacity="0.5495400689069554" transform="matrix(0.8673671783674756,-0.4976687431322605,0.4976687431322605,0.8673671783674756,351.67773913456097,181.15907576613273)" fill="none" stroke="#ffff01" filter="url(#bbburst-blur-2)"></use><use xlink:href="#bbburst-shape-8" width="22.228291720163316" opacity="0.4507997113768253" transform="matrix(0.7325516280429794,-0.680711475040329,0.680711475040329,0.7325516280429794,-84.59185509530607,-24.719838107994008)" fill="none" stroke="#ffff01" filter="url(#bbburst-blur-2)"></use><use xlink:href="#bbburst-shape-10" width="34.85889332502842" opacity="0.30468907846542426" transform="matrix(0.9295778998325731,0.8356942791133986,-0.8356942791133986,0.9295778998325731,929.7137618382601,244.05796229205714)" fill="none" stroke="#ffff01" filter="url(#bbburst-blur-3)"></use><use xlink:href="#bbburst-shape-8" width="9.616948079620217" opacity="0.7950038092775822" transform="matrix(0.7382078280713776,-0.6745733485501332,0.6745733485501332,0.7382078280713776,172.61241585699696,187.92638376313818)" fill="none" stroke="#ffff01"></use><use xlink:href="#bbburst-shape-2" width="8.1087216656415" opacity="0.8306246152868697" transform="matrix(0.833051965705836,0.5531947418709281,-0.5531947418709281,0.833051965705836,645.520921156557,-6.497588844168263)" fill="#ffff01"></use><use xlink:href="#bbburst-shape-2" width="8.454494974485792" opacity="0.8601291635678172" transform="matrix(0.9188599181996698,0.39458389567504654,-0.39458389567504654,0.9188599181996698,497.30834466016364,3.338874110228005)" fill="#ffff01"></use><use xlink:href="#bbburst-shape-2" width="24.903382127251678" opacity="0.1731025970645661" transform="matrix(1.117954463919648,-0.5591760157608089,0.5591760157608089,1.117954463919648,187.26659961246503,331.0680505301652)" fill="#ffff01" filter="url(#bbburst-blur-3)"></use><use xlink:href="#bbburst-shape-8" width="9.724054107971089" opacity="0.8231898633584843" transform="matrix(0.9389135231769207,-0.34415315775901584,0.34415315775901584,0.9389135231769207,263.91518435645094,-53.21931023924316)" fill="none" stroke="#ffff01"></use><use xlink:href="#bbburst-shape-2" width="9.455080487599233" opacity="0.8052219474641792" transform="matrix(0.9709341887923502,0.2393466127484176,-0.2393466127484176,0.9709341887923502,413.1640021331537,-29.514792488032526)" fill="#ffff01"></use><use xlink:href="#bbburst-shape-8" width="7.211589877713626" opacity="0.8782827739977662" transform="matrix(0.7987129736404183,-0.6017122117245756,0.6017122117245756,0.7987129736404183,101.72657158311799,80.03322411792232)" fill="none" stroke="#ffff01"></use><use xlink:href="#bbburst-shape-5" width="9.308523949692523" opacity="0.8375113112832774" transform="matrix(0.8864852464938572,-0.4627568559716056,0.4627568559716056,0.8864852464938572,139.0501568006781,33.32609427950865)" fill="#ffff01"></use><use xlink:href="#bbburst-shape-2" width="34.68973968892692" opacity="0.2523062618355849" transform="matrix(1.0519801670920104,0.6751575579411564,-0.6751575579411564,1.0519801670920104,735.0983298953287,293.505060895594)" fill="#ffff01" filter="url(#bbburst-blur-3)"></use><use xlink:href="#bbburst-shape-8" width="32.81864351707582" opacity="0.4314781179700361" transform="matrix(0.8409719739116664,-0.5410786810576771,0.5410786810576771,0.8409719739116664,-86.05996850130845,70.72144357324851)" fill="none" stroke="#ffff01" filter="url(#bbburst-blur-2)"></use><use xlink:href="#bbburst-shape-10" width="12.246794782736584" opacity="0.7988949450025169" transform="matrix(0.9824109704311179,0.186731585910336,-0.186731585910336,0.9824109704311179,430.44717672602974,87.91804153612611)" fill="none" stroke="#ffff01"></use><use xlink:href="#bbburst-shape-8" width="11.740534799244099" opacity="0.776399030607264" transform="matrix(0.987584529778364,-0.15708849907758282,0.15708849907758282,0.987584529778364,235.33053444703384,35.91207697782539)" fill="none" stroke="#ffff01" filter="url(#bbburst-blur-1)"></use><use xlink:href="#bbburst-shape-2" width="37.10238649759635" opacity="0.1649229020097267" transform="matrix(1.1521762806255853,0.4847574840719764,-0.4847574840719764,1.1521762806255853,228.41546227019603,81.17615232077634)" fill="#ffff01" filter="url(#bbburst-blur-3)"></use><use xlink:href="#bbburst-shape-14" width="15.827140273286023" opacity="0.637978624731655" transform="matrix(0.9373977172399413,-0.34826070653082164,0.34826070653082164,0.9373977172399413,172.08158213323875,169.0456426760436)" fill="none" stroke="#ffff01" filter="url(#bbburst-blur-1)"></use><use xlink:href="#bbburst-shape-2" width="5.934924970974455" opacity="0.9305970911061415" transform="matrix(0.8816785045058516,-0.4718506275213851,0.4718506275213851,0.8816785045058516,238.74153475188893,57.073020916624216)" fill="#ffff01"></use><use xlink:href="#bbburst-shape-2" width="46.724951189530444" opacity="0.036244574034563826" transform="matrix(1.5461078177236762,-0.8197869332782342,0.8197869332782342,1.5461078177236762,-323.7644373387959,42.961002043407916)" fill="#ffff01" filter="url(#bbburst-blur-4)"></use><use xlink:href="#bbburst-shape-5" width="26.27572506436948" opacity="0.31044727862101484" transform="matrix(1.2404084145620577,0.15455408465531545,-0.15455408465531545,1.2404084145620577,753.4532081450703,-59.90911116311099)" fill="#ffff01" filter="url(#bbburst-blur-3)"></use><use xlink:href="#bbburst-shape-14" width="8.139841781720165" opacity="0.8311548613441796" transform="matrix(0.9837799943206982,0.17937927074878818,-0.17937927074878818,0.9837799943206982,411.71636138866376,-45.55088541505086)" fill="none" stroke="#ffff01"></use><use xlink:href="#bbburst-shape-8" width="8.545279189941574" opacity="0.843476997266208" transform="matrix(0.9862000234151329,0.16555818861050456,-0.16555818861050456,0.9862000234151329,487.69127447159417,70.39912920423416)" fill="none" stroke="#ffff01"></use><use xlink:href="#bbburst-shape-8" width="23.362799816264022" opacity="0.045731686830650986" transform="matrix(1.4585845869780607,0.9669700112361501,-0.9669700112361501,1.4585845869780607,992.9992962476942,-561.5560440315219)" fill="none" stroke="#ffff01" filter="url(#bbburst-blur-4)"></use><use xlink:href="#bbburst-shape-2" width="11.40756664001944" opacity="0.7896691381774157" transform="matrix(0.8391951462511161,0.5438304023393394,-0.5438304023393394,0.8391951462511161,550.5946535878847,132.6115825167272)" fill="#ffff01"></use><use xlink:href="#bbburst-shape-2" width="25.53884860792945" opacity="0.2324921609678" transform="matrix(1.1194933261535376,0.5560887453434832,-0.5560887453434832,1.1194933261535376,263.19728464027526,-37.40185947610013)" fill="#ffff01" filter="url(#bbburst-blur-3)"></use><use xlink:href="#bbburst-shape-14" width="13.388510252072907" opacity="0.6675832673805624" transform="matrix(0.9962084941095463,-0.08699790953804597,0.08699790953804597,0.9962084941095463,359.59223029580414,-147.46678198594165)" fill="none" stroke="#ffff01" filter="url(#bbburst-blur-1)"></use><use xlink:href="#bbburst-shape-2" width="38.41073539713165" opacity="0.009676350304299475" transform="matrix(1.5991702680053874,0.71074218527366,-0.71074218527366,1.5991702680053874,390.87626614689964,-613.2758035160866)" fill="#ffff01" filter="url(#bbburst-blur-4)"></use><use xlink:href="#bbburst-shape-5" width="12.566569197409367" opacity="0.6806662115970954" transform="matrix(0.7362119206099965,0.6767510679354264,-0.6767510679354264,0.7362119206099965,699.3343654103767,-38.53519553893295)" fill="#ffff01" filter="url(#bbburst-blur-1)"></use><use xlink:href="#bbburst-shape-14" width="22.89661180600206" opacity="0.5116142866832545" transform="matrix(0.9922261158427116,-0.12444812188091026,0.12444812188091026,0.9922261158427116,149.259405598496,115.6956555809324)" fill="none" stroke="#ffff01" filter="url(#bbburst-blur-2)"></use><use xlink:href="#bbburst-shape-14" width="14.391507006100387" opacity="0.6980285345167163" transform="matrix(0.966448507869406,-0.25686043221368043,0.25686043221368043,0.966448507869406,422.25404670727664,-17.1956086656956)" fill="none" stroke="#ffff01" filter="url(#bbburst-blur-1)"></use><use xlink:href="#bbburst-shape-2" width="9.512357604536245" opacity="0.838120603029544" transform="matrix(0.7326190459440239,0.6806389156667934,-0.6806389156667934,0.7326190459440239,632.6899725666005,40.43447232451973)" fill="#ffff01"></use><use xlink:href="#bbburst-shape-2" width="10.826820698407062" opacity="0.7349232513509154" transform="matrix(0.7307735887596616,-0.682619924973865,0.682619924973865,0.7307735887596616,110.17347959034083,229.9827860901417)" fill="#ffff01" filter="url(#bbburst-blur-1)"></use><use xlink:href="#bbburst-shape-14" width="6.019311546777388" opacity="0.9627810377021816" transform="matrix(0.8494190626184078,-0.5277189176640017,0.5277189176640017,0.8494190626184078,182.191066897737,45.606217830505955)" fill="none" stroke="#ffff01"></use><use xlink:href="#bbburst-shape-14" width="25.780488776592115" opacity="0.1967669317993852" transform="matrix(1.0060066122854008,0.7419236456927701,-0.7419236456927701,1.0060066122854008,967.2088467775089,-236.24216105638942)" fill="none" stroke="#ffff01" filter="url(#bbburst-blur-3)"></use><use xlink:href="#bbburst-shape-14" width="24.15078475038888" opacity="0.1812982390814365" transform="matrix(1.2225507194863319,-0.26051821103994366,0.26051821103994366,1.2225507194863319,315.32225671467984,-452.65168364284597)" fill="none" stroke="#ffff01" filter="url(#bbburst-blur-3)"></use><use xlink:href="#bbburst-shape-14" width="12.42952694596798" opacity="0.7439479972447607" transform="matrix(0.9998663207354749,-0.016350555308748214,0.016350555308748214,0.9998663207354749,282.98499783185474,-48.87959737229295)" fill="none" stroke="#ffff01" filter="url(#bbburst-blur-1)"></use><use xlink:href="#bbburst-shape-5" width="11.467124944801594" opacity="0.7616428005639175" transform="matrix(0.8833387105258534,-0.46873523708648407,0.46873523708648407,0.8833387105258534,120.46057291149873,112.11531910755747)" fill="#ffff01" filter="url(#bbburst-blur-1)"></use><use xlink:href="#bbburst-shape-8" width="12.524103117180378" opacity="0.7569438522286855" transform="matrix(0.8055388893284491,-0.5925429079648904,0.5925429079648904,0.8055388893284491,123.68007993117826,-22.376619717025562)" fill="none" stroke="#ffff01" filter="url(#bbburst-blur-1)"></use><use xlink:href="#bbburst-shape-14" width="17.424768169404658" opacity="0.6706405477318275" transform="matrix(0.8001111742678163,-0.5998517390253829,0.5998517390253829,0.8001111742678163,94.75622401888992,-51.043481432810495)" fill="none" stroke="#ffff01" filter="url(#bbburst-blur-1)"></use><use xlink:href="#bbburst-shape-8" width="5.966568257414245" opacity="0.907573859564094" transform="matrix(0.9253709886218117,0.3790627038064954,-0.3790627038064954,0.9253709886218117,561.3189612802528,-10.962503863948939)" fill="none" stroke="#ffff01"></use><use xlink:href="#bbburst-shape-2" width="21.60979103253374" opacity="0.5123598130417324" transform="matrix(0.7574587798864871,-0.6528829885767236,0.6528829885767236,0.7574587798864871,164.78163205448232,320.8495535194596)" fill="#ffff01" filter="url(#bbburst-blur-2)"></use><use xlink:href="#bbburst-shape-2" width="34.470032012313695" opacity="0.21884876723903957" transform="matrix(1.215382534965276,-0.2921391683793528,0.2921391683793528,1.215382534965276,104.30859389136828,232.96444976287978)" fill="#ffff01" filter="url(#bbburst-blur-3)"></use><use xlink:href="#bbburst-shape-14" width="26.984454681214803" opacity="0.4681787235908489" transform="matrix(0.8178482035878372,-0.5754340239229409,0.5754340239229409,0.8178482035878372,218.19439749191187,-151.18101442880442)" fill="none" stroke="#ffff01" filter="url(#bbburst-blur-2)"></use><use xlink:href="#bbburst-shape-2" width="22.291477759788393" opacity="0.6316647560237751" transform="matrix(0.9976114484616858,-0.0690753059940894,0.0690753059940894,0.9976114484616858,513.2935681173765,67.74079807108399)" fill="#ffff01" filter="url(#bbburst-blur-1)"></use><use xlink:href="#bbburst-shape-2" width="25.597102566386738" opacity="0.4921973511338592" transform="matrix(0.9907720223822014,-0.13553892306154203,0.13553892306154203,0.9907720223822014,180.89714748491744,-165.00167808815266)" fill="#ffff01" filter="url(#bbburst-blur-2)"></use><use xlink:href="#bbburst-shape-2" width="13.279185900662942" opacity="0.6448011363341928" transform="matrix(0.9980045415891815,-0.0631421805718473,0.0631421805718473,0.9980045415891815,224.13602956805218,70.63653265527614)" fill="#ffff01" filter="url(#bbburst-blur-1)"></use><use xlink:href="#bbburst-shape-8" width="6.7686258726214685" opacity="0.8647776846423003" transform="matrix(0.7169461548680673,-0.6971285469839068,0.6971285469839068,0.7169461548680673,100.21950055362635,173.54960247978636)" fill="none" stroke="#ffff01"></use><use xlink:href="#bbburst-shape-2" width="23.113113572805034" opacity="0.6130205892738247" transform="matrix(0.9957049310672604,0.09258342318332244,-0.09258342318332244,0.9957049310672604,587.2576995814381,-63.89767556439119)" fill="#ffff01" filter="url(#bbburst-blur-1)"></use><use xlink:href="#bbburst-shape-14" width="10.503522851950859" opacity="0.8200190128507681" transform="matrix(0.9343806457210333,-0.35627630976805735,0.35627630976805735,0.9343806457210333,179.88786220451837,63.830696278474306)" fill="none" stroke="#ffff01"></use><use xlink:href="#bbburst-shape-5" width="7.945172192930741" opacity="0.9035711860861545" transform="matrix(0.9107472263058884,-0.41296427179131456,0.41296427179131456,0.9107472263058884,225.1881147970049,80.31665630822346)" fill="#ffff01"></use><use xlink:href="#bbburst-shape-5" width="37.118018251200404" opacity="0.1302347119866325" transform="matrix(1.1594679138886244,-0.4670483451022619,0.4670483451022619,1.1594679138886244,459.8573554315295,229.94369652221803)" fill="#ffff01" filter="url(#bbburst-blur-3)"></use><use xlink:href="#bbburst-shape-14" width="20.524222756701562" opacity="0.5959381058329165" transform="matrix(0.9715979993421486,0.23663754493810601,-0.23663754493810601,0.9715979993421486,665.3797017625831,-11.244526135682747)" fill="none" stroke="#ffff01" filter="url(#bbburst-blur-1)"></use><use xlink:href="#bbburst-shape-2" width="40.578535055133685" opacity="0.2235039351759932" transform="matrix(0.8902143488815629,-0.8775069304828167,0.8775069304828167,0.8902143488815629,320.00978137395015,258.0601517958108)" fill="#ffff01" filter="url(#bbburst-blur-3)"></use><use xlink:href="#bbburst-shape-5" width="16.57878840745788" opacity="0.6404316699701997" transform="matrix(0.8214006930764043,0.5703515594908132,-0.5703515594908132,0.8214006930764043,576.7066552448507,222.24225010664634)" fill="#ffff01" filter="url(#bbburst-blur-1)"></use><use xlink:href="#bbburst-shape-14" width="9.756545609602899" opacity="0.7886191411254974" transform="matrix(0.8315515435419976,0.5554475946774109,-0.5554475946774109,0.8315515435419976,603.0923249524687,158.60830886914204)" fill="none" stroke="#ffff01"></use><use xlink:href="#bbburst-shape-8" width="9.03183748248659" opacity="0.8343216746781803" transform="matrix(0.9972027509215239,0.07474405364004014,-0.07474405364004014,0.9972027509215239,414.9718302583548,74.60450276630627)" fill="none" stroke="#ffff01"></use><use xlink:href="#bbburst-shape-2" width="20.538925419501567" opacity="0.5060075611394987" transform="matrix(0.8242718680498267,-0.5661942136243084,0.5661942136243084,0.8242718680498267,369.5004223081496,163.41415503762926)" fill="#ffff01" filter="url(#bbburst-blur-2)"></use><use xlink:href="#bbburst-shape-2" width="9.823549487132256" opacity="0.7978808817120295" transform="matrix(0.9024715071485504,-0.43074955459643127,0.43074955459643127,0.9024715071485504,273.5574434025916,-34.65550843766408)" fill="#ffff01"></use><use xlink:href="#bbburst-shape-2" width="6.1702546985708775" opacity="0.8893484743800126" transform="matrix(0.9412820994608416,0.33762110306464893,-0.33762110306464893,0.9412820994608416,575.9335971334965,-1.2534450470286629)" fill="#ffff01"></use><use xlink:href="#bbburst-shape-14" width="22.673530756286823" opacity="0.4486532488326358" transform="matrix(0.9409320133589545,-0.33859554964037014,0.33859554964037014,0.9409320133589545,121.4408848646853,237.27985107295393)" fill="none" stroke="#ffff01" filter="url(#bbburst-blur-2)"></use><use xlink:href="#bbburst-shape-14" width="20.609943380763884" opacity="0.4978061790928544" transform="matrix(0.9508477626480346,-0.30965873517023024,0.30965873517023024,0.9508477626480346,492.3261154927351,24.755924482603575)" fill="none" stroke="#ffff01" filter="url(#bbburst-blur-2)"></use><use xlink:href="#bbburst-shape-8" width="9.727248887923384" opacity="0.7863025344102258" transform="matrix(0.9716307310922957,-0.23650311286968498,0.23650311286968498,0.9716307310922957,205.93524235021243,-4.001266398800965)" fill="none" stroke="#ffff01"></use><use xlink:href="#bbburst-shape-2" width="26.029556275677407" opacity="0.4065085790597954" transform="matrix(0.7307058210581602,0.6826924659550009,-0.6826924659550009,0.7307058210581602,876.8282369015856,259.59916157168703)" fill="#ffff01" filter="url(#bbburst-blur-2)"></use><use xlink:href="#bbburst-shape-10" width="5.067499372432584" opacity="0.9423178062732196" transform="matrix(0.9320129504871418,0.3624249717172541,-0.3624249717172541,0.9320129504871418,522.1790753321304,10.263912829246635)" fill="none" stroke="#ffff01"></use><use xlink:href="#bbburst-shape-2" width="30.87646575297373" opacity="0.32989435790970545" transform="matrix(1.249605343418927,0.031408369885519594,-0.031408369885519594,1.249605343418927,185.54955701969493,-318.90005517293673)" fill="#ffff01" filter="url(#bbburst-blur-3)"></use><use xlink:href="#bbburst-shape-5" width="7.153211860863275" opacity="0.9160687822259314" transform="matrix(0.8040206755434081,-0.5946013398056901,0.5946013398056901,0.8040206755434081,122.63336503689985,71.39442484732257)" fill="#ffff01"></use><use xlink:href="#bbburst-shape-8" width="27.094047206404788" opacity="0.31804459146184416" transform="matrix(0.9892457744254536,-0.7641287835053621,0.7641287835053621,0.9892457744254536,-221.727241201006,-35.97759715085283)" fill="none" stroke="#ffff01" filter="url(#bbburst-blur-3)"></use><use xlink:href="#bbburst-shape-2" width="6.868781632787185" opacity="0.8990807200279587" transform="matrix(0.9096338933495371,-0.41541085694738766,0.41541085694738766,0.9096338933495371,221.41532691925278,-6.875429531558211)" fill="#ffff01"></use><use xlink:href="#bbburst-shape-2" width="30.33721318730688" opacity="0.05724210911828731" transform="matrix(1.723615902614647,0.30273457062895154,-0.30273457062895154,1.723615902614647,130.28239973523094,-510.81180275420024)" fill="#ffff01" filter="url(#bbburst-blur-4)"></use><use xlink:href="#bbburst-shape-14" width="20.714487625348347" opacity="0.16421568402071496" transform="matrix(1.065697693735511,0.6532904603366051,-0.6532904603366051,1.065697693735511,1022.2703035109458,22.31891806299177)" fill="none" stroke="#ffff01" filter="url(#bbburst-blur-3)"></use><use xlink:href="#bbburst-shape-2" width="17.140938549781406" opacity="0.6003333454693778" transform="matrix(0.86428520465638,-0.5030020725723496,0.5030020725723496,0.86428520465638,332.7016713556035,-52.655650086815854)" fill="#ffff01" filter="url(#bbburst-blur-1)"></use><use xlink:href="#bbburst-shape-8" width="15.126223527456633" opacity="0.5852109485945638" transform="matrix(0.7604564360432595,-0.6493889503836541,0.6493889503836541,0.7604564360432595,-44.13007716355136,154.89438364410205)" fill="none" stroke="#ffff01" filter="url(#bbburst-blur-1)"></use><use xlink:href="#bbburst-shape-8" width="25.170025382642702" opacity="0.25421587717385397" transform="matrix(1.2492140059402272,-0.044321184130948967,0.044321184130948967,1.2492140059402272,701.8674302355819,-112.97013716434526)" fill="none" stroke="#ffff01" filter="url(#bbburst-blur-3)"></use><use xlink:href="#bbburst-shape-5" width="26.22118875333761" opacity="0.4184896147459989" transform="matrix(0.9227752484595304,-0.3853386054244396,0.3853386054244396,0.9227752484595304,105.58312523662875,-192.19245669142964)" fill="#ffff01" filter="url(#bbburst-blur-2)"></use><use xlink:href="#bbburst-shape-8" width="21.46690401088039" opacity="0.55960979299442" transform="matrix(0.9272592531550917,0.37441992126255996,-0.37441992126255996,0.9272592531550917,448.5549952605497,-150.83478866016657)" fill="none" stroke="#ffff01" filter="url(#bbburst-blur-1)"></use><use xlink:href="#bbburst-shape-10" width="5.991452117868969" opacity="0.9093856952839579" transform="matrix(0.9960532951529345,-0.08875715866892765,0.08875715866892765,0.9960532951529345,388.1202284597187,-29.055032882267824)" fill="none" stroke="#ffff01"></use><use xlink:href="#bbburst-shape-2" width="30.612043661461662" opacity="0.23358803803182937" transform="matrix(1.1110265532083632,0.5728175958068537,-0.5728175958068537,1.1110265532083632,789.8481446976132,-348.72165623659635)" fill="#ffff01" filter="url(#bbburst-blur-3)"></use><use xlink:href="#bbburst-shape-14" width="19.298453558641114" opacity="0.6511455096277945" transform="matrix(0.9278768929756328,0.37288667377889223,-0.37288667377889223,0.9278768929756328,658.5355469948598,128.42019776033766)" fill="none" stroke="#ffff01" filter="url(#bbburst-blur-1)"></use><use xlink:href="#bbburst-shape-10" width="25.908882935646886" opacity="0.42420046770015174" transform="matrix(0.999381685120414,-0.03516031066247377,0.03516031066247377,0.999381685120414,626.9735014168831,51.98611518780132)" fill="none" stroke="#ffff01" filter="url(#bbburst-blur-2)"></use><use xlink:href="#bbburst-shape-5" width="22.301030849416556" opacity="0.573355675769953" transform="matrix(0.8593881190262773,-0.511323831711839,0.511323831711839,0.8593881190262773,253.3217338656398,-117.811378926049)" fill="#ffff01" filter="url(#bbburst-blur-1)"></use><use xlink:href="#bbburst-shape-14" width="29.054530989951626" opacity="0.40708926157040315" transform="matrix(0.8902659876499807,0.4554409634997762,-0.4554409634997762,0.8902659876499807,317.4205142030119,-50.90221742674538)" fill="none" stroke="#ffff01" filter="url(#bbburst-blur-2)"></use><use xlink:href="#bbburst-shape-10" width="25.295705452989814" opacity="0.4422256171142369" transform="matrix(0.7433599884231961,0.6688915664077892,-0.6688915664077892,0.7433599884231961,787.2715178355286,-121.04595975085809)" fill="none" stroke="#ffff01" filter="url(#bbburst-blur-2)"></use><use xlink:href="#bbburst-shape-2" width="13.678170571175347" opacity="0.6812051672896428" transform="matrix(0.9509054907305721,-0.3094814173717866,0.3094814173717866,0.9509054907305721,148.9195916945423,-55.63862732462724)" fill="#ffff01" filter="url(#bbburst-blur-1)"></use><use xlink:href="#bbburst-shape-14" width="20.275666032029832" opacity="0.49424551424472496" transform="matrix(0.9483948527028822,-0.3170917901281558,0.3170917901281558,0.9483948527028822,203.3688906500946,-195.6038716335293)" fill="none" stroke="#ffff01" filter="url(#bbburst-blur-2)"></use><use xlink:href="#bbburst-shape-2" width="10.162619188254403" opacity="0.8124012830939491" transform="matrix(0.8327679503494209,0.553622200485877,-0.553622200485877,0.8327679503494209,682.9473184446913,11.113833505283651)" fill="#ffff01"></use><use xlink:href="#bbburst-shape-2" width="8.256146895334705" opacity="0.8931720771101919" transform="matrix(0.9723326894476614,-0.23360038748143758,0.23360038748143758,0.9723326894476614,350.5858968077661,10.237604630560213)" fill="#ffff01"></use><use xlink:href="#bbburst-shape-10" width="28.791248092976872" opacity="0.3370466887480146" transform="matrix(0.9574930761664253,-0.288456251610805,0.288456251610805,0.9574930761664253,373.96946581769214,-258.77904909172287)" fill="none" stroke="#ffff01" filter="url(#bbburst-blur-2)"></use><use xlink:href="#bbburst-shape-2" width="39.51522883017162" opacity="0.29221540006861524" transform="matrix(1.2329159219752568,-0.20595710558245522,0.20595710558245522,1.2329159219752568,21.826074388523963,-255.70646730923224)" fill="#ffff01" filter="url(#bbburst-blur-3)"></use><use xlink:href="#bbburst-shape-2" width="16.065334090112938" opacity="0.5682003888924981" transform="matrix(0.9994658630205875,0.03268009572373247,-0.03268009572373247,0.9994658630205875,386.8521314696834,193.41566224529134)" fill="#ffff01" filter="url(#bbburst-blur-1)"></use><use xlink:href="#bbburst-shape-2" width="13.230957889806954" opacity="0.7645580262433727" transform="matrix(0.8928981381360026,-0.45025871997470523,0.45025871997470523,0.8928981381360026,243.46242700121624,-55.94245382555397)" fill="#ffff01" filter="url(#bbburst-blur-1)"></use><use xlink:href="#bbburst-shape-8" width="6.518407874440407" opacity="0.8724038609888046" transform="matrix(0.7453144529990907,0.6667131063288513,-0.6667131063288513,0.7453144529990907,675.2132904322887,43.33818163613597)" fill="none" stroke="#ffff01"></use><use xlink:href="#bbburst-shape-8" width="15.698539081596703" opacity="0.6987092957849492" transform="matrix(0.990373693663687,0.1384194599720192,-0.1384194599720192,0.990373693663687,564.4463728183495,-65.99425760906104)" fill="none" stroke="#ffff01" filter="url(#bbburst-blur-1)"></use><use xlink:href="#bbburst-shape-14" width="5.8259031626540905" opacity="0.9893311456368272" transform="matrix(0.9592229848294408,0.28265042963862325,-0.28265042963862325,0.9592229848294408,512.6399634626891,11.323298437488916)" fill="none" stroke="#ffff01"></use><use xlink:href="#bbburst-shape-2" width="32.91466716411709" opacity="0.17774939570970283" transform="matrix(1.2074061865423715,-0.3235278978684957,0.3235278978684957,1.2074061865423715,-95.92800224125199,-207.00964104070493)" fill="#ffff01" filter="url(#bbburst-blur-3)"></use><use xlink:href="#bbburst-shape-8" width="7.116847292227181" opacity="0.8510569680887577" transform="matrix(0.9902538879000009,0.13927396561788713,-0.13927396561788713,0.9902538879000009,415.3438463362859,59.39331913520829)" fill="none" stroke="#ffff01"></use><use xlink:href="#bbburst-shape-10" width="30.96268301304364" opacity="0.3290399034370749" transform="matrix(0.9208132655153511,0.8453419012748364,-0.8453419012748364,0.9208132655153511,750.8537509586722,-282.13720990750005)" fill="none" stroke="#ffff01" filter="url(#bbburst-blur-3)"></use><use xlink:href="#bbburst-shape-14" width="6.037794439999537" opacity="0.962919210859452" transform="matrix(0.8191253562732419,0.5736145489004219,-0.5736145489004219,0.8191253562732419,643.5525905565726,68.78225401051395)" fill="none" stroke="#ffff01"></use><use xlink:href="#bbburst-shape-8" width="5.181312639750803" opacity="0.9165053277768018" transform="matrix(0.9998146298853751,0.01925372346250211,-0.01925372346250211,0.9998146298853751,383.46493839353764,-30.686232460735823)" fill="none" stroke="#ffff01"></use><use xlink:href="#bbburst-shape-14" width="38.8991544554549" opacity="-0.10495431705226332" transform="matrix(1.2413885359091925,-1.2334725383701217,1.2334725383701217,1.2413885359091925,228.61836461142798,-429.5162352516018)" fill="none" stroke="#ffff01" filter="url(#bbburst-blur-4)"></use><use xlink:href="#bbburst-shape-10" width="17.06471399212494" opacity="0.678434780853449" transform="matrix(0.9068120508231443,-0.4215351758535971,0.4215351758535971,0.9068120508231443,322.2469216024451,-65.04195661318596)" fill="none" stroke="#ffff01" filter="url(#bbburst-blur-1)"></use><use xlink:href="#bbburst-shape-14" width="8.877445296151913" opacity="0.844832844898936" transform="matrix(0.9228081147464878,0.38525989066866667,-0.38525989066866667,0.9228081147464878,611.5151202149394,-3.865376056877494)" fill="none" stroke="#ffff01"></use><use xlink:href="#bbburst-shape-2" width="24.97329948158664" opacity="0.22918392118245023" transform="matrix(1.0261180781716137,0.7138499069478078,-0.7138499069478078,1.0261180781716137,980.2284067895094,-179.82952944366792)" fill="#ffff01" filter="url(#bbburst-blur-3)"></use><use xlink:href="#bbburst-shape-2" width="20.01680783186126" opacity="0.37346059352692473" transform="matrix(0.9992353505972317,0.03909877385324997,-0.03909877385324997,0.9992353505972317,659.8091790987286,121.94471557990562)" fill="#ffff01" filter="url(#bbburst-blur-2)"></use><use xlink:href="#bbburst-shape-10" width="32.42858783316287" opacity="0.3145299884461198" transform="matrix(1.0286302435570533,-0.7102251910765747,0.7102251910765747,1.0286302435570533,304.09746296316945,-230.54071129445023)" fill="none" stroke="#ffff01" filter="url(#bbburst-blur-3)"></use><use xlink:href="#bbburst-shape-14" width="6.082652778562621" opacity="0.9219567470939692" transform="matrix(0.7961548912919535,0.6050928764015469,-0.6050928764015469,0.7961548912919535,648.2477988712553,113.74515221675773)" fill="none" stroke="#ffff01"></use><use xlink:href="#bbburst-shape-14" width="14.174262388175142" opacity="0.6446815137139928" transform="matrix(0.947206466065153,0.3206242514913119,-0.3206242514913119,0.947206466065153,362.5535188351168,1.7702103357681267)" fill="none" stroke="#ffff01" filter="url(#bbburst-blur-1)"></use><use xlink:href="#bbburst-shape-2" width="14.743048922283513" opacity="0.6662569922257815" transform="matrix(0.8662969759101173,0.499529327996851,-0.499529327996851,0.8662969759101173,675.1005288742915,175.8370137493053)" fill="#ffff01" filter="url(#bbburst-blur-1)"></use><use xlink:href="#bbburst-shape-2" width="7.0976286222534455" opacity="0.9437263305589013" transform="matrix(0.9220413563382933,-0.38709138094491374,0.38709138094491374,0.9220413563382933,236.43906176264565,57.289397582473555)" fill="#ffff01"></use><use xlink:href="#bbburst-shape-14" width="7.9305202413240155" opacity="0.8218270351888484" transform="matrix(0.8352339724045291,0.5498947275082298,-0.5498947275082298,0.8352339724045291,628.879942951719,142.97294687300644)" fill="none" stroke="#ffff01"></use><use xlink:href="#bbburst-shape-5" width="25.49498229984724" opacity="0.15988595862898647" transform="matrix(1.015202141005025,0.729290485951115,-0.729290485951115,1.015202141005025,309.8778644896944,67.31334218167285)" fill="#ffff01" filter="url(#bbburst-blur-3)"></use><use xlink:href="#bbburst-shape-10" width="35.68503136978839" opacity="0.022599792242907646" transform="matrix(1.5760323875953237,0.7606720142417382,-0.7606720142417382,1.5760323875953237,926.823405874364,117.41837326914151)" fill="none" stroke="#ffff01" filter="url(#bbburst-blur-4)"></use><use xlink:href="#bbburst-shape-2" width="38.66414980391662" opacity="0.2282605783358923" transform="matrix(1.149381228788879,-0.4913479326381328,0.4913479326381328,1.149381228788879,-93.25249599872637,162.4971447223386)" fill="#ffff01" filter="url(#bbburst-blur-3)"></use><use xlink:href="#bbburst-shape-14" width="13.22312646489961" opacity="0.7238328616492925" transform="matrix(0.9966750803294893,-0.08147873495707988,0.08147873495707988,0.9966750803294893,292.3103262961001,-101.79909986811595)" fill="none" stroke="#ffff01" filter="url(#bbburst-blur-1)"></use><use xlink:href="#bbburst-shape-14" width="7.233304179869108" opacity="0.8676781626289183" transform="matrix(0.7973714253632384,-0.6034888648634683,0.6034888648634683,0.7973714253632384,201.55809831326124,121.25569213058219)" fill="none" stroke="#ffff01"></use><use xlink:href="#bbburst-shape-5" width="23.491203368588057" opacity="0.10474417282959536" transform="matrix(1.5809930096743903,-0.7503073392688578,0.7503073392688578,1.5809930096743903,452.3741020342012,-380.4594228297446)" fill="#ffff01" filter="url(#bbburst-blur-4)"></use><use xlink:href="#bbburst-shape-5" width="17.28006153108559" opacity="0.6175910930714669" transform="matrix(0.9878241859190627,0.15557434786410318,-0.15557434786410318,0.9878241859190627,478.1887921236882,173.85805078649582)" fill="#ffff01" filter="url(#bbburst-blur-1)"></use><use xlink:href="#bbburst-shape-2" width="6.740912652988314" opacity="0.9436187615565141" transform="matrix(0.9143073306892079,-0.40502111679266245,0.40502111679266245,0.9143073306892079,209.67108625473105,38.22361456888166)" fill="#ffff01"></use><use xlink:href="#bbburst-shape-14" width="7.118762350050719" opacity="0.9083178497193616" transform="matrix(0.9544785763936006,-0.29827947835150453,0.29827947835150453,0.9544785763936006,237.54906617562915,30.347386843251968)" fill="none" stroke="#ffff01"></use><use xlink:href="#bbburst-shape-10" width="22.98926517080357" opacity="0.38385725337771737" transform="matrix(0.9853866886144996,-0.17033224562997798,0.17033224562997798,0.9853866886144996,577.8195620360718,-95.55489843360334)" fill="none" stroke="#ffff01" filter="url(#bbburst-blur-2)"></use><use xlink:href="#bbburst-shape-5" width="34.69316214472356" opacity="0.11957767966639377" transform="matrix(1.1631378982380416,-0.4578320976978255,0.4578320976978255,1.1631378982380416,42.877068240949995,-422.42690868334915)" fill="#ffff01" filter="url(#bbburst-blur-3)"></use><use xlink:href="#bbburst-shape-14" width="7.724542081969229" opacity="0.8613267826956275" transform="matrix(0.9553335731945081,0.29552963290914425,-0.29552963290914425,0.9553335731945081,501.9016463238036,-44.378947075070755)" fill="none" stroke="#ffff01"></use><use xlink:href="#bbburst-shape-2" width="16.791656989454022" opacity="0.6067849482641277" transform="matrix(0.9267321898723422,0.37572256819948024,-0.37572256819948024,0.9267321898723422,506.87155970641635,-147.16124211093452)" fill="#ffff01" filter="url(#bbburst-blur-1)"></use><use xlink:href="#bbburst-shape-14" width="6.360839103127646" opacity="0.8774795488366096" transform="matrix(0.9755076629209398,0.21996545088382854,-0.21996545088382854,0.9755076629209398,452.2887264598744,-35.36306645513787)" fill="none" stroke="#ffff01"></use><use xlink:href="#bbburst-shape-10" width="30.543678014818028" opacity="0.029371719313231126" transform="matrix(1.3293595557574733,-1.138113865795639,1.138113865795639,1.3293595557574733,282.7424382895542,135.45240340375972)" fill="none" stroke="#ffff01" filter="url(#bbburst-blur-4)"></use><use xlink:href="#bbburst-shape-2" width="29.812761887710316" opacity="0.28634636341753894" transform="matrix(1.095051882342333,0.6027946374832088,-0.6027946374832088,1.095051882342333,494.7903567558911,-340.64745573935176)" fill="#ffff01" filter="url(#bbburst-blur-3)"></use><use xlink:href="#bbburst-shape-2" width="25.743324423813817" opacity="0.1212998478433871" transform="matrix(1.139127775797186,0.5146726244977049,-0.5146726244977049,1.139127775797186,743.2845938015595,302.7366884001207)" fill="#ffff01" filter="url(#bbburst-blur-3)"></use><use xlink:href="#bbburst-shape-14" width="10.170083358329975" opacity="0.7421869231224323" transform="matrix(0.9304631381825347,-0.36638551893259835,0.36638551893259835,0.9304631381825347,295.7941188318953,135.72672436407493)" fill="none" stroke="#ffff01" filter="url(#bbburst-blur-1)"></use><use xlink:href="#bbburst-shape-2" width="11.067941691737568" opacity="0.828097157456569" transform="matrix(0.9858027806648834,0.16790734836029053,-0.16790734836029053,0.9858027806648834,529.7333249042599,41.58401043174467)" fill="#ffff01"></use><use xlink:href="#bbburst-shape-8" width="24.979760712019466" opacity="0.525905667584259" transform="matrix(0.9627251695583061,0.27048151119610897,-0.27048151119610897,0.9627251695583061,422.6680768913127,211.81325529298215)" fill="none" stroke="#ffff01" filter="url(#bbburst-blur-2)"></use><use xlink:href="#bbburst-shape-14" width="13.767054266294387" opacity="0.7555153620880959" transform="matrix(0.9853658739817868,-0.1704526162665435,0.1704526162665435,0.9853658739817868,406.96442165295474,-66.38666805860231)" fill="none" stroke="#ffff01" filter="url(#bbburst-blur-1)"></use><use xlink:href="#bbburst-shape-2" width="20.808830034207407" opacity="0.5014759067421137" transform="matrix(0.7364239620132402,0.6765203235474317,-0.6765203235474317,0.7364239620132402,879.5244522320627,39.94166244683771)" fill="#ffff01" filter="url(#bbburst-blur-2)"></use><use xlink:href="#bbburst-shape-8" width="19.412274309335753" opacity="0.6049484336047352" transform="matrix(0.9226192680447872,-0.3857119212994343,0.3857119212994343,0.9226192680447872,96.40778012298912,143.8039274917972)" fill="none" stroke="#ffff01" filter="url(#bbburst-blur-1)"></use><use xlink:href="#bbburst-shape-8" width="20.142685678718657" opacity="0.5722895212961897" transform="matrix(0.7108233440568961,0.7033705805219405,-0.7033705805219405,0.7108233440568961,863.2278782375835,144.766878836616)" fill="none" stroke="#ffff01" filter="url(#bbburst-blur-1)"></use><use xlink:href="#bbburst-shape-2" width="33.19234745530202" opacity="-0.10289784161949944" transform="matrix(1.4397006170528963,0.9948678973901559,-0.9948678973901559,1.4397006170528963,1126.3306946605303,157.21383950687232)" fill="#ffff01" filter="url(#bbburst-blur-4)"></use><use xlink:href="#bbburst-shape-8" width="22.814913231183418" opacity="0.5865941087875787" transform="matrix(0.9589626652077925,-0.2835323733501471,0.2835323733501471,0.9589626652077925,128.21363523797612,-93.80258752813171)" fill="none" stroke="#ffff01" filter="url(#bbburst-blur-1)"></use><use xlink:href="#bbburst-shape-10" width="6.0893991777508365" opacity="0.8942995393420907" transform="matrix(0.8285825746999581,-0.5598668742688643,0.5598668742688643,0.8285825746999581,133.83619873051083,44.06445714471937)" fill="none" stroke="#ffff01"></use><use xlink:href="#bbburst-shape-14" width="23.199693112149447" opacity="0.4750350792705659" transform="matrix(0.7980322391217656,-0.6026147569735587,0.6026147569735587,0.7980322391217656,-77.43283654227832,152.68717098542868)" fill="none" stroke="#ffff01" filter="url(#bbburst-blur-2)"></use><use xlink:href="#bbburst-shape-8" width="7.882724722000905" opacity="0.8085047346892726" transform="matrix(0.990712801574512,0.1359711175080269,-0.1359711175080269,0.990712801574512,536.6503371351421,4.214606674378615)" fill="none" stroke="#ffff01"></use><use xlink:href="#bbburst-shape-2" width="14.764451462807653" opacity="0.7213318488986378" transform="matrix(0.8914070576685593,-0.45320354978605554,0.45320354978605554,0.8914070576685593,88.81156543427383,24.09387331154835)" fill="#ffff01" filter="url(#bbburst-blur-1)"></use><use xlink:href="#bbburst-shape-2" width="21.32790185036558" opacity="0.15379763150726855" transform="matrix(1.065203177617051,-0.6540964687219597,0.6540964687219597,1.065203177617051,503.7293100915199,-74.62626534841286)" fill="#ffff01" filter="url(#bbburst-blur-3)"></use><use xlink:href="#bbburst-shape-14" width="15.641161843752116" opacity="0.6665425467486672" transform="matrix(0.7423833288934647,-0.6699753674435037,0.6699753674435037,0.7423833288934647,176.4134231331305,249.71340896101776)" fill="none" stroke="#ffff01" filter="url(#bbburst-blur-1)"></use><use xlink:href="#bbburst-shape-10" width="15.067062497875233" opacity="0.6714417620317492" transform="matrix(0.7851174182372124,0.6193469460492513,-0.6193469460492513,0.7851174182372124,495.68787082520987,103.74142524076939)" fill="none" stroke="#ffff01" filter="url(#bbburst-blur-1)"></use><use xlink:href="#bbburst-shape-10" width="16.877244183327164" opacity="0.667693746844888" transform="matrix(0.8883568120455823,0.4591537590962422,-0.4591537590962422,0.8883568120455823,568.1939345798842,190.10787483978402)" fill="none" stroke="#ffff01" filter="url(#bbburst-blur-1)"></use><use xlink:href="#bbburst-shape-14" width="12.291064298629191" opacity="0.7295254490199854" transform="matrix(0.9894809211293842,-0.1446634256505259,0.1446634256505259,0.9894809211293842,267.6886806400165,105.81107236324976)" fill="none" stroke="#ffff01" filter="url(#bbburst-blur-1)"></use><use xlink:href="#bbburst-shape-14" width="6.509619300030513" opacity="0.9486055053378617" transform="matrix(0.8197947515381961,0.5726574590018253,-0.5726574590018253,0.8197947515381961,638.7079569248269,50.65139449522354)" fill="none" stroke="#ffff01"></use><use xlink:href="#bbburst-shape-2" width="23.368774270611755" opacity="0.43072114050253085" transform="matrix(0.817172502631572,0.5763931825957463,-0.5763931825957463,0.817172502631572,732.7428968137068,296.92679587418974)" fill="#ffff01" filter="url(#bbburst-blur-2)"></use><use xlink:href="#bbburst-shape-5" width="26.58433161367417" opacity="0.2662576136420094" transform="matrix(1.2433841698314883,-0.12843600045337944,0.12843600045337944,1.2433841698314883,643.9450692277807,12.857657395899707)" fill="#ffff01" filter="url(#bbburst-blur-3)"></use><use xlink:href="#bbburst-shape-2" width="23.69665927168203" opacity="0.44723511217644896" transform="matrix(0.9369738123310755,-0.349399592166005,0.349399592166005,0.9369738123310755,225.75863764505874,277.0040705167923)" fill="#ffff01" filter="url(#bbburst-blur-2)"></use><use xlink:href="#bbburst-shape-5" width="13.471247206321197" opacity="0.7177943968067106" transform="matrix(0.9452889355248149,0.3262343151392299,-0.3262343151392299,0.9452889355248149,408.31069332115914,71.78087536172802)" fill="#ffff01" filter="url(#bbburst-blur-1)"></use><use xlink:href="#bbburst-shape-5" width="14.333830524472859" opacity="0.6875350725920949" transform="matrix(0.9018174029853595,0.4321173123964623,-0.4321173123964623,0.9018174029853595,464.5938571026503,133.18012793776717)" fill="#ffff01" filter="url(#bbburst-blur-1)"></use><use xlink:href="#bbburst-shape-8" width="10.43541976998809" opacity="0.7893019151201236" transform="matrix(0.9029370194719707,0.4297728921966508,-0.4297728921966508,0.9029370194719707,517.1445460171055,-43.942896408522756)" fill="none" stroke="#ffff01"></use><use xlink:href="#bbburst-shape-14" width="36.19198479822633" opacity="-0.09538607999816318" transform="matrix(1.2873845297526718,1.185386465484355,-1.185386465484355,1.2873845297526718,494.09220070468547,-476.53755067414875)" fill="none" stroke="#ffff01" filter="url(#bbburst-blur-4)"></use><use xlink:href="#bbburst-shape-10" width="15.168054831870071" opacity="0.7347301363319618" transform="matrix(0.9173778843467869,-0.3980173580529036,0.3980173580529036,0.9173778843467869,313.1607585012467,125.26979678484781)" fill="none" stroke="#ffff01" filter="url(#bbburst-blur-1)"></use><use xlink:href="#bbburst-shape-8" width="27.419211663632105" opacity="0.3923709713700094" transform="matrix(0.9989872056055085,0.044995144588027176,-0.044995144588027176,0.9989872056055085,676.0066544274993,-30.910397277083916)" fill="none" stroke="#ffff01" filter="url(#bbburst-blur-2)"></use><use xlink:href="#bbburst-shape-5" width="25.408041417996934" opacity="0.04835420558960479" transform="matrix(1.493409857497674,0.9122647628450731,-0.9122647628450731,1.493409857497674,526.0294121965973,158.5138610094658)" fill="#ffff01" filter="url(#bbburst-blur-4)"></use><use xlink:href="#bbburst-shape-10" width="11.016455973822708" opacity="0.7761413852093102" transform="matrix(0.9917795209988539,0.12795851564973643,-0.12795851564973643,0.9917795209988539,461.19145562322166,102.1246376182063)" fill="none" stroke="#ffff01" filter="url(#bbburst-blur-1)"></use><use xlink:href="#bbburst-shape-10" width="26.125637785345557" opacity="0.35470110553227296" transform="matrix(0.9849401359286787,-0.1728957160741581,0.1728957160741581,0.9849401359286787,61.59600075469875,144.6372839821484)" fill="none" stroke="#ffff01" filter="url(#bbburst-blur-2)"></use><use xlink:href="#bbburst-shape-2" width="27.34950095038448" opacity="0.3670719883359963" transform="matrix(0.8624388916858629,-0.5061611977499465,0.5061611977499465,0.8624388916858629,418.410152286609,-102.3277424703069)" fill="#ffff01" filter="url(#bbburst-blur-2)"></use><use xlink:href="#bbburst-shape-2" width="30.5524746853124" opacity="0.12926093394927196" transform="matrix(1.1292294165407775,-0.536041905842235,0.536041905842235,1.1292294165407775,-127.51189243935217,-300.3976745120983)" fill="#ffff01" filter="url(#bbburst-blur-3)"></use><use xlink:href="#bbburst-shape-2" width="19.31808528941803" opacity="0.5349931868275752" transform="matrix(0.8294399734307818,-0.558595856120634,0.558595856120634,0.8294399734307818,-37.077343730815244,34.87217880854814)" fill="#ffff01" filter="url(#bbburst-blur-2)"></use><use xlink:href="#bbburst-shape-8" width="26.125566719559302" opacity="0.4255232461441656" transform="matrix(0.9308072598777353,-0.3655103896729917,0.3655103896729917,0.9308072598777353,48.90285707824373,204.74027420777242)" fill="none" stroke="#ffff01" filter="url(#bbburst-blur-2)"></use><use xlink:href="#bbburst-shape-5" width="17.902237645354244" opacity="0.5469858716296211" transform="matrix(0.8179755348400987,0.5752530090343331,-0.5752530090343331,0.8179755348400987,436.61544046552564,-15.4079257268358)" fill="#ffff01" filter="url(#bbburst-blur-2)"></use><use xlink:href="#bbburst-shape-5" width="25.837620255319983" opacity="0.5057807938163814" transform="matrix(0.7649604967390419,0.6440771991219363,-0.6440771991219363,0.7649604967390419,840.5578877889516,-25.14577706960756)" fill="#ffff01" filter="url(#bbburst-blur-2)"></use><use xlink:href="#bbburst-shape-2" width="13.73609888334482" opacity="0.6605368566514808" transform="matrix(0.8581398495601464,0.5134160092915775,-0.5134160092915775,0.8581398495601464,669.8519924407376,-82.35411589139045)" fill="#ffff01" filter="url(#bbburst-blur-1)"></use><use xlink:href="#bbburst-shape-2" width="32.07544060946971" opacity="0.19019362228121373" transform="matrix(1.0709404324477,-0.6446600578201918,0.6446600578201918,1.0709404324477,-89.13528681523923,-312.9017583415855)" fill="#ffff01" filter="url(#bbburst-blur-3)"></use><use xlink:href="#bbburst-shape-10" width="36.236189957880796" opacity="0.014528572663474293" transform="matrix(1.3793671481587624,-1.0769615919708384,1.0769615919708384,1.3793671481587624,304.5637803123818,-390.71803578901097)" fill="none" stroke="#ffff01" filter="url(#bbburst-blur-4)"></use><use xlink:href="#bbburst-shape-8" width="28.68915495942125" opacity="0.16703870309200186" transform="matrix(1.2052335843978272,0.3315297981171007,-0.3315297981171007,1.2052335843978272,144.20635858610456,-139.49567943121582)" fill="none" stroke="#ffff01" filter="url(#bbburst-blur-3)"></use><use xlink:href="#bbburst-shape-8" width="20.575212427701146" opacity="0.563989846359036" transform="matrix(0.9980874711209106,-0.06181747318894249,0.06181747318894249,0.9980874711209106,439.24004792113254,183.01980617167186)" fill="none" stroke="#ffff01" filter="url(#bbburst-blur-1)"></use><use xlink:href="#bbburst-shape-2" width="8.870954113077119" opacity="0.8386023581684183" transform="matrix(0.8349999214135461,-0.5502500624619427,0.5502500624619427,0.8349999214135461,221.69890746103908,125.05449213227644)" fill="#ffff01"></use><use xlink:href="#bbburst-shape-10" width="14.626856175419654" opacity="0.6887624173693415" transform="matrix(0.9307465393531323,0.365664982575811,-0.365664982575811,0.9307465393531323,439.8231715598416,-73.40375442059366)" fill="none" stroke="#ffff01" filter="url(#bbburst-blur-1)"></use><use xlink:href="#bbburst-shape-14" width="34.584277758281615" opacity="0.19057796212061107" transform="matrix(1.0214586834565802,-0.7205013240731412,0.7205013240731412,1.0214586834565802,38.66371416467172,-356.0625343132409)" fill="none" stroke="#ffff01" filter="url(#bbburst-blur-3)"></use><use xlink:href="#bbburst-shape-8" width="9.000816664198718" opacity="0.8900972928109471" transform="matrix(0.8348958075471035,0.5504080218712932,-0.5504080218712932,0.8348958075471035,662.0168419658037,82.6840706038846)" fill="none" stroke="#ffff01"></use><use xlink:href="#bbburst-shape-8" width="14.3686267650864" opacity="0.7254655071781066" transform="matrix(0.8837743700396592,0.4679133069928696,-0.4679133069928696,0.8837743700396592,538.228461725607,159.09654979157295)" fill="none" stroke="#ffff01" filter="url(#bbburst-blur-1)"></use><use xlink:href="#bbburst-shape-10" width="8.917093606475518" opacity="0.845965477075241" transform="matrix(0.9235901991224887,0.3833811994410807,-0.3833811994410807,0.9235901991224887,617.2598134437419,15.542375058056507)" fill="none" stroke="#ffff01"></use><use xlink:href="#bbburst-shape-14" width="6.397856860417218" opacity="0.8864366759145281" transform="matrix(0.7082534033873843,0.7059582966366973,-0.7059582966366973,0.7082534033873843,702.8514193447566,160.21178580233902)" fill="none" stroke="#ffff01"></use><use xlink:href="#bbburst-shape-2" width="11.930397240736243" opacity="0.7795948105997429" transform="matrix(0.999882875139084,0.015304770615688468,-0.015304770615688468,0.999882875139084,494.1111195006034,31.73920226475417)" fill="#ffff01"></use><use xlink:href="#bbburst-shape-2" width="5.540763522236258" opacity="0.9715924104552742" transform="matrix(0.8331629342958738,-0.5530275986924064,0.5530275986924064,0.8331629342958738,164.22256557432277,64.6479287965031)" fill="#ffff01"></use><use xlink:href="#bbburst-shape-2" width="18.13818652653194" opacity="0.6201829811226529" transform="matrix(0.9841113671873841,-0.17755229362803943,0.17755229362803943,0.9841113671873841,214.82359271517424,-126.7066007958424)" fill="#ffff01" filter="url(#bbburst-blur-1)"></use><use xlink:href="#bbburst-shape-2" width="28.95169985794403" opacity="0.4537864314019344" transform="matrix(0.822436074661688,0.5688575420042125,-0.5688575420042125,0.822436074661688,773.5988253071247,251.1146946863463)" fill="#ffff01" filter="url(#bbburst-blur-2)"></use><use xlink:href="#bbburst-shape-14" width="26.66790772719656" opacity="0.3415373027888088" transform="matrix(0.9579822179530786,0.2868275964507255,-0.2868275964507255,0.9579822179530786,213.71657145033828,81.73219714219817)" fill="none" stroke="#ffff01" filter="url(#bbburst-blur-2)"></use><use xlink:href="#bbburst-shape-14" width="23.338380865741055" opacity="0.5755749786432169" transform="matrix(0.9998175996196237,-0.019098887162706166,0.019098887162706166,0.9998175996196237,493.0611469216068,-154.11123348552994)" fill="none" stroke="#ffff01" filter="url(#bbburst-blur-1)"></use><use xlink:href="#bbburst-shape-14" width="8.316387878200967" opacity="0.8655574297489157" transform="matrix(0.8106699424972581,0.5855034110331827,-0.5855034110331827,0.8106699424972581,573.5467295771227,92.78667678644803)" fill="none" stroke="#ffff01"></use><use xlink:href="#bbburst-shape-8" width="48.26395229066442" opacity="-0.09769757294935277" transform="matrix(1.378178440722795,-1.0784823529047127,1.0784823529047127,1.378178440722795,-411.95442339809176,226.0105522223064)" fill="none" stroke="#ffff01" filter="url(#bbburst-blur-4)"></use><use xlink:href="#bbburst-shape-2" width="33.87502383372649" opacity="0.16392949059368322" transform="matrix(0.9287962405914834,-0.8365629345501313,0.8365629345501313,0.9287962405914834,-40.83157112471406,407.8542982819824)" fill="#ffff01" filter="url(#bbburst-blur-3)"></use><use xlink:href="#bbburst-shape-2" width="16.502489089587034" opacity="0.5613138016682712" transform="matrix(0.9186569897463285,-0.3950561165077868,0.3950561165077868,0.9186569897463285,107.95293186396847,187.39998128894797)" fill="#ffff01" filter="url(#bbburst-blur-1)"></use><use xlink:href="#bbburst-shape-8" width="13.40811417670265" opacity="0.6649702988345714" transform="matrix(0.9124628527169011,0.4091595561779473,-0.4091595561779473,0.9124628527169011,708.1567364533424,39.06792678252748)" fill="none" stroke="#ffff01" filter="url(#bbburst-blur-1)"></use><use xlink:href="#bbburst-shape-5" width="16.45266541300881" opacity="0.7785784995537159" transform="matrix(0.9943547648650539,0.10610655771517244,-0.10610655771517244,0.9943547648650539,527.2687859437959,-34.36299594975094)" fill="#ffff01"></use><use xlink:href="#bbburst-shape-8" width="6.781106373639682" opacity="0.8720740485377905" transform="matrix(0.8750133086463009,0.4840988635514995,-0.4840988635514995,0.8750133086463009,595.5170211661766,105.71580592579971)" fill="none" stroke="#ffff01"></use><use xlink:href="#bbburst-shape-10" width="7.7701370652369395" opacity="0.9291230887716574" transform="matrix(0.9999241292980836,0.012318102429731807,-0.012318102429731807,0.9999241292980836,430.95034399747317,-11.098346225413707)" fill="none" stroke="#ffff01"></use><use xlink:href="#bbburst-shape-14" width="7.131441884217759" opacity="0.931622431663825" transform="matrix(0.8679303335030842,-0.4966859532795596,0.4966859532795596,0.8679303335030842,174.60725940812395,74.31737995148882)" fill="none" stroke="#ffff01"></use><use xlink:href="#bbburst-shape-10" width="10.695128083063976" opacity="0.8120155621589646" transform="matrix(0.9999189982089055,0.012727805030675263,-0.012727805030675263,0.9999189982089055,380.88591407115337,-82.49988154460948)" fill="none" stroke="#ffff01"></use><use xlink:href="#bbburst-shape-14" width="24.486782234238966" opacity="0.3001460356993413" transform="matrix(1.2151789249383198,0.2929849490771656,-0.2929849490771656,1.2151789249383198,480.5368690359212,224.56250282488088)" fill="none" stroke="#ffff01" filter="url(#bbburst-blur-3)"></use><use xlink:href="#bbburst-shape-14" width="5.6205455897294705" opacity="0.9042731910948727" transform="matrix(0.7622908562285821,0.6472346178243986,-0.6472346178243986,0.7622908562285821,634.9777138444408,130.442362407129)" fill="none" stroke="#ffff01"></use><use xlink:href="#bbburst-shape-2" width="35.08612945583063" opacity="0.10447343218686023" transform="matrix(1.7202252450096924,0.3214422287617843,-0.3214422287617843,1.7202252450096924,228.22994916012985,5.316799335395331)" fill="#ffff01" filter="url(#bbburst-blur-4)"></use><use xlink:href="#bbburst-shape-2" width="32.82516844458358" opacity="0.09658848636332562" transform="matrix(1.718016976100611,-0.33304304501087084,0.33304304501087084,1.718016976100611,510.34586185614273,-584.0700461157365)" fill="#ffff01" filter="url(#bbburst-blur-4)"></use><use xlink:href="#bbburst-shape-10" width="8.711577311830432" opacity="0.8209376018467076" transform="matrix(0.9737982982628797,0.2274134435347209,-0.2274134435347209,0.9737982982628797,406.54918472872174,17.5443891455231)" fill="none" stroke="#ffff01"></use><use xlink:href="#bbburst-shape-8" width="7.437423125740441" opacity="0.9483865609034432" transform="matrix(0.9980970660597664,0.06166236066585777,-0.06166236066585777,0.9980970660597664,435.97647253673097,18.244968964549855)" fill="none" stroke="#ffff01"></use><use xlink:href="#bbburst-shape-8" width="29.918556282076157" opacity="0.264908219911016" transform="matrix(1.2284324847584107,-0.2312004117433125,0.2312004117433125,1.2284324847584107,452.84693520565986,199.52954384265354)" fill="none" stroke="#ffff01" filter="url(#bbburst-blur-3)"></use><use xlink:href="#bbburst-shape-8" width="11.390769620974861" opacity="0.7104812677826418" transform="matrix(0.931853016890736,0.36283598899727915,-0.36283598899727915,0.931853016890736,666.2471502785015,56.68432625142174)" fill="none" stroke="#ffff01" filter="url(#bbburst-blur-1)"></use></svg>