<svg xmlns="http://www.w3.org/2000/svg" version="1.1" xmlns:xlink="http://www.w3.org/1999/xlink" xmlns:svgjs="http://svgjs.dev/svgjs" viewBox="0 0 800 800"><defs><filter id="llleaves-blur-2" x="-100%" y="-100%" width="400%" height="400%"><feGaussianBlur in="SourceGraphic" stdDeviation="2"></feGaussianBlur></filter><filter id="llleaves-blur-3" x="-100%" y="-100%" width="400%" height="400%"><feGaussianBlur in="SourceGraphic" stdDeviation="4"></feGaussianBlur></filter><filter id="llleaves-blur-4" x="-100%" y="-100%" width="400%" height="400%"><feGaussianBlur in="SourceGraphic" stdDeviation="12"></feGaussianBlur></filter></defs><g fill="#7ca4dc"><path d="M495 370H545C573 370 595 392 595 420H545C517 420 495 398 495 370Z " transform="matrix(0.10028376796963313,0.1604875765841448,-0.1604875765841448,0.10028376796963313,553.7379392072871,267.922182413636)" filter="url(#llleaves-blur-4)" opacity="0.29"></path><path d="M572 735H622C650 735 672 757 672 785H622C594 785 572 763 572 735Z " transform="matrix(0.09173761753216028,0.17253336516055348,-0.17253336516055348,0.09173761753216028,696.0645594170169,582.9636575456939)" filter="url(#llleaves-blur-4)" opacity="0.30"></path><path d="M58 739H108C136 739 158 761 158 789H108C80 789 58 767 58 739Z " transform="matrix(0.08223625865784848,-0.5192193026622001,0.5192193026622001,0.08223625865784848,-297.56506316896855,757.2471830729214)" opacity="0.81"></path><path d="M328 551H378C406 551 428 573 428 601H378C350 601 328 579 328 551Z " transform="matrix(-0.13648563029138178,0.24622659495397278,-0.24622659495397278,-0.13648563029138178,571.4180869436307,561.5420701552342)" filter="url(#llleaves-blur-3)" opacity="0.43"></path><path d="M123 507H173C201 507 223 529 223 557H173C145 557 123 535 123 507Z " transform="matrix(-0.17199578088942927,-0.4480643279685227,0.4480643279685227,-0.17199578088942927,-35.61495238538282,701.0168841717308)" opacity="0.74"></path><path d="M155 74H205C233 74 255 96 255 124H205C177 124 155 102 155 74Z " transform="matrix(-0.3345376540473223,-0.2807104221260206,0.2807104221260206,-0.3345376540473223,245.789887289225,189.6648642865191)" opacity="0.67"></path><path d="M295 638H345C373 638 395 660 395 688H345C317 688 295 666 295 638Z " transform="matrix(-0.24011969380761025,0.20148434651236724,-0.20148434651236724,-0.24011969380761025,561.4254161013249,752.6872574476789)" filter="url(#llleaves-blur-2)" opacity="0.48"></path><path d="M52 162H102C130 162 152 184 152 212H102C74 212 52 190 52 162Z " transform="matrix(0.08223625865784848,-0.5192193026622001,0.5192193026622001,0.08223625865784848,-3.482107980931957,224.58218850252675)" opacity="0.81"></path><path d="M73 444H123C151 444 173 466 173 494H123C95 494 73 472 73 444Z " transform="matrix(0.018018213382117804,-0.5159741221159403,0.5159741221159403,0.018018213382117804,-121.20810351837648,524.0142749440474)" opacity="0.79"></path><path d="M413 657H463C491 657 513 679 513 707H463C435 707 413 685 413 657Z " transform="matrix(0.045475553208008494,0.21394565686758615,-0.21394565686758615,0.045475553208008494,587.8557568483858,551.9288335824458)" filter="url(#llleaves-blur-3)" opacity="0.33"></path><path d="M710 152H760C788 152 810 174 810 202H760C732 202 710 180 710 152Z " transform="matrix(-0.15195724848419198,0.24318243168732334,-0.24318243168732334,-0.15195724848419198,918.5307992566422,19.077784899336223)" filter="url(#llleaves-blur-3)" opacity="0.44"></path><path d="M479 237H529C557 237 579 259 579 287H529C501 287 479 265 479 237Z " transform="matrix(0.0961297266393083,0.1665015706569893,-0.1665015706569893,0.0961297266393083,521.7707861199372,148.73468074295388)" filter="url(#llleaves-blur-4)" opacity="0.29"></path><path d="M133 285H183C211 285 233 307 233 335H183C155 335 133 313 133 285Z " transform="matrix(-0.239726341710031,-0.39897163188695345,0.39897163188695345,-0.239726341710031,103.18871464798009,457.3269745654221)" opacity="0.71"></path><path d="M-20 499H30C58 499 80 521 80 549H30C2 549 -20 527 -20 499Z " transform="matrix(0.23284087791955538,-0.49932887407600757,0.49932887407600757,0.23284087791955538,-238.63355635341463,416.9712461924332)" opacity="0.85"></path><path d="M637 95H687C715 95 737 117 737 145H687C659 145 637 123 637 95Z " transform="matrix(0.0707320030022164,0.19433458108138602,-0.19433458108138602,0.0707320030022164,661.7272636672436,-21.99569756317817)" filter="url(#llleaves-blur-3)" opacity="0.32"></path><path d="M117 136H167C195 136 217 158 217 186H167C139 186 117 164 117 136Z " transform="matrix(-0.11891620930939334,-0.4769468649864724,0.4769468649864724,-0.11891620930939334,110.07056169184665,259.7956361515532)" opacity="0.76"></path><path d="M529 80H579C607 80 629 102 629 130H579C551 130 529 108 529 80Z " transform="matrix(0.09582980763402793,0.16598209570168818,-0.16598209570168818,0.09582980763402793,540.9426614285751,-1.1657632128503792)" filter="url(#llleaves-blur-4)" opacity="0.29"></path><path d="M636 520H686C714 520 736 542 736 570H686C658 570 636 548 636 520Z " transform="matrix(0.020094303305055055,0.2296789377643295,-0.2296789377643295,0.020094303305055055,797.3903290142918,376.48885339241497)" filter="url(#llleaves-blur-3)" opacity="0.35"></path><path d="M212 481H262C290 481 312 503 312 531H262C234 531 212 509 212 481Z " transform="matrix(-0.38445397698506883,-0.11024040393709135,0.11024040393709135,-0.38445397698506883,306.9452975779198,729.4166981859628)" filter="url(#llleaves-blur-2)" opacity="0.61"></path><path d="M276 10H326C354 10 376 32 376 60H326C298 60 276 38 276 10Z " transform="matrix(-0.34592694587475964,0.07986352825569625,-0.07986352825569625,-0.34592694587475964,441.5674078441211,21.07193289425961)" filter="url(#llleaves-blur-2)" opacity="0.54"></path><path d="M708 228H758C786 228 808 250 808 278H758C730 278 708 256 708 228Z " transform="matrix(-0.18693381886093674,0.23084404137160924,-0.23084404137160924,-0.18693381886093674,958.0993771636072,125.31447281213718)" filter="url(#llleaves-blur-3)" opacity="0.45"></path><path d="M637 189H687C715 189 737 211 737 239H687C659 239 637 217 637 189Z " transform="matrix(0.020094303305055055,0.2296789377643295,-0.2296789377643295,0.020094303305055055,722.3465063109937,51.91038884862388)" filter="url(#llleaves-blur-3)" opacity="0.35"></path><path d="M287 146H337C365 146 387 168 387 196H337C309 196 287 174 287 146Z " transform="matrix(-0.2637607637784603,0.18468727508162863,-0.18468727508162863,-0.2637607637784603,457.4689014322996,153.86347890360787)" filter="url(#llleaves-blur-2)" opacity="0.49"></path><path d="M450 443H500C528 443 550 465 550 493H500C472 493 450 471 450 443Z " transform="matrix(0.07916814602607637,0.18650846411341226,-0.18650846411341226,0.07916814602607637,547.7018881920387,337.6950756030901)" filter="url(#llleaves-blur-3)" opacity="0.31"></path><path d="M423 739H473C501 739 523 761 523 789H473C445 789 423 767 423 739Z " transform="matrix(0.06488140871835166,0.1996844434812098,-0.1996844434812098,0.06488140871835166,594.870008495864,619.979861972567)" filter="url(#llleaves-blur-3)" opacity="0.32"></path><path d="M362 431H412C440 431 462 453 462 481H412C384 481 362 459 362 431Z " transform="matrix(-0.04392924670578326,0.24913513819200986,-0.24913513819200986,-0.04392924670578326,543.7044726583392,373.3880595627291)" filter="url(#llleaves-blur-3)" opacity="0.39"></path><path d="M414 568H464C492 568 514 590 514 618H464C436 618 414 596 414 568Z " transform="matrix(0.045475553208008494,0.21394565686758615,-0.21394565686758615,0.045475553208008494,569.7691178339627,466.762212161091)" filter="url(#llleaves-blur-3)" opacity="0.33"></path><path d="M236 82H286C314 82 336 104 336 132H286C258 132 236 110 236 82Z " transform="matrix(-0.38327238155024823,-0.053865420421445376,0.053865420421445376,-0.38327238155024823,389.8523011382763,163.41565506640993)" filter="url(#llleaves-blur-2)" opacity="0.59"></path><path d="M207 264H257C285 264 307 286 307 314H257C229 314 207 292 207 264Z " transform="matrix(-0.38445397698506883,-0.11024040393709135,0.11024040393709135,-0.38445397698506883,323.9451953473433,428.4389831605174)" filter="url(#llleaves-blur-2)" opacity="0.61"></path><path d="M712 79H762C790 79 812 101 812 129H762C734 129 712 107 712 79Z " transform="matrix(-0.021372261483889366,0.24428606658914706,-0.24428606658914706,-0.021372261483889366,803.691414175995,-79.92326754660556)" filter="url(#llleaves-blur-3)" opacity="0.37"></path><path d="M-16 14H34C62 14 84 36 84 64H34C6 64 -16 42 -16 14Z " transform="matrix(-0.36480164735875337,-0.21061832930339525,0.21061832930339525,-0.36480164735875337,38.1891411673652,60.38828744330682)" opacity="0.65"></path><path d="M133 607H183C211 607 233 629 233 657H183C155 657 133 635 133 607Z " transform="matrix(-0.17199578088942927,-0.4480643279685227,0.4480643279685227,-0.17199578088942927,-68.70142737334075,822.6971055403588)" opacity="0.74"></path><path d="M501 741H551C579 741 601 763 601 791H551C523 791 501 769 501 741Z " transform="matrix(0.10219940395192582,0.15737328146830415,-0.15737328146830415,0.10219940395192582,615.2360620272099,601.0025784837892)" filter="url(#llleaves-blur-4)" opacity="0.29"></path><path d="M483 600H533C561 600 583 622 583 650H533C505 650 483 628 483 600Z " transform="matrix(0.0961297266393083,0.1665015706569893,-0.1665015706569893,0.0961297266393083,585.826337361867,476.17358369025703)" filter="url(#llleaves-blur-4)" opacity="0.29"></path><path d="M41 379H91C119 379 141 401 141 429H91C63 429 41 407 41 379Z " transform="matrix(0.12910000810479666,-0.5177918510260421,0.5177918510260421,0.12910000810479666,-129.9360085520575,398.962655169032)" opacity="0.82"></path><path d="M390 250H440C468 250 490 272 490 300H440C412 300 390 278 390 250Z " transform="matrix(0.02392285965494024,0.227610805544319,-0.227610805544319,0.02392285965494024,492.06691327651396,168.27245915539106)" filter="url(#llleaves-blur-3)" opacity="0.35"></path><path d="M-10 434H40C68 434 90 456 90 484H40C12 484 -10 462 -10 434Z " transform="matrix(0.22319489616910376,-0.5013039445435398,0.5013039445435398,0.22319489616910376,-199.0263063922489,376.605700440123)" opacity="0.84"></path><path d="M630 669H680C708 669 730 691 730 719H680C652 719 630 697 630 669Z " transform="matrix(0.04548164153616797,0.21397430019956157,-0.21397430019956157,0.04548164153616797,797.5706480939015,516.9332166381976)" filter="url(#llleaves-blur-3)" opacity="0.33"></path><path d="M180 347H230C258 347 280 369 280 397H230C202 397 180 375 180 347Z " transform="matrix(-0.3371718354906518,-0.27303636882338356,0.27303636882338356,-0.3371718354906518,205.97999296055121,560.2262876319007)" opacity="0.67"></path><path d="M124 10H174C202 10 224 32 224 60H174C146 60 124 38 124 10Z " transform="matrix(-0.37864299468986096,-0.15298170008346582,0.15298170008346582,-0.37864299468986096,234.5295215731145,74.87132062866819)" opacity="0.63"></path><path d="M709 482H759C787 482 809 504 809 532H759C731 532 709 510 709 482Z " transform="matrix(-0.18693381886093674,0.23084404137160924,-0.23084404137160924,-0.18693381886093674,1017.9206974908569,426.56481876144346)" filter="url(#llleaves-blur-3)" opacity="0.45"></path><path d="M211 743H261C289 743 311 765 311 793H261C233 793 211 771 211 743Z " transform="matrix(-0.38445397698506883,-0.11024040393709135,0.11024040393709135,-0.38445397698506883,276.6778577694168,1092.0333997521138)" filter="url(#llleaves-blur-2)" opacity="0.61"></path><path d="M387 498H437C465 498 487 520 487 548H437C409 548 387 526 387 498Z " transform="matrix(0.02392285965494024,0.227610805544319,-0.227610805544319,0.02392285965494024,545.58616163047,411.02242237759884)" filter="url(#llleaves-blur-3)" opacity="0.35"></path><path d="M711 554H761C789 554 811 576 811 604H761C733 604 711 582 711 554Z " transform="matrix(-0.18693381886093674,0.23084404137160924,-0.23084404137160924,-0.18693381886093674,1036.9153361073345,511.56236563668773)" filter="url(#llleaves-blur-3)" opacity="0.45"></path><path d="M717 407H767C795 407 817 429 817 457H767C739 457 717 435 717 407Z " transform="matrix(-0.2501527549636223,0.19544075188413507,-0.19544075188413507,-0.2501527549636223,1043.2975678710445,390.16293344915323)" filter="url(#llleaves-blur-2)" opacity="0.49"></path><path d="M257 322H307C335 322 357 344 357 372H307C279 372 257 350 257 322Z " transform="matrix(-0.33053964509385625,0.10739884107682848,-0.10739884107682848,-0.33053964509385625,445.74306889747345,428.7258126369818)" filter="url(#llleaves-blur-2)" opacity="0.53"></path><path d="M554 654H604C632 654 654 676 654 704H604C576 704 554 682 554 654Z " transform="matrix(0.0956234270628339,0.16562463406668504,-0.16562463406668504,0.0956234270628339,658.7025765853275,514.034414048058)" filter="url(#llleaves-blur-4)" opacity="0.29"></path><path d="M630 437H680C708 437 730 459 730 487H680C652 487 630 465 630 437Z " transform="matrix(0.04548164153616797,0.21397430019956157,-0.21397430019956157,0.04548164153616797,747.9286104476032,295.48495747458855)" filter="url(#llleaves-blur-3)" opacity="0.33"></path><path d="M244 681H294C322 681 344 703 344 731H294C266 731 244 709 244 681Z " transform="matrix(-0.36228839677011915,0.04448342171763638,-0.04448342171763638,-0.36228839677011915,431.91808438306634,948.6974821347192)" filter="url(#llleaves-blur-2)" opacity="0.56"></path><path d="M377 103H427C455 103 477 125 477 153H427C399 153 377 131 377 103Z " transform="matrix(-0.09151996642106221,0.2514490411711137,-0.2514490411711137,-0.09151996642106221,498.26450293169614,32.34581512183041)" filter="url(#llleaves-blur-3)" opacity="0.41"></path><path d="M426 173H476C504 173 526 195 526 223H476C448 223 426 201 426 173Z " transform="matrix(0.06488140871835166,0.1996844434812098,-0.1996844434812098,0.06488140871835166,484.65396925934414,90.10368597671051)" filter="url(#llleaves-blur-3)" opacity="0.32"></path><path d="M539 300H589C617 300 639 322 639 350H589C561 350 539 328 539 300Z " transform="matrix(0.09996087766832638,0.15997084408587117,-0.15997084408587117,0.09996087766832638,582.1135673812639,198.2898875912158)" filter="url(#llleaves-blur-4)" opacity="0.29"></path><path d="M52 10H102C130 10 152 32 152 60H102C74 60 52 38 52 10Z " transform="matrix(-0.3713579016932039,-0.18921630178353732,0.18921630178353732,-0.3713579016932039,133.255935410283,67.29758934118294)" opacity="0.64"></path><path d="M629 280H679C707 280 729 302 729 330H679C651 330 629 308 629 280Z " transform="matrix(0.04548164153616797,0.21397430019956157,-0.21397430019956157,0.04548164153616797,713.3801269578082,145.83954949596648)" filter="url(#llleaves-blur-3)" opacity="0.33"></path><path d="M-15 746H35C63 746 85 768 85 796H35C7 796 -15 774 -15 746Z " transform="matrix(0.22319489616910376,-0.5013039445435398,0.5013039445435398,0.22319489616910376,-359.3171626089878,616.4623731126449)" opacity="0.84"></path><path d="M-9 565H41C69 565 91 587 91 615H41C13 615 -9 593 -9 565Z " transform="matrix(0.22319489616910376,-0.5013039445435398,0.5013039445435398,0.22319489616910376,-263.9203180236218,478.8684729865139)" opacity="0.84"></path><path d="M353 13H403C431 13 453 35 453 63H403C375 63 353 41 353 13Z " transform="matrix(-0.19704838833239893,0.2266782406314086,-0.2266782406314086,-0.19704838833239893,491.02427364195034,-45.863492217826504)" filter="url(#llleaves-blur-2)" opacity="0.46"></path><path d="M-21 364H29C57 364 79 386 79 414H29C1 414 -21 392 -21 364Z " transform="matrix(0.23284087791955538,-0.49932887407600757,0.49932887407600757,0.23284087791955538,-171.99131747523404,312.9054358374972)" opacity="0.85"></path><path d="M201 10H251C279 10 301 32 301 60H251C223 60 201 38 201 10Z " transform="matrix(-0.38301443128470114,-0.05382916787581368,0.05382916787581368,-0.38301443128470114,345.2526013768065,61.91662623179377)" filter="url(#llleaves-blur-2)" opacity="0.59"></path><path d="M505 160H555C583 160 605 182 605 210H555C527 210 505 188 505 160Z " transform="matrix(0.10219940395192582,0.15737328146830415,-0.15737328146830415,0.10219940395192582,527.3933878783174,78.75093905398492)" filter="url(#llleaves-blur-4)" opacity="0.29"></path><path d="M496 11H546C574 11 596 33 596 61H546C518 61 496 39 496 11Z " transform="matrix(0.05239813671836428,0.21015744770281977,-0.21015744770281977,0.05239813671836428,524.9562854690746,-80.63229936760072)" filter="url(#llleaves-blur-3)" opacity="0.33"></path></g><g fill="none" stroke-width="3" stroke="#7ca4dc"><path d="M405 371H455C483 371 505 393 505 421H455C427 421 405 399 405 371Z " transform="matrix(0.045475553208008494,0.21394565686758615,-0.21394565686758615,0.045475553208008494,519.0311034099202,280.64640705487693)" filter="url(#llleaves-blur-3)" opacity="0.33"></path><path d="M348 184H398C426 184 448 206 448 234H398C370 234 348 212 348 184Z " transform="matrix(-0.0868477665292744,0.25222422825616914,-0.25222422825616914,-0.0868477665292744,485.28027478419057,126.76594035866303)" filter="url(#llleaves-blur-3)" opacity="0.41"></path><path d="M170 673H220C248 673 270 695 270 723H220C192 723 170 701 170 673Z " transform="matrix(-0.3371718354906518,-0.27303636882338356,0.27303636882338356,-0.3371718354906518,103.59841836922169,993.4139423136191)" opacity="0.67"></path><path d="M483 515H533C561 515 583 537 583 565H533C505 565 483 543 483 515Z " transform="matrix(0.0961297266393083,0.1665015706569893,-0.1665015706569893,0.0961297266393083,571.6737038560229,399.34461045459824)" filter="url(#llleaves-blur-4)" opacity="0.29"></path><path d="M446 307H496C524 307 546 329 546 357H496C468 357 446 335 446 307Z " transform="matrix(0.07916814602607637,0.18650846411341226,-0.18650846411341226,0.07916814602607637,518.653409656719,213.20797731909016)" filter="url(#llleaves-blur-3)" opacity="0.31"></path><path d="M590 363H640C668 363 690 385 690 413H640C612 413 590 391 590 363Z " transform="matrix(0.08186616645032439,0.18387442038599217,-0.18387442038599217,0.08186616645032439,658.9489285815573,238.55629837023915)" filter="url(#llleaves-blur-3)" opacity="0.31"></path><path d="M46 507H96C124 507 146 529 146 557H96C68 557 46 535 46 507Z " transform="matrix(0.12910000810479666,-0.5177918510260421,0.5177918510260421,0.12910000810479666,-191.85886552391486,513.0268133867482)" opacity="0.82"></path><path d="M709 621H759C787 621 809 643 809 671H759C731 671 709 649 709 621Z " transform="matrix(-0.18693381886093674,0.23084404137160924,-0.23084404137160924,-0.18693381886093674,1050.0080192415105,591.5486195831137)" filter="url(#llleaves-blur-3)" opacity="0.45"></path><path d="M643 15H693C721 15 743 37 743 65H693C665 65 643 43 643 15Z " transform="matrix(0.09378228965054566,0.16918772912828137,-0.16918772912828137,0.09378228965054566,634.7763824373031,-80.99838787192081)" filter="url(#llleaves-blur-4)" opacity="0.29"></path><path d="M-10 90H40C68 90 90 112 90 140H40C12 140 -10 118 -10 90Z " transform="matrix(-0.06963583861555767,-0.4954847376779739,0.4954847376779739,-0.06963583861555767,-14.19531128834469,142.82751094790808)" opacity="0.77"></path><path d="M68 235H118C146 235 168 257 168 285H118C90 285 68 263 68 235Z " transform="matrix(0.018018213382117804,-0.5159741221159403,0.5159741221159403,0.018018213382117804,-18.279420929234334,316.2002109303303)" opacity="0.79"></path><path d="M671 357H721C749 357 771 379 771 407H721C693 407 671 385 671 357Z " transform="matrix(-0.06735531870912732,0.25137347158245765,-0.25137347158245765,-0.06735531870912732,865.5878509337795,226.48945873593465)" filter="url(#llleaves-blur-3)" opacity="0.40"></path><path d="M49 634H99C127 634 149 656 149 684H99C71 684 49 662 49 634Z " transform="matrix(0.12910000810479666,-0.5177918510260421,0.5177918510260421,0.12910000810479666,-255.00573062853658,625.1844879105172)" opacity="0.82"></path><path d="M298 248H348C376 248 398 270 398 298H348C320 298 298 276 298 248Z " transform="matrix(-0.24011969380761025,0.20148434651236724,-0.20148434651236724,-0.24011969380761025,486.5668800429246,268.43612382317383)" filter="url(#llleaves-blur-2)" opacity="0.48"></path><path d="M63 310H113C141 310 163 332 163 360H113C85 360 63 338 63 310Z " transform="matrix(0.08223625865784848,-0.5192193026622001,0.5192193026622001,0.08223625865784848,-70.2311636201739,366.1226345504494)" opacity="0.81"></path><path d="M481 675H531C559 675 581 697 581 725H531C503 725 481 703 481 675Z " transform="matrix(0.0961297266393083,0.1665015706569893,-0.1665015706569893,0.0961297266393083,596.5062146144198,544.2968573336229)" filter="url(#llleaves-blur-4)" opacity="0.29"></path><path d="M231 405H281C309 405 331 427 331 455H281C253 455 231 433 231 405Z " transform="matrix(-0.3810721748296827,-0.033339495282766106,0.033339495282766106,-0.3810721748296827,373.7452981555514,603.2294333512209)" filter="url(#llleaves-blur-2)" opacity="0.59"></path><path d="M289 738H339C367 738 389 760 389 788H339C311 788 289 766 289 738Z " transform="matrix(-0.24011969380761025,0.20148434651236724,-0.20148434651236724,-0.24011969380761025,574.1331325897161,877.9081329075142)" filter="url(#llleaves-blur-2)" opacity="0.48"></path><path d="M193 142H243C271 142 293 164 293 192H243C215 192 193 170 193 142Z " transform="matrix(-0.36211316517056835,-0.2175795405824169,0.2175795405824169,-0.36211316517056835,294.6577158591845,280.3447269450122)" opacity="0.65"></path><path d="M452 92H502C530 92 552 114 552 142H502C474 142 452 120 452 92Z " transform="matrix(0.06204182352856979,0.20292966094395343,-0.20292966094395343,0.06204182352856979,494.5977749191005,7.870416853292724)" filter="url(#llleaves-blur-3)" opacity="0.32"></path><path d="M565 499H615C643 499 665 521 665 549H615C587 549 565 527 565 499Z " transform="matrix(0.0956234270628339,0.16562463406668504,-0.16562463406668504,0.0956234270628339,642.9789006073001,372.03417426806374)" filter="url(#llleaves-blur-4)" opacity="0.29"></path><path d="M306 384H356C384 384 406 406 406 434H356C328 434 306 412 306 384Z " transform="matrix(-0.18699593987312452,0.23092075443292098,-0.23092075443292098,-0.18699593987312452,517.017143157897,403.27355082998804)" filter="url(#llleaves-blur-3)" opacity="0.45"></path><path d="M67 79H117C145 79 167 101 167 129H117C89 129 67 107 67 79Z " transform="matrix(-0.16501814077277005,-0.45338361557356893,0.45338361557356893,-0.16501814077277005,89.15522645076294,174.20776966247564)" opacity="0.74"></path><path d="M631 596H681C709 596 731 618 731 646H681C653 646 631 624 631 596Z " transform="matrix(0.04548164153616797,0.21397430019956157,-0.21397430019956157,0.04548164153616797,782.9050425377974,447.03940217013826)" filter="url(#llleaves-blur-3)" opacity="0.33"></path><path d="M-10 296H40C68 296 90 318 90 346H40C12 346 -10 324 -10 296Z " transform="matrix(0.22319489616910376,-0.5013039445435398,0.5013039445435398,0.22319489616910376,-129.84636204524043,269.4065961114593)" opacity="0.84"></path><path d="M644 740H694C722 740 744 762 744 790H694C666 790 644 768 644 740Z " transform="matrix(0.020094303305055055,0.2296789377643295,-0.2296789377643295,0.020094303305055055,855.7589408960039,590.2306751631883)" filter="url(#llleaves-blur-3)" opacity="0.35"></path><path d="M573 18H623C651 18 673 40 673 68H623C595 68 573 46 573 18Z " transform="matrix(0.09580816341881132,0.16594460682124307,-0.16594460682124307,0.09580816341881132,570.447132283394,-64.5032410766433)" filter="url(#llleaves-blur-4)" opacity="0.29"></path><path d="M217 612H267C295 612 317 634 317 662H267C239 662 217 640 217 612Z " transform="matrix(-0.3810721748296827,-0.033339495282766106,0.033339495282766106,-0.3810721748296827,347.5090121844033,888.6446206070063)" filter="url(#llleaves-blur-2)" opacity="0.59"></path><path d="M710 683H760C788 683 810 705 810 733H760C732 733 710 711 710 683Z " transform="matrix(-0.18693381886093674,0.23084404137160924,-0.23084404137160924,-0.18693381886093674,1065.5072836254112,664.9076723111202)" filter="url(#llleaves-blur-3)" opacity="0.45"></path><path d="M293 471H343C371 471 393 493 393 521H343C315 521 293 499 293 471Z " transform="matrix(-0.24011969380761025,0.20148434651236724,-0.20148434651236724,-0.24011969380761025,525.2972908461445,545.9902372748327)" filter="url(#llleaves-blur-2)" opacity="0.48"></path><path d="M-10 230H40C68 230 90 252 90 280H40C12 280 -10 258 -10 230Z " transform="matrix(0.22319489616910376,-0.5013039445435398,0.5013039445435398,0.22319489616910376,-96.7603017053668,218.13745925862014)" opacity="0.84"></path><path d="M135 742H185C213 742 235 764 235 792H185C157 792 135 770 135 742Z " transform="matrix(-0.239726341710031,-0.39897163188695345,0.39897163188695345,-0.239726341710031,-76.66186844093755,1024.6798559906802)" opacity="0.71"></path><path d="M556 574H606C634 574 656 596 656 624H606C578 624 556 602 556 574Z " transform="matrix(0.0956234270628339,0.16562463406668504,-0.16562463406668504,0.0956234270628339,647.261359005867,441.3530389449513)" filter="url(#llleaves-blur-4)" opacity="0.29"></path><path d="M716 304H766C794 304 816 326 816 354H766C738 354 716 332 716 304Z " transform="matrix(-0.18693381886093674,0.23084404137160924,-0.23084404137160924,-0.18693381886093674,985.138994858737,213.6746907145955)" filter="url(#llleaves-blur-3)" opacity="0.45"></path><path d="M111 371H161C189 371 211 393 211 421H161C133 421 111 399 111 371Z " transform="matrix(-0.11097464793442224,-0.48068401018512735,0.48068401018512735,-0.11097464793442224,-11.483949715868448,517.3360862218367)" opacity="0.76"></path><path d="M-5 687H45C73 687 95 709 95 737H45C17 737 -5 715 -5 687Z " transform="matrix(0.22319489616910376,-0.5013039445435398,0.5013039445435398,0.22319489616910376,-321.97217884261005,575.6439114320574)" opacity="0.84"></path><path d="M346 315H396C424 315 446 337 446 365H396C368 365 346 343 346 315Z " transform="matrix(-0.0868477665292744,0.25222422825616914,-0.25222422825616914,-0.0868477665292744,516.1479531526901,269.64744623051035)" filter="url(#llleaves-blur-3)" opacity="0.41"></path><path d="M563 221H613C641 221 663 243 663 271H613C585 271 563 249 563 221Z " transform="matrix(0.0956234270628339,0.16562463406668504,-0.16562463406668504,0.0956234270628339,595.1264991908873,120.94873625966494)" filter="url(#llleaves-blur-4)" opacity="0.29"></path><path d="M258 549H308C336 549 358 571 358 599H308C280 599 258 577 258 549Z " transform="matrix(-0.33053964509385625,0.10739884107682848,-0.10739884107682848,-0.33053964509385625,471.4531454670073,730.6509132322103)" filter="url(#llleaves-blur-2)" opacity="0.53"></path><path d="M236 198H286C314 198 336 220 336 248H286C258 248 236 226 236 198Z " transform="matrix(-0.36228839677011915,0.04448342171763638,-0.04448342171763638,-0.36228839677011915,399.534284519287,291.06805386849254)" filter="url(#llleaves-blur-2)" opacity="0.56"></path><path d="M-20 627H30C58 627 80 649 80 677H30C2 677 -20 655 -20 627Z " transform="matrix(0.23284087791955538,-0.49932887407600757,0.49932887407600757,0.23284087791955538,-302.5476522351436,515.1676138187302)" opacity="0.85"></path><path d="M357 624H407C435 624 457 646 457 674H407C379 674 357 652 357 624Z " transform="matrix(-0.04392924670578326,0.24913513819200986,-0.24913513819200986,-0.04392924670578326,586.5679080958681,576.1120798679053)" filter="url(#llleaves-blur-3)" opacity="0.39"></path><path d="M153 432H203C231 432 253 454 253 482H203C175 482 153 460 153 432Z " transform="matrix(-0.29524713264190783,-0.33964297371384133,0.33964297371384133,-0.29524713264190783,107.7183289390818,660.8754632812617)" opacity="0.69"></path><path d="M179 548H229C257 548 279 570 279 598H229C201 598 179 576 179 548Z " transform="matrix(-0.3371718354906518,-0.27303636882338356,0.27303636882338356,-0.3371718354906518,149.76251099156048,828.7247901966985)" opacity="0.67"></path><path d="M311 76H361C389 76 411 98 411 126H361C333 126 311 104 311 76Z " transform="matrix(-0.2889444382065089,0.1601645174648032,-0.1601645174648032,-0.2889444382065089,481.48555845649486,72.36399745406344)" filter="url(#llleaves-blur-2)" opacity="0.51"></path><path d="M578 134H628C656 134 678 156 678 184H628C600 184 578 162 578 134Z " transform="matrix(0.09545653929989431,0.16533557598211215,-0.16533557598211215,0.09545653929989431,594.3416499008222,39.991668534550385)" filter="url(#llleaves-blur-4)" opacity="0.29"></path><path d="M422 17H472C500 17 522 39 522 67H472C444 67 422 45 422 17Z " transform="matrix(-0.0485284288944008,0.24965712375741927,-0.24965712375741927,-0.0485284288944008,505.3910176359688,-73.79996839993707)" filter="url(#llleaves-blur-3)" opacity="0.39"></path><path d="M715 745H765C793 745 815 767 815 795H765C737 795 715 773 715 745Z " transform="matrix(-0.18693381886093674,0.23084404137160924,-0.23084404137160924,-0.18693381886093674,1085.7542832847557,737.3433488736403)" filter="url(#llleaves-blur-3)" opacity="0.45"></path><path d="M538 433H588C616 433 638 455 638 483H588C560 483 538 461 538 433Z " transform="matrix(0.09996087766832638,0.15997084408587117,-0.15997084408587117,0.09996087766832638,602.489650522353,318.15506170541425)" filter="url(#llleaves-blur-4)" opacity="0.29"></path><path d="M353 722H403C431 722 453 744 453 772H403C375 772 353 750 353 722Z " transform="matrix(-0.04392924670578326,0.24913513819200986,-0.24913513819200986,-0.04392924670578326,606.807434651862,679.4136865978402)" filter="url(#llleaves-blur-3)" opacity="0.39"></path><path d="M96 679H146C174 679 196 701 196 729H146C118 729 96 707 96 679Z " transform="matrix(-0.04405524767504261,-0.5035537851368417,0.5035537851368417,-0.04405524767504261,-202.06979857578028,808.5337469932089)" opacity="0.78"></path><path d="M714 9H764C792 9 814 31 814 59H764C736 59 714 37 714 9Z " transform="matrix(0.045419947093793975,0.21368405066838142,-0.21368405066838142,0.045419947093793975,736.5644181430664,-130.7988929118324)" filter="url(#llleaves-blur-3)" opacity="0.33"></path><path d="M73 569H123C151 569 173 591 173 619H123C95 619 73 597 73 569Z " transform="matrix(0.018018213382117804,-0.5159741221159403,0.5159741221159403,0.018018213382117804,-185.70486878286897,646.7619982712827)" opacity="0.79"></path><path d="M-17 161H33C61 161 83 183 83 211H33C5 211 -17 189 -17 161Z " transform="matrix(0.23284087791955538,-0.49932887407600757,0.49932887407600757,0.23284087791955538,-67.55891954948274,159.16944955147096)" opacity="0.85"></path><path d="M144 206H194C222 206 244 228 244 256H194C166 256 144 234 144 206Z " transform="matrix(-0.239726341710031,-0.39897163188695345,0.39897163188695345,-0.239726341710031,148.34446332585975,363.77728152108614)" opacity="0.71"></path></g></svg>