<svg xmlns="http://www.w3.org/2000/svg" version="1.1" xmlns:xlink="http://www.w3.org/1999/xlink" xmlns:svgjs="http://svgjs.dev/svgjs" viewBox="0 0 640 800"><defs><linearGradient x1="50%" y1="0%" x2="50%" y2="100%" id="ccchaos-grad"><stop stop-color="hsl(50, 98%, 60%)" stop-opacity="1" offset="0%"></stop><stop stop-color="hsl(50, 98%, 80%)" stop-opacity="1" offset="100%"></stop></linearGradient></defs><g stroke-width="3" stroke="url(#ccchaos-grad)" fill="none" stroke-linecap="round"><path d="M308.46 110.86C318.05 106.02 327.8 102.93 337.69 102.05 347.6 103.13 357.69 106.57 367.93 112.01 378.24 118.56 388.74 125.94 399.43 133.47 410.2 140.21 421.18 146.05 432.31 150.72 443.53 153.75 454.88 155.65 466.3 156.73 477.71 156.89 489.08 157.06 500.28 157.71 511.29 158.73 521.93 160.97 532.05 164.6 541.67 169.37 550.51 175.66 558.37 183.32 565.43 191.99 571.28 201.68 575.76 212.09 579.26 222.91 581.32 234.02 581.9 245.17 581.63 256.2 580.08 267.03 577.4 277.58 574.41 287.75 570.79 297.62 566.85 307.22 563.49 316.45 560.47 325.52 558.15 334.52 557.3 343.26 557.67 352.07 559.46 361.02 563.16 369.85 568.34 378.93 574.87 388.32 582.91 397.67 591.74 407.4 600.94 417.51 610.4 427.62 619.02 437.9 626.32 448.3 632.52 458.68 636.68 469.13 638.62 479.55 638.75 489.87 636.51 500.02 632.05 509.86 625.93 519.39 617.97 528.4 608.51 536.66 598.14 544.38 586.89 551.13 575.15 556.74 563.38 561.66 551.67 565.37 540.27 567.89 529.5 569.98 519.33 571.22 509.85 571.89 501.27 573.02 493.39 574.39 486.16 576.52 479.76 580.31 473.84 585.7 468.27 593.01 463.29 602.54 458.43 613.98 453.55 626.99 448.99 641.02 444.21 655.2 439.13 668.53 434.14 680.16 428.72 689 422.82 694.24 416.91 695.92 410.45 693.65 403.46 687.85 396.41 680.13 388.82 671.16 380.71 662.47 372.54 656.17 363.87 652.92 354.73 653.57 345.57 658.74 335.96 667.51 325.95 678.72 315.94 691.04 305.78 701.96 295.53 709.8 285.3 713.93 275 713.15 264.68 707.6 254.4 698.31 244.13 686.05 233.9 672.31 223.75 658.73 213.68 646.44 203.75 636.44 193.94 629.63 184.32 625.89 174.95 624.94 165.75 626.71 156.86 629.9 148.34 633.55 140.07 637.45 132.22 640.11 124.86 640.94 117.79 640.09 111.23 636.76 105.25 631.05 99.54 623.41 94.38 613.81 89.81 602.73 85.43 590.59 81.56 577.73 78.2 564.61 74.88 551.38 71.97 538.4 69.42 525.88 66.75 513.75 64.32 502.22 62.11 491.25 59.6 480.76 57.23 470.72 54.97 461.03 52.33 451.67 49.79 442.47 47.35 433.34 44.58 424.35 41.97 415.29 39.59 406.09 37.03 396.93 34.82 387.56 33.05 377.99 31.34 368.42 30.27 358.88 29.87 349.41 29.74 339.99 30.38 330.71 31.81 321.66 33.6 312.73 36.2 304.15 39.55 296.01 43.26 288.09 47.67 280.71 52.7 273.97 57.97 267.5 63.75 261.68 69.97 256.55 76.24 251.55 82.82 247.1 89.64 243.08 96.33 238.84 103.16 234.71 110.09 230.48 116.78 225.51 123.52 220.06 130.29 213.94 136.77 206.74 143.3 198.77 149.89 190.06 156.21 180.57 162.63 170.77 169.17 161.03 175.5 151.55 182.01 142.96 188.73 135.72 195.3 129.85 202.14 125.87 209.24 123.9 216.26 123.35 223.59 124.36 231.23 126.48 238.82 128.58 246.74 130.57 255 131.86 263.23 131.47 271.8 129.66 280.71 126.43 289.6 121.61 298.85 116.18 308.45 110.86" stroke-dasharray="9 4" transform="rotate(0, 320, 400)" opacity="0.29"></path><path d="M314.3 121.78C323.66 116.99 333.19 113.85 342.87 112.78 352.58 113.54 362.47 116.59 372.51 121.6 382.61 127.79 392.89 134.94 403.32 142.43 413.8 149.38 424.44 155.64 435.18 160.9 445.95 164.64 456.76 167.27 467.55 168.97 478.25 169.57 488.81 169.92 499.1 170.41 509.12 170.95 518.69 172.37 527.64 174.9 536.08 178.33 543.68 183.15 550.29 189.32 556.14 196.49 560.83 204.82 564.24 214.05 566.81 223.91 568.07 234.3 568.05 245 567.37 255.83 565.61 266.69 562.94 277.42 560.14 287.99 556.9 298.35 553.48 308.46 550.73 318.32 548.38 327.99 546.74 337.5 546.5 346.81 547.4 356.07 549.59 365.33 553.5 374.48 558.73 383.74 565.14 393.14 572.88 402.5 581.31 412.07 590.02 421.85 598.98 431.63 607.15 441.4 614.13 451.1 620.14 460.77 624.32 470.32 626.48 479.64 627.02 488.83 625.4 497.66 621.7 506 616.45 514.04 609.43 521.41 600.94 527.97 591.49 534.07 581.1 539.23 570.09 543.38 558.9 547.1 547.59 549.88 536.41 551.84 525.66 553.78 515.35 555.33 505.58 556.83 496.54 559.16 488.11 562.16 480.26 566.22 473.17 572.01 466.55 579.41 460.31 588.54 454.66 599.47 449.2 611.8 443.82 625.05 438.8 638.65 433.68 651.78 428.38 663.5 423.23 673.18 417.76 679.95 411.93 683.21 406.12 683.26 399.87 679.85 393.17 673.53 386.44 665.88 379.22 657.48 371.54 649.7 363.81 644.38 355.62 642 346.98 643.22 338.32 648.56 329.23 657.1 319.74 667.8 310.26 679.52 300.62 689.99 290.89 697.72 281.18 702.18 271.4 702.17 261.6 697.73 251.85 689.72 242.11 678.66 232.44 665.82 222.84 652.66 213.35 640.2 204.02 629.43 194.81 621.28 185.8 615.85 177.07 613.06 168.52 613.02 160.28 614.73 152.44 617.41 144.82 620.91 137.62 623.87 130.92 625.65 124.46 626.37 118.51 625.07 113.1 621.67 107.92 616.56 103.26 609.45 99.13 600.67 95.14 590.64 91.62 579.52 88.56 567.71 85.49 555.44 82.78 543.02 80.39 530.7 77.84 518.48 75.49 506.6 73.33 495.16 70.87 484.02 68.5 473.3 66.23 462.99 63.59 452.94 61.02 443.17 58.55 433.62 55.76 424.22 53.11 414.92 50.69 405.68 48.08 396.49 45.81 387.29 43.98 378.08 42.19 368.88 41.02 359.88 40.51 351.13 40.25 342.41 40.76 333.97 42.02 325.9 43.64 317.9 46.05 310.34 49.2 303.27 52.71 296.34 56.91 289.95 61.74 284.15 66.82 278.46 72.43 273.3 78.48 268.65 84.62 263.93 91.09 259.52 97.82 255.29 104.47 250.63 111.28 245.85 118.22 240.75 124.94 234.84 131.74 228.35 138.58 221.18 145.16 213.09 151.78 204.36 158.45 195.13 164.86 185.44 171.34 175.76 177.93 166.45 184.3 157.7 190.82 150.06 197.5 143.9 204.03 139.14 210.78 136.21 217.77 135.12 224.65 135.22 231.81 136.61 239.25 138.84 246.63 140.84 254.33 142.56 262.35 143.48 270.32 142.75 278.64 140.67 287.29 137.27 295.93 132.41 304.93 127.02 314.29 121.78" stroke-dasharray="8 15" transform="rotate(4.04, 320, 400)" opacity="0.52"></path><path d="M320.51 132.7C329.64 127.97 338.93 124.78 348.37 123.53 357.82 124 367.45 126.65 377.21 131.22 387.01 137 396.96 143.86 407.02 151.22 417.11 158.28 427.28 164.86 437.49 170.63 447.67 175.06 457.82 178.42 467.85 180.81 477.74 182.02 487.4 182.75 496.69 183.34 505.67 183.68 514.13 184.58 521.91 186.29 529.18 188.6 535.6 192.11 541.05 196.84 545.81 202.49 549.47 209.32 551.96 217.16 553.75 225.73 554.39 235.03 553.93 244.85 552.98 255.01 551.15 265.42 548.61 275.9 546.09 286.41 543.28 296.84 540.42 307.13 538.28 317.29 536.58 327.29 535.58 337.11 535.91 346.8 537.28 356.37 539.82 365.84 543.9 375.23 549.14 384.59 555.4 393.94 562.84 403.27 570.86 412.64 579.1 422.03 587.56 431.42 595.3 440.61 601.95 449.56 607.77 458.47 611.93 467.08 614.27 475.29 615.17 483.38 614.09 490.97 611.09 497.95 606.67 504.69 600.56 510.72 593.01 515.95 584.5 520.88 574.99 525 564.77 528.32 554.24 531.49 543.45 534.05 532.64 536.18 522.08 538.64 511.79 541.12 501.9 543.95 492.58 547.85 483.75 552.65 475.44 558.67 467.77 566.29 460.55 575.35 453.72 585.84 447.43 597.6 441.39 610.22 435.51 623.16 429.99 635.85 424.47 647.53 418.87 657.42 413.47 665.11 407.85 669.86 401.97 671.33 396.16 669.99 390.01 665.72 383.48 659.12 376.95 651.7 370.02 643.98 362.67 637.13 355.31 632.77 347.52 631.2 339.33 632.94 331.12 638.38 322.52 646.68 313.55 656.88 304.58 668.01 295.47 678.03 286.28 685.62 277.11 690.34 267.88 691.02 258.65 687.62 249.46 680.85 240.3 671.02 231.23 659.2 222.23 646.66 213.36 634.29 204.67 623.06 196.1 613.87 187.75 606.98 179.69 602.49 171.81 600.63 164.25 600.67 157.08 602.04 150.11 604.66 143.57 607.34 137.5 609.46 128.96 611.18 114.61 604.44 108.78 595.62 105.15 587.9 101.94 578.87 99.13 568.87 96.28 558.15 93.73 546.92 91.45 535.46 88.99 523.82 86.71 512.25 84.57 500.91 82.13 489.67 79.76 478.74 77.47 468.17 74.81 457.76 72.22 447.66 69.71 437.87 66.89 428.19 64.22 418.74 61.75 409.49 59.11 400.29 56.8 391.24 54.9 382.35 53.04 373.46 51.79 364.93 51.17 356.77 50.8 348.63 51.16 340.88 52.26 333.57 53.71 326.3 55.92 319.49 58.85 313.18 62.15 306.92 66.12 301.14 70.73 295.84 75.59 290.51 80.99 285.56 86.85 280.91 92.82 276.02 99.14 271.24 105.75 266.42 112.32 261.04 119.08 255.38 125.98 249.28 132.72 242.39 139.54 234.93 146.43 226.88 153.08 218.11 159.79 208.92 166.53 199.49 173.04 189.94 179.61 180.68 186.26 172.08 192.7 164.25 199.26 157.69 205.96 152.67 212.49 149.01 219.21 147.06 226.14 146.74 232.94 147.37 239.99 149.03 247.3 151.26 254.54 153.08 262.06 154.48 269.89 155.03 277.67 153.96 285.77 151.61 294.2 148.06 302.62 143.19 311.38 137.86 320.5 132.7" stroke-dasharray="14 15" transform="rotate(8.08, 320, 400)" opacity="0.24"></path><path d="M326.7 143.62C335.57 138.96 344.59 135.74 353.73 134.33 362.89 134.51 372.19 136.76 381.6 140.87 391.02 146.21 400.55 152.72 410.13 159.88 419.71 166.93 429.31 173.73 438.88 179.92 448.37 184.96 457.76 189.03 466.94 192.16 475.95 194.07 484.64 195.35 492.9 196.28 500.83 196.71 508.18 197.38 514.84 198.56 523.67 201.28 535.91 212.87 539.03 221.9 540.2 229 540.38 236.95 539.63 245.57 538.56 254.67 536.78 264.2 534.46 273.99 532.29 283.98 529.95 294.05 527.68 304.1 526.13 314.16 525.06 324.13 524.67 333.95 525.51 343.72 527.3 353.36 530.13 362.84 534.34 372.28 539.56 381.6 545.66 390.79 552.79 399.97 560.4 409.05 568.18 418.01 576.16 426.96 583.47 435.56 589.79 443.77 595.4 451.94 599.51 459.68 601.99 466.92 603.2 474.06 602.61 480.63 600.25 486.56 596.6 492.34 591.35 497.45 584.71 501.87 577.12 506.18 568.51 509.86 559.13 513.01 549.35 516.27 539.18 519.24 528.85 522.14 518.62 525.62 508.51 529.44 498.66 533.88 489.23 539.45 480.18 546.03 471.55 553.78 463.45 562.87 455.76 573.14 448.43 584.41 441.6 596.43 435.03 608.76 428.67 620.87 422.66 632.25 416.73 642.23 410.8 650.17 405.08 655.88 399.25 658.77 393.25 658.66 387.35 656.21 381.19 651.33 374.76 644.66 368.35 637.64 361.61 630.67 354.53 624.77 347.44 621.32 340 620.51 332.21 622.7 324.41 628.22 316.26 636.26 307.78 645.96 299.3 656.51 290.72 666.07 282.07 673.49 273.45 678.41 264.78 679.7 256.14 677.27 247.54 671.68 238.99 663.09 230.55 652.37 222.18 640.62 213.96 628.59 205.93 617.19 198.02 607.29 190.35 599.22 182.97 593.23 175.76 589.63 168.87 587.95 162.37 587.79 153.09 590.12 136.96 595.39 130.17 595.65 124.04 593.08 113.97 578.52 109.89 567.13 107.21 558.33 104.79 548.76 102.6 538.68 100.2 528.21 97.95 517.54 95.81 506.85 93.37 496.08 90.98 485.45 88.66 475.06 85.98 464.72 83.36 454.65 80.82 444.88 77.98 435.17 75.28 425.74 72.78 416.58 70.12 407.46 67.77 398.59 65.82 389.97 63.91 381.36 62.58 373.2 61.87 365.49 61.38 357.78 61.61 350.51 62.53 343.71 63.81 336.9 65.81 330.54 68.53 324.62 71.59 318.66 75.32 313.09 79.68 307.87 84.3 302.49 89.46 297.33 95.09 292.3 100.86 286.9 107.01 281.44 113.45 275.79 119.9 269.55 126.56 262.93 133.39 255.86 140.1 248.1 146.92 239.86 153.81 231.19 160.52 222.05 167.28 212.73 174.08 203.47 180.68 194.36 187.33 185.81 194.05 178.14 200.57 171.38 207.19 165.97 213.93 162.1 220.5 159.48 227.22 158.4 234.12 158.74 240.9 159.77 247.89 161.56 255.1 163.71 262.24 165.28 269.64 166.33 277.3 166.48 284.92 165.09 292.84 162.5 301.07 158.81 309.28 153.94 317.81 148.69 326.69 143.62" stroke-dasharray="10 1" transform="rotate(12.12, 320, 400)" opacity="0.43"></path><path d="M332.44 154.54C341.04 149.96 349.76 146.73 358.56 145.16 367.38 145.07 376.29 146.92 385.26 150.57 394.24 155.45 403.26 161.55 412.28 168.42 421.27 175.38 430.22 182.28 439.05 188.78 447.79 194.33 456.35 199.05 464.63 202.9 472.72 205.57 480.42 207.52 487.65 208.98 497.7 210.11 513.78 213.3 519.43 216.62 523.43 221.63 526.25 237.42 525.28 247.9 524.21 255.67 522.59 264.01 520.57 272.76 518.8 281.82 516.97 291.12 515.27 300.54 514.32 310.08 513.84 319.63 514 329.11 515.3 338.62 517.46 348.02 520.53 357.26 524.83 366.5 529.99 375.58 535.91 384.47 542.72 393.37 549.93 402.08 557.26 410.55 564.76 419.03 571.65 427.06 577.65 434.62 583.03 442.15 587.08 449.18 589.65 455.68 591.04 465.05 584.01 480.85 576.02 487.35 569.35 491.56 561.64 495.38 553.11 498.94 544.13 502.81 534.66 506.68 524.92 510.74 515.16 515.53 505.38 520.86 495.72 526.93 486.35 534.05 477.24 542.14 468.45 551.23 460.09 561.32 452.06 572.22 444.37 583.68 437.1 595.39 430.09 606.93 423.31 617.79 416.86 627.56 410.54 635.69 404.27 641.67 398.23 645.5 392.15 646.72 385.99 645.31 379.94 642 373.73 636.77 367.32 630.24 360.96 623.74 354.34 617.59 347.47 612.63 340.6 610.06 333.44 609.93 326 612.52 318.55 618.07 310.81 625.83 302.8 635.04 294.79 645.01 286.72 654.12 278.61 661.35 270.52 666.4 262.43 668.22 254.38 666.67 246.38 662.2 238.45 654.84 230.64 645.28 222.91 634.46 215.34 622.99 207.98 611.7 200.74 601.39 193.74 592.46 187.03 585.23 180.47 580.08 174.23 576.73 168.37 574.96 160 575.24 145.5 579.03 139.4 580.09 133.84 579.4 124.62 570.32 120.81 561.98 118.26 555.22 115.93 547.53 113.79 539.14 111.43 530.24 109.18 520.91 107.03 511.33 104.57 501.54 102.16 491.69 99.79 481.9 97.09 472.07 94.44 462.4 91.87 452.95 89.02 443.51 86.3 434.32 83.78 425.4 81.11 416.5 78.73 407.86 76.74 399.51 74.79 391.16 73.4 383.28 72.59 375.87 72 368.43 72.09 361.44 72.85 354.87 73.95 348.26 75.74 342.04 78.22 336.16 81.05 330.18 84.52 324.47 88.61 318.97 92.97 313.22 97.87 307.55 103.24 301.86 108.77 295.76 114.69 289.48 120.93 282.93 127.22 275.83 133.74 268.35 140.44 260.48 147.08 252.09 153.85 243.36 160.71 234.4 167.42 225.25 174.2 216.17 181.04 207.4 187.7 199.02 194.41 191.41 201.18 184.83 207.78 179.23 214.46 174.99 221.23 172.22 227.85 170.54 234.6 170.22 241.49 171.06 248.26 172.36 255.22 174.18 262.36 176.15 269.43 177.42 276.73 178.08 284.26 177.84 291.74 176.13 299.5 173.32 307.52 169.52 315.53 164.67 323.83 159.5 332.43 154.54" stroke-dasharray="11 4" transform="rotate(16.16, 320, 400)" opacity="0.42"></path><path d="M337.38 165.46C345.68 160.97 354.05 157.73 362.47 156.03 370.9 155.68 379.37 157.15 387.84 160.33 396.31 164.73 404.76 170.37 413.15 176.88 421.49 183.64 429.72 190.53 437.78 197.21 445.73 203.17 453.42 208.46 460.79 212.98 467.96 216.41 474.7 219.1 480.94 221.21 496.19 224.58 510.35 232.1 511.8 237.25 512.2 241.49 511.91 246.56 510.99 252.39 510.02 258.72 508.64 265.7 506.99 273.19 505.66 281.05 504.35 289.27 503.22 297.73 502.83 306.4 502.9 315.19 503.56 324 505.27 332.91 507.74 341.77 511 350.52 515.35 359.31 520.44 367.95 526.15 376.39 532.64 384.85 539.45 393.1 546.34 401.08 553.38 409.07 559.86 416.59 565.53 423.63 570.67 430.66 574.62 437.19 577.26 443.22 579.04 452.01 573.75 467.3 566.96 474.04 561.16 478.6 554.34 483.01 546.68 487.39 538.53 492.19 529.83 497.22 520.75 502.63 511.56 508.77 502.23 515.53 492.91 523.03 483.76 531.41 474.75 540.58 465.96 550.49 457.5 561.02 449.29 571.97 441.37 583.05 433.79 593.95 426.46 604.27 419.35 613.56 412.54 621.56 405.88 627.79 399.32 631.88 392.98 634 386.66 633.81 380.32 631.36 374.11 627.48 367.81 622.13 361.39 615.91 355.03 610.05 348.49 604.74 341.77 600.71 335.07 598.96 328.15 599.46 321.01 602.38 313.88 607.93 306.52 615.4 298.95 624.11 291.38 633.53 283.78 642.17 276.2 649.17 268.63 654.31 261.1 656.59 253.64 655.82 246.22 652.41 238.9 646.24 231.73 637.87 224.62 628.09 217.69 617.37 210.99 606.44 204.38 596.04 198.02 586.57 191.97 578.39 186.02 571.94 180.4 567.09 175.14 563.74 167.6 561.74 154.56 562.82 149.06 563.8 143.99 564.07 135.47 559.02 131.86 553.31 129.4 548.46 127.12 542.65 125 536.02 122.65 528.88 120.39 521.13 118.21 512.95 115.72 504.48 113.27 495.76 110.87 486.94 108.14 477.99 105.47 469.04 102.87 460.19 100.01 451.32 97.28 442.59 94.74 434.06 92.07 425.53 89.68 417.21 87.66 409.14 85.68 401.06 84.23 393.41 83.34 386.16 82.66 378.88 82.62 371.98 83.22 365.43 84.13 358.8 85.72 352.47 87.97 346.37 90.54 340.13 93.75 334.03 97.54 328.01 101.62 321.72 106.23 315.39 111.31 308.93 116.58 302.09 122.24 295.02 128.23 287.66 134.31 279.86 140.64 271.76 147.18 263.37 153.69 254.67 160.35 245.81 167.12 236.95 173.8 228.14 180.56 219.63 187.38 211.65 194.06 204.24 200.8 197.73 207.59 192.33 214.24 187.92 220.96 184.8 227.75 183.03 234.41 182.18 241.18 182.46 248.06 183.66 254.84 185.09 261.76 186.83 268.84 188.54 275.85 189.46 283.05 189.72 290.45 189.09 297.81 187.08 305.39 184.07 313.21 180.19 321.01 175.37 329.06 170.3 337.36 165.46" stroke-dasharray="13 15" transform="rotate(20.200000000000003, 320, 400)" opacity="0.18"></path><path d="M341.18 176.38C349.16 172 357.16 168.76 365.15 166.94 373.14 166.35 381.12 167.45 389.05 170.17 396.97 174.07 404.81 179.22 412.52 185.31 420.18 191.77 427.67 198.54 434.93 205.27 442.07 211.5 448.92 217.23 455.39 222.34 464.59 228.2 480.11 235.52 486.14 237.73 493.94 241.66 497.86 252.84 496.87 259.29 496.09 264.25 495.02 269.86 493.78 276.03 492.91 282.56 492.12 289.53 491.54 296.84 491.67 304.39 492.24 312.17 493.36 320.08 495.42 328.12 498.14 336.2 501.55 344.26 505.91 352.37 510.88 360.39 516.38 368.28 522.54 376.18 528.96 383.9 535.42 391.41 542.01 398.91 548.08 406 553.42 412.67 558.32 419.33 562.16 425.59 564.83 431.44 566.93 440.07 563.18 455.88 557.51 463.39 552.54 468.6 546.59 473.85 539.8 479.26 532.49 485.12 524.59 491.34 516.25 498.02 507.71 505.34 498.95 513.25 490.09 521.79 481.29 530.96 472.54 540.69 463.91 550.85 455.5 561.25 447.27 571.71 439.26 581.9 431.53 591.58 424 600.38 416.68 607.92 409.61 614.09 402.7 618.48 395.91 620.84 389.33 621.5 382.8 620.15 376.31 616.97 369.95 612.76 363.56 607.51 357.11 601.76 350.73 596.61 344.25 592.17 337.65 589.03 331.08 588.04 324.37 589.09 317.5 592.28 310.64 597.79 303.62 604.96 296.46 613.19 289.29 622.05 282.15 630.24 275.07 636.99 268 642.16 261 644.81 254.1 644.75 247.24 642.3 240.51 637.28 233.94 630.09 227.43 621.42 221.11 611.6 215.03 601.26 209.02 591.06 203.27 581.36 197.81 572.58 192.44 565.12 187.38 559 182.66 554.23 169.98 548.7 154.45 547.96 150.37 547.2 146.45 545.25 139.45 536.16 136.2 529.08 133.83 523.62 131.54 517.49 129.32 510.8 126.8 503.8 124.31 496.41 121.86 488.74 119.12 480.91 116.42 472.93 113.8 464.9 110.94 456.8 108.21 448.72 105.67 440.72 103.01 432.71 100.62 424.8 98.58 417.02 96.58 409.25 95.09 401.79 94.12 394.63 93.35 387.44 93.19 380.52 93.64 373.83 94.38 367.07 95.75 360.48 97.76 354.01 100.07 347.38 103 340.79 106.5 334.18 110.28 327.32 114.57 320.34 119.34 313.19 124.3 305.73 129.67 298.04 135.39 290.12 141.2 281.91 147.29 273.5 153.61 264.96 159.94 256.32 166.44 247.72 173.08 239.32 179.66 231.18 186.33 223.52 193.08 216.56 199.73 210.28 206.45 204.96 213.22 200.77 219.88 197.5 226.6 195.41 233.38 194.52 240.06 194.33 246.82 195.05 253.67 196.47 260.43 197.89 267.32 199.45 274.32 200.84 281.26 201.37 288.36 201.23 295.62 200.22 302.84 197.93 310.24 194.75 317.83 190.81 325.41 186.04 333.19 181.1 341.17 176.38" stroke-dasharray="20 19" transform="rotate(24.24, 320, 400)" opacity="0.84"></path><path d="M343.6 187.3C351.23 183.03 358.81 179.81 366.35 177.9 373.87 177.08 381.33 177.83 388.69 180.1 396.02 183.49 403.23 188.12 410.26 193.73 417.22 199.82 423.97 206.34 430.44 213 436.8 219.36 442.83 225.4 448.46 230.97 456.43 237.81 469.55 247.3 474.52 250.38 482.28 259.16 482.13 274.55 480.97 281.68 480.56 286.91 480.28 292.63 480.22 298.75 480.83 305.09 481.86 311.75 483.37 318.63 485.72 325.64 488.65 332.8 492.16 340.03 496.49 347.32 501.33 354.62 506.59 361.87 512.44 369.14 518.46 376.32 524.49 383.36 530.65 390.41 536.32 397.15 541.34 403.58 545.98 410.02 549.69 416.17 552.36 422.05 554.71 430.85 552.32 447.85 547.68 456.38 543.5 462.36 538.37 468.51 532.43 474.92 525.97 481.75 518.89 488.97 511.33 496.64 503.51 504.8 495.39 513.44 487.1 522.52 478.77 531.96 470.41 541.68 462.07 551.51 453.87 561.27 445.78 570.76 437.83 579.67 430.09 587.85 422.5 594.95 415.1 600.68 407.89 605.08 400.84 607.77 393.91 608.63 387.16 608.09 380.5 605.89 373.9 602.24 367.43 597.95 360.97 592.99 354.51 587.83 348.13 583.44 341.69 579.87 335.21 577.58 328.76 577.28 322.22 578.81 315.61 582.23 309 587.66 302.29 594.52 295.5 602.27 288.71 610.59 282 618.31 275.38 624.79 268.77 629.94 262.27 632.89 255.91 633.44 249.57 631.88 243.38 627.93 237.38 621.91 231.42 614.4 225.67 605.59 220.16 596.01 214.7 586.27 209.5 576.66 204.58 567.6 199.73 559.47 195.16 552.38 190.91 546.41 179.42 536.78 165.14 531.98 161.3 531.18 154.08 526.83 143.79 512.21 140.35 504.56 137.79 498.98 135.26 492.91 132.77 486.45 130.01 479.83 127.3 472.92 124.67 465.8 121.82 458.62 119.1 451.31 116.57 443.92 113.93 436.53 111.55 429.1 109.5 421.67 107.5 414.23 105.97 406.97 104.94 399.89 104.09 392.78 103.81 385.8 104.11 378.95 104.68 372.02 105.85 365.15 107.61 358.29 109.67 351.31 112.32 344.27 115.5 337.14 118.96 329.83 122.93 322.36 127.36 314.74 132 306.9 137.04 298.9 142.43 290.75 147.95 282.48 153.75 274.15 159.8 265.85 165.9 257.64 172.18 249.65 178.62 242.04 185.04 234.83 191.57 228.25 198.19 222.45 204.75 217.37 211.39 213.26 218.08 210.23 224.69 207.99 231.36 206.81 238.09 206.62 244.73 206.93 251.45 207.93 258.23 209.41 264.95 210.72 271.76 212.01 278.66 213.02 285.51 213.15 292.48 212.59 299.57 211.23 306.63 208.69 313.83 205.37 321.16 201.39 328.49 196.7 335.97 191.88 343.59 187.3" stroke-dasharray="11 18" transform="rotate(28.28, 320, 400)" opacity="0.14"></path><path d="M344.49 198.22C351.73 194.07 358.88 190.89 365.93 188.89 372.97 187.88 379.89 188.3 386.66 190.12 393.4 193.01 399.97 197.1 406.32 202.18 412.6 207.82 418.63 214.01 424.36 220.47 429.98 226.81 435.25 233.01 440.13 238.89 446.99 246.54 458.08 258.12 462.18 262.23 468.63 271.8 469.12 284.49 468.61 290.12 468.76 296.54 471.03 311.84 473.59 320.48 476.18 326.46 479.26 332.66 482.82 339.03 487.09 345.46 491.78 352 496.8 358.6 502.31 365.22 507.95 371.86 513.57 378.49 519.31 385.12 524.59 391.58 529.28 397.87 533.66 404.17 537.22 410.33 539.86 416.37 541.9 422.48 542.9 428.53 542.85 434.57 542.09 440.75 540.28 447.02 537.48 453.44 534.02 460.1 529.68 467.01 524.55 474.21 518.92 481.73 512.67 489.61 505.9 497.85 498.85 506.38 491.44 515.23 483.79 524.3 476.04 533.47 468.18 542.66 460.27 551.67 452.41 560.36 444.59 568.52 436.85 575.9 429.24 582.43 421.74 587.79 414.38 591.77 407.18 594.54 400.09 595.76 393.14 595.4 386.33 593.95 379.61 591.18 372.98 587.34 366.45 583.19 359.98 578.66 353.54 574.18 347.18 570.58 340.81 567.86 334.45 566.36 328.12 566.69 321.76 568.63 315.37 572.21 309 577.54 302.58 584.07 296.14 591.35 289.7 599.14 283.37 606.39 277.19 612.59 271 617.67 264.96 620.84 259.08 621.92 253.22 621.14 247.53 618.2 242.05 613.3 236.59 606.94 231.35 599.22 226.35 590.56 221.38 581.49 216.66 572.25 212.22 563.21 207.81 554.77 203.67 547.04 199.82 540.17 194.21 531.98 184.39 521.59 180.12 518.68 172.32 515.6 161.74 509.28 158.4 505.38 154.79 500.58 147.39 487.76 143.59 479.95 140.82 474.45 138.1 468.57 135.47 462.38 132.64 456.11 129.95 449.59 127.43 442.87 124.82 436.13 122.46 429.22 120.42 422.18 118.42 415.13 116.87 408.12 115.79 401.14 114.87 394.15 114.49 387.18 114.64 380.21 115.05 373.19 116.02 366.12 117.54 359.01 119.35 351.8 121.7 344.49 124.58 337.07 127.71 329.53 131.34 321.86 135.41 314.07 139.69 306.2 144.38 298.24 149.42 290.26 154.59 282.3 160.07 274.42 165.8 266.73 171.61 259.28 177.62 252.19 183.8 245.61 189.99 239.52 196.32 234.12 202.75 229.56 209.14 225.67 215.63 222.7 222.18 220.71 228.68 219.37 235.24 218.91 241.86 219.24 248.41 219.88 255.03 220.99 261.7 222.39 268.32 223.49 275 224.44 281.76 225.03 288.48 224.74 295.28 223.79 302.17 222.1 309.03 219.35 316 215.91 323.05 211.93 330.1 207.33 337.25 202.65 344.48 198.22" stroke-dasharray="18 12" transform="rotate(32.32, 320, 400)" opacity="0.52"></path><path d="M343.79 209.14C350.61 205.13 357.3 202 363.85 199.93 370.39 198.74 376.77 198.85 382.96 200.26 389.12 202.64 395.06 206.18 400.76 210.71 406.4 215.84 411.77 221.6 416.81 227.74 421.76 233.92 426.35 240.12 430.56 246.17 436.47 254.39 445.9 267.82 449.35 272.99 455.11 284.58 456.59 296.32 456.72 300.93 457.52 306.1 461.01 318.66 464.01 325.93 466.79 330.97 469.97 336.31 473.54 341.88 477.72 347.5 482.23 353.33 486.99 359.31 492.17 365.31 497.43 371.45 502.65 377.71 507.97 383.96 512.87 390.19 517.24 396.38 521.36 402.58 524.75 408.79 527.33 415 529.41 421.28 530.58 427.62 530.81 434.06 530.44 440.63 529.13 447.36 526.92 454.29 524.13 461.4 520.51 468.77 516.15 476.39 511.33 484.22 505.88 492.31 499.92 500.62 493.65 509.04 486.99 517.58 480.04 526.13 472.95 534.55 465.67 542.76 458.29 550.58 450.89 557.9 443.46 564.53 436.06 570.25 428.73 575.11 421.45 578.81 414.27 581.21 407.19 582.56 400.21 582.59 393.33 581.31 386.57 579.25 379.89 576.2 373.31 572.4 366.82 568.56 360.39 564.59 354.04 560.85 347.74 558.06 341.47 556.14 335.25 555.38 329.06 556.25 322.89 558.54 316.73 562.23 310.59 567.42 304.45 573.61 298.33 580.43 292.21 587.69 286.25 594.49 280.46 600.37 271.85 607.01 255.54 609.08 247.9 604.23 242.88 599 238.08 592.4 233.52 584.77 228.98 576.54 224.68 567.91 220.63 559.2 216.59 550.76 212.81 542.74 209.28 535.31 204.11 525.76 194.95 511.84 190.91 507.14 183.33 501.47 172.75 494.01 169.35 490.65 165.66 486.75 158.15 476.32 154.3 469.82 151.53 465.24 148.82 460.23 146.2 454.85 143.4 449.41 140.74 443.63 138.26 437.55 135.69 431.46 133.37 425.09 131.34 418.47 129.36 411.85 127.79 405.14 126.67 398.36 125.69 391.58 125.22 384.71 125.24 377.77 125.49 370.8 126.27 363.73 127.56 356.57 129.11 349.36 131.18 342.04 133.74 334.62 136.55 327.17 139.82 319.63 143.53 312.05 147.44 304.49 151.74 296.95 156.4 289.5 161.2 282.19 166.32 275.09 171.69 268.31 177.15 261.86 182.84 255.87 188.7 250.47 194.6 245.57 200.66 241.4 206.83 238.02 213 235.24 219.26 233.29 225.61 232.18 231.92 231.54 238.31 231.61 244.74 232.28 251.14 233.06 257.59 234.14 264.09 235.34 270.55 236.13 277.06 236.69 283.62 236.85 290.16 236.15 296.75 234.83 303.39 232.84 310.02 229.9 316.7 226.38 323.44 222.42 330.17 217.93 336.95 213.41 343.78 209.15" stroke-dasharray="9 3" transform="rotate(36.36, 320, 400)" opacity="0.14"></path><path d="M341.53 220.06C347.92 216.2 354.15 213.13 360.19 211.02 366.23 209.68 372.07 209.51 377.7 210.51 388.87 215.17 399.05 223.76 407.99 234.91 416.64 246.68 423.86 258.51 429.49 269.41 434.73 278.25 438.38 285.64 440.49 291.88 443.07 298.6 445.79 312.98 448.49 322.86 452.5 330.07 457.75 338.67 464.3 348.48 468.36 353.42 472.67 358.64 477.17 364.09 482.01 369.56 486.9 375.25 491.73 381.17 496.64 387.09 501.17 393.09 505.23 399.17 509.08 405.26 512.29 411.46 514.79 417.76 518.5 430.52 518.89 443.94 516.02 458.06 511.12 472.63 503.35 487.99 493.32 503.77 482.09 519.36 469.42 534.36 455.95 547.61 442.24 558.61 428.29 566.09 414.47 569.11 400.9 568.84 387.58 564.59 374.64 557.56 361.97 551.23 349.54 546.22 337.43 544.62 331.41 545.97 325.43 548.53 319.52 552.28 313.61 557.3 307.74 563.15 301.93 569.51 296.12 576.26 290.49 582.6 285.05 588.16 279.61 592.98 274.36 596.4 269.31 598.26 259.2 597.82 249.91 590.73 241.54 578.51 233.15 563.53 225.68 547.21 219.16 531.54 212.54 517.99 206.75 506.85 201.75 498.07 196.39 491.93 191.58 486.99 187.24 482.33 182.18 478.59 177.35 473.87 172.72 467.76 167.22 461.56 161.87 453.69 156.85 444.23 154.11 439.44 151.49 434.29 149.05 428.78 146.54 423.26 144.26 417.41 142.27 411.24 140.3 405.07 138.74 398.73 137.58 392.26 136.56 385.79 136 379.19 135.9 372.46 136.32 359.01 138.73 345.07 143.01 330.87 148.19 316.82 155.09 302.8 163.42 289.39 172.38 276.87 182.48 265.79 193.4 256.94 204.57 249.96 216.33 245.78 228.44 244.5 240.56 244.43 252.95 246 265.47 248.16 277.94 248.42 290.57 247.05 303.26 243.43 309.61 240.35 315.98 236.79 322.36 232.87 328.74 228.51 335.13 224.16 341.52 220.07" stroke-dasharray="13 14" transform="rotate(40.400000000000006, 320, 400)" opacity="0.93"></path><path d="M337.88 230.98C349.75 223.96 360.87 220.4 371.09 220.9 381.21 224.56 390.3 231.98 398.18 242.05 405.84 253.13 412.18 264.77 417.1 276.01 421.78 285.77 425.13 294.36 427.23 301.84 429.47 307.65 430.91 313.02 431.87 318.43 433.78 323.14 435.91 328.61 438.63 335.11 443.09 341.53 448.59 349.18 455.1 358.05 463.29 366.94 472.07 377.01 480.81 388.22 489.84 399.42 497.16 411.29 502.24 423.72 505.98 436.28 506.82 449.56 504.79 463.44 501.02 477.43 494.63 491.83 486.08 506.09 476.39 519.68 465.2 532.1 453.08 542.35 440.59 550.35 427.67 554.97 414.7 555.68 401.83 554.01 389.08 549.36 376.63 542.96 364.37 537.86 352.35 534.38 340.68 534.09 329.09 538.81 317.74 547.41 306.71 558.59 295.68 571.08 285.44 580.92 276.03 586.15 266.58 586.9 257.96 581.73 250.21 571.69 242.4 558.7 235.43 543.72 229.31 528.52 223.02 514.45 217.45 502.03 212.56 491.53 207.26 483.29 202.42 476.43 197.98 470.3 192.86 465.34 187.94 460.03 183.22 453.88 177.72 447.93 172.4 440.68 167.44 432.05 161.96 423.36 157.1 413.28 153.19 401.86 149.4 390.44 147.2 378.29 146.63 365.65 146.76 353.08 148.72 340.12 152.41 327.12 156.92 314.46 163.05 302.16 170.55 290.78 178.67 280.43 187.92 271.7 198.01 265.2 208.4 260.26 219.42 257.73 230.83 257.53 242.32 257.89 254.1 259.28 266 260.77 277.9 260.21 289.93 258.04 301.94 253.87 313.96 246.9 325.99 238.82 337.87 230.99" stroke-dasharray="1 3" transform="rotate(44.44, 320, 400)" opacity="0.45"></path><path d="M333.06 241.9C344.02 235.16 354.18 231.49 363.41 231.42 372.56 234.15 380.7 240.38 387.71 249.27 394.55 259.42 400.21 270.55 404.64 281.74 408.97 292.03 412.2 301.5 414.44 310.04 416.95 317.14 418.87 323.64 420.48 329.9 423.02 335.31 425.81 341.1 429.1 347.57 433.91 353.77 439.53 360.97 445.92 369.27 453.7 377.5 461.87 386.91 469.89 397.51 478.16 408.1 484.9 419.44 489.68 431.37 493.4 443.35 494.59 455.93 493.27 468.83 490.49 481.6 485.33 494.35 478.18 506.46 469.96 517.65 460.26 527.29 449.53 534.59 438.36 539.9 426.62 542.17 414.67 541.22 402.7 538.75 390.71 534.21 378.93 528.74 367.26 524.96 355.79 522.92 344.66 523.78 333.59 528.94 322.79 537.27 312.35 547.67 301.91 559.2 292.28 568.48 283.47 573.88 274.61 575.61 266.54 572.16 259.29 564.22 251.95 553.33 245.37 540.05 239.53 525.87 233.48 511.99 228.05 498.99 223.19 487.37 217.92 477.47 213.03 468.89 208.49 461.24 203.31 454.78 198.33 448.44 193.54 441.77 188.08 435.49 182.83 428.34 177.94 420.15 172.63 411.99 167.92 402.65 164.11 392.14 160.41 381.62 158.17 370.48 157.44 358.98 157.3 347.59 158.84 336.03 161.96 324.68 165.81 313.76 171.18 303.47 177.84 294.34 185.09 286.18 193.44 279.68 202.63 275.23 212.16 271.94 222.34 270.61 232.93 271.02 243.66 271.45 254.7 272.39 265.86 273.07 277.07 271.69 288.37 268.79 299.62 264.16 310.89 257.18 322.09 249.36 333.06 241.9" stroke-dasharray="12 4" transform="rotate(48.48, 320, 400)" opacity="0.18"></path><path d="M327.39 252.82C337.43 246.39 346.67 242.66 355.01 242.09 363.29 243.94 370.61 249.01 376.91 256.65 383.11 265.69 388.27 276.01 392.4 286.79 396.53 297.17 399.78 307.13 402.26 316.42 405.09 324.59 407.5 332.16 409.73 339.35 412.81 345.69 416.14 352.13 419.9 358.91 424.92 365.34 430.57 372.48 436.77 380.48 444.1 388.38 451.64 397.3 458.97 407.27 466.51 417.24 472.67 427.84 477.13 438.9 480.75 449.93 482.2 461.3 481.47 472.68 479.53 483.76 475.48 494.41 469.6 504.07 462.78 512.74 454.51 519.7 445.19 524.39 435.39 527.47 424.92 528.01 414.11 526.06 403.19 523.33 392.13 519.31 381.17 514.99 370.25 512.54 359.47 511.84 348.97 513.67 338.52 519.13 328.32 527.14 318.49 536.75 308.65 547.33 299.59 556 291.31 561.46 282.99 563.96 275.39 562.02 268.55 556.04 261.58 547.27 255.29 535.92 249.65 523.19 243.77 510.13 238.42 497.25 233.56 485.18 228.29 474.26 223.35 464.39 218.71 455.46 213.51 447.58 208.48 440.1 203.68 432.68 198.29 425.72 193.14 418.32 188.37 410.29 183.25 402.34 178.72 393.56 175.03 383.9 171.44 374.25 169.19 364.23 168.31 354.08 167.94 344.06 169.09 334.13 171.67 324.65 174.9 315.61 179.52 307.41 185.34 300.45 191.72 294.3 199.14 289.7 207.39 286.88 215.98 284.77 225.24 284.15 234.92 284.73 244.78 284.9 254.97 285.2 265.29 285 275.69 282.83 286.17 279.28 296.57 274.31 307.01 267.39 317.34 259.89 327.39 252.82" stroke-dasharray="21 18" transform="rotate(52.52, 320, 400)" opacity="0.52"></path><path d="M321.23 263.74C330.37 257.65 338.75 253.91 346.29 252.9 353.79 253.97 360.43 257.92 366.16 264.28 371.85 272.09 376.67 281.35 380.65 291.38 384.7 301.42 388.06 311.42 390.84 321.04 393.99 329.91 396.86 338.3 399.63 346.28 403.16 353.54 406.91 360.7 410.99 367.96 416.11 374.85 421.7 382.16 427.64 390.04 434.47 397.81 441.4 406.33 448.05 415.64 454.87 424.95 460.47 434.64 464.59 444.53 468.07 454.34 469.68 464.18 469.42 473.7 468.19 482.85 465.1 491.26 460.37 498.48 454.83 504.8 447.92 509.42 439.96 512.01 431.54 513.48 422.38 512.94 412.78 510.59 403.02 508.08 393.01 504.88 382.98 501.81 372.95 500.66 362.98 501.13 353.21 503.76 343.48 509.38 333.94 517 324.72 525.83 315.51 535.47 307 543.51 299.21 548.91 291.37 551.99 284.19 551.31 277.67 547.1 271.03 540.38 264.97 531.07 259.46 520.09 253.73 508.36 248.43 496.25 243.54 484.42 238.29 473.17 233.31 462.64 228.6 452.88 223.41 443.92 218.39 435.48 213.61 427.35 208.35 419.65 203.34 411.88 198.72 403.86 193.82 395.95 189.49 387.58 185.95 378.74 182.5 369.89 180.26 361.01 179.26 352.28 178.69 343.66 179.48 335.4 181.57 327.79 184.2 320.54 188.1 314.24 193.11 309.16 198.61 304.65 205.11 301.51 212.39 299.78 220.01 298.37 228.28 298 236.99 298.37 245.9 298.04 255.14 297.57 264.54 296.48 274.03 293.58 283.62 289.51 293.12 284.3 302.67 277.53 312.09 270.39 321.23 263.74" stroke-dasharray="2 15" transform="rotate(56.56, 320, 400)" opacity="0.88"></path><path d="M315 274.66C323.26 268.93 330.82 265.23 337.65 263.87 344.46 264.24 350.52 267.14 355.82 272.26 361.11 278.75 365.7 286.78 369.61 295.77 373.65 305.09 377.16 314.68 380.25 324.19 383.7 333.29 386.97 342.1 390.17 350.56 394.04 358.49 398.08 366.25 402.35 373.91 407.46 381.27 412.89 388.8 418.51 396.59 424.84 404.29 431.14 412.44 437.13 421.03 443.26 429.63 448.3 438.29 452.07 446.83 455.35 455.3 457.04 463.47 457.15 471.05 456.49 478.28 454.22 484.59 450.5 489.64 446.11 493.99 440.45 496.81 433.79 497.94 426.7 498.4 418.84 497.39 410.48 495.18 401.93 493.25 393.05 491.07 384.05 489.29 375.01 489.32 365.93 490.8 356.98 494.03 348.03 499.68 339.22 506.86 330.65 514.91 322.09 523.63 314.14 531.02 306.81 536.24 299.45 539.7 292.65 540.05 286.41 537.39 280.06 532.57 274.2 525.28 268.8 516.23 263.2 506.18 257.95 495.36 253.06 484.36 247.84 473.5 242.86 462.97 238.13 452.98 233 443.49 228.05 434.48 223.34 425.9 218.24 417.66 213.42 409.59 209 401.6 204.35 393.71 200.24 385.71 196.87 377.62 193.58 369.53 191.38 361.72 190.3 354.32 189.56 347.01 190.03 340.27 191.66 334.31 195.35 326.21 208.64 315.76 217.75 313.5 224.38 312.32 231.64 311.81 239.34 311.67 247.24 310.68 255.49 309.39 263.91 307.46 272.43 303.95 281.05 299.48 289.63 294.15 298.24 287.6 306.75 280.87 315 274.66" stroke-dasharray="16 10" transform="rotate(60.599999999999994, 320, 400)" opacity="0.97"></path><path d="M309.1 285.58C316.49 280.24 323.31 276.63 329.5 275.01 335.68 274.77 341.26 276.73 346.21 280.65 351.18 285.83 355.61 292.52 359.51 300.27 363.56 308.54 367.23 317.32 370.58 326.26 374.27 335.11 377.83 343.86 381.35 352.37 385.43 360.59 389.62 368.61 393.96 376.46 398.96 384.08 404.14 391.69 409.4 399.32 415.18 406.88 420.87 414.59 426.21 422.43 431.67 430.26 436.17 437.83 439.57 445.03 443.47 455.43 443.68 472.34 440.04 477.97 434.38 481.69 417.51 482.38 407.07 480.23 399.74 479.1 392.02 478.03 384.09 477.47 376.1 478.54 367.99 480.82 359.9 484.47 351.81 490.03 343.77 496.72 335.89 503.99 328 511.81 320.63 518.52 313.77 523.48 306.87 527.14 300.45 528.28 294.49 526.91 288.43 523.77 282.77 518.4 277.49 511.3 272.03 503.14 266.87 493.95 262.01 484.28 256.87 474.4 251.95 464.52 247.26 454.9 242.25 445.51 237.42 436.46 232.85 427.84 227.98 419.44 223.39 411.32 219.19 403.5 214.83 395.75 210.97 388.16 207.79 380.77 204.68 373.37 202.55 366.52 201.41 360.27 200.64 351.32 204.84 337.49 209.64 332.93 215.84 329.39 232.34 325.65 242.16 324.35 249.02 322.64 256.24 320.56 263.66 317.89 271.17 313.9 278.81 309.18 286.44 303.86 294.1 297.61 301.7 291.33 309.1 285.58" stroke-dasharray="3 4" transform="rotate(64.64, 320, 400)" opacity="0.96"></path><path d="M303.9 296.5C313.52 289.84 330.38 286.15 337.6 289.53 342.3 293.44 346.59 298.76 350.49 305.15 354.53 312.14 358.3 319.8 361.84 327.8 365.68 335.92 369.44 344.14 373.14 352.26 377.29 360.27 381.51 368.15 385.79 375.83 390.57 383.39 395.44 390.83 400.27 398.11 405.5 405.35 410.58 412.51 415.29 419.53 420.1 426.55 424.07 433.08 427.1 439.04 431.19 453.95 424.71 466.76 418.55 467.34 413.85 467.45 408.42 466.93 402.45 466.05 396.31 465.85 389.73 465.85 382.88 466.39 375.96 468.3 368.84 471.18 361.66 475.07 354.48 480.43 347.25 486.57 340.09 493.07 332.92 500.01 326.15 506.02 319.78 510.64 310.36 515.19 293.23 512.15 285.4 505.08 280.13 498.83 275.1 491.47 270.33 483.42 265.35 474.98 260.55 466.26 255.98 457.56 251.15 448.85 246.52 440.33 242.15 432.12 237.55 424.02 233.23 416.21 229.3 408.77 225.25 401.38 221.68 394.29 218.71 387.57 214.79 377.84 211.63 361.84 212.48 355.7 214.64 350.37 223.52 343.25 229.93 341.04 234.64 339.32 239.91 337.77 245.61 336.19 251.46 333.78 257.66 331 264.07 327.75 270.57 323.45 277.23 318.62 283.91 313.42 290.63 307.55 297.33 301.77 303.9 296.5" stroke-dasharray="4 6" transform="rotate(68.68, 320, 400)" opacity="0.94"></path><path d="M299.75 307.42C311.31 298.98 321.52 296.1 330.23 298.95 339.14 305.29 347.04 316.15 354.06 329.4 362.05 343.64 369.99 358.51 377.81 372.79 387.1 386.96 396.3 400.55 404.37 412.92 412.73 425.29 417.82 435.14 419.35 442.01 419.68 448.52 416.18 451.83 409.53 452.28 401.89 453.58 391.8 454.25 380.27 456.06 368.49 462.23 355.8 471.35 342.98 482.15 330.16 494.3 318.37 502.05 307.81 503.79 296.99 501.52 287 493.24 277.98 481.15 268.31 467.27 259.26 452.06 251.23 437.35 242.56 422.64 235.08 408.84 229.63 396.75 224.38 384.65 222.3 375.26 223.22 368.55 225 361.64 229.78 356.91 236.92 353.69 244.78 348.76 254.55 343.47 265.37 337.02 276.46 327.46 288.19 316.93 299.75 307.42" stroke-dasharray="1 13" transform="rotate(72.72, 320, 400)" opacity="0.86"></path><path d="M296.92 318.34C306.96 310.69 316.12 307.52 324.24 308.96 332.54 313.07 340.19 321.16 347.2 331.67 354.95 343.34 362.61 356.04 369.99 368.51 378.4 381.11 386.51 393.16 393.45 403.85 400.61 414.53 405.03 422.74 406.52 428.32 407.22 433.86 404.78 437.01 399.65 438.3 393.81 440.74 385.74 443.1 376.2 446.46 366.44 453.12 355.63 461.75 344.38 471.23 333.12 481.74 322.49 488.8 312.74 491.27 302.81 490.95 293.47 485.72 284.93 476.97 275.95 466.53 267.53 454.33 260.09 441.96 252.24 429.37 245.48 417.27 240.55 406.54 235.78 395.81 233.71 387.37 234.19 381.06 235.28 374.4 238.91 369.22 244.6 364.91 250.81 359.07 258.75 352.78 267.74 345.72 276.94 336.48 286.87 326.82 296.92 318.34" stroke-dasharray="6 14" transform="rotate(76.76, 320, 400)" opacity="0.40"></path><path d="M295.59 329.26C304.17 322.49 312.27 319.23 319.69 319.56 327.27 321.82 334.47 327.37 341.2 335.16 348.44 344.03 355.57 354.13 362.3 364.37 369.7 374.84 376.68 385 382.53 394.04 390.4 406.57 393.71 421.85 389.02 425.99 384.68 429.5 378.39 433.17 370.69 437.57 362.82 444.28 353.83 452.16 344.19 460.31 334.54 469.2 325.18 475.43 316.4 478.21 307.51 479.23 299.01 476.41 291.18 470.58 283.06 463.39 275.45 454.31 268.75 444.54 261.8 434.47 255.84 424.39 251.48 415.09 247.23 405.78 245.25 398.08 245.38 391.86 245.93 385.28 248.58 379.57 252.98 374.32 257.74 367.88 264.02 361.06 271.32 353.87 278.77 345.27 287.01 336.66 295.59 329.26" stroke-dasharray="20 20" transform="rotate(80.80000000000001, 320, 400)" opacity="0.86"></path><path d="M295.85 340.18C303 334.36 309.98 331.21 316.58 330.77 323.29 331.59 329.81 335 335.96 340.32 342.46 346.48 348.81 353.9 354.7 361.75 361 369.83 366.82 377.92 371.61 385.36 378.02 395.82 381.13 410.39 377.76 415.73 374.62 419.99 369.86 424.46 363.82 429.32 357.67 435.67 350.42 442.6 342.42 449.39 334.42 456.69 326.44 461.96 318.82 464.72 311.13 466.47 303.68 465.38 296.76 461.87 289.67 457.44 283.03 451.21 277.21 444 271.24 436.52 266.15 428.57 262.4 420.76 258.73 412.94 256.91 405.98 256.8 399.88 256.95 393.5 258.8 387.49 262.09 381.73 265.6 375.17 270.42 368.37 276.18 361.52 282.03 353.86 288.69 346.45 295.85 340.18" stroke-dasharray="20 12" transform="rotate(84.84, 320, 400)" opacity="0.43"></path><path d="M297.68 351.1C309.18 342.07 320.96 341.41 331.4 347.44 342.62 355.62 353.32 367.67 360.69 379.48 368.31 391.28 369.9 400.51 366 407.74 361.45 417.33 351.91 428.26 339.2 438.47 326.48 449.96 313.22 454.22 301.7 451 289.89 445.7 279.49 435 273.32 422.47 267.36 409.94 267.29 397.99 271.9 387.12 276.99 374.5 286.17 361.27 297.68 351.1" stroke-dasharray="12 3" transform="rotate(88.88, 320, 400)" opacity="0.74"></path><path d="M300.96 362.02C309.65 354.91 318.98 353.41 327.36 356.64 336.13 360.97 344.32 368.67 349.77 377.5 355.36 386.32 356.58 394.63 353.88 401.97 350.89 410.56 344.16 419.75 334.72 427.55 325.29 436.07 315.08 439.72 306.09 438.29 297.01 435.95 289.01 429.27 284.24 419.91 279.59 410.54 279.25 400.34 282.38 390.68 285.72 380.29 292.26 369.8 300.96 362.02" stroke-dasharray="11 12" transform="rotate(92.92, 320, 400)" opacity="0.18"></path><path d="M305.48 372.95C317.21 363.62 331.83 367.99 338.84 379.81 346.11 391.61 341.71 406.71 329.29 416.63 316.86 427.79 301.69 425.93 295.16 413.55 288.85 401.16 293.74 383.45 305.48 372.95" stroke-dasharray="17 17" transform="rotate(96.96, 320, 400)" opacity="0.70"></path></g></svg>