<svg xmlns="http://www.w3.org/2000/svg" version="1.1" xmlns:xlink="http://www.w3.org/1999/xlink" xmlns:svgjs="http://svgjs.dev/svgjs" viewBox="0 0 800 800"><defs><filter id="llleaves-blur-2" x="-100%" y="-100%" width="400%" height="400%"><feGaussianBlur in="SourceGraphic" stdDeviation="2"></feGaussianBlur></filter><filter id="llleaves-blur-3" x="-100%" y="-100%" width="400%" height="400%"><feGaussianBlur in="SourceGraphic" stdDeviation="4"></feGaussianBlur></filter><filter id="llleaves-blur-4" x="-100%" y="-100%" width="400%" height="400%"><feGaussianBlur in="SourceGraphic" stdDeviation="12"></feGaussianBlur></filter></defs><g fill="hsl(353, 98%, 41%)"><path d="M91 269H141C169 269 191 291 191 319H141C113 319 91 297 91 269Z " transform="matrix(-0.1719408208340221,-0.44792115212918654,0.44792115212918654,-0.1719408208340221,33.55483701161627,407.70748377541776)" opacity="0.74"></path><path d="M642 19H692C720 19 742 41 742 69H692C664 69 642 47 642 19Z " transform="matrix(-0.3782238179840355,-0.15281234170105315,0.15281234170105315,-0.3782238179840355,947.0071390101061,166.3879884484263)" opacity="0.63"></path><path d="M280 204H330C358 204 380 226 380 254H330C302 254 280 232 280 204Z " transform="matrix(-0.27475262891886904,-0.3646090534333793,0.3646090534333793,-0.27475262891886904,337.1728943069829,412.2393396554362)" opacity="0.70"></path><path d="M294 18H344C372 18 394 40 394 68H344C316 68 294 46 294 18Z " transform="matrix(0.15729799034400882,-0.5144985435989943,0.5144985435989943,0.15729799034400882,267.7660539469042,213.22368541326168)" opacity="0.83"></path><path d="M638 222H688C716 222 738 244 738 272H688C660 272 638 250 638 222Z " transform="matrix(-0.09182752401782139,0.2522940487233913,-0.2522940487233913,-0.09182752401782139,813.4939665589387,96.10309291070868)" filter="url(#llleaves-blur-3)" opacity="0.41"></path><path d="M567 15H617C645 15 667 37 667 65H617C589 65 567 43 567 15Z " transform="matrix(-0.32205515652165495,-0.3003212920248691,0.3003212920248691,-0.32205515652165495,803.6951798928663,238.18044344021044)" opacity="0.68"></path><path d="M461 241H511C539 241 561 263 561 291H511C483 291 461 269 461 241Z " transform="matrix(-0.25418502499032036,0.19154215505693578,-0.19154215505693578,-0.25418502499032036,691.8387610151987,235.73517541333104)" filter="url(#llleaves-blur-2)" opacity="0.49"></path><path d="M573 412H623C651 412 673 434 673 462H623C595 462 573 440 573 412Z " transform="matrix(-0.11644995633437012,0.2497277372520927,-0.2497277372520927,-0.11644995633437012,804.6793439754771,332.30825061006595)" filter="url(#llleaves-blur-3)" opacity="0.42"></path><path d="M1 566H51C79 566 101 588 101 616H51C23 616 1 594 1 566Z " transform="matrix(-0.3639159269426686,-0.21010695838274196,0.21010695838274196,-0.3639159269426686,-54.61350013012439,816.7897677006371)" opacity="0.64"></path><path d="M537 573H587C615 573 637 595 637 623H587C559 623 537 601 537 573Z " transform="matrix(-0.14157762395844758,0.24521963791091209,-0.24521963791091209,-0.14157762395844758,816.747408734334,538.7194916734462)" filter="url(#llleaves-blur-3)" opacity="0.43"></path><path d="M0 388H50C78 388 100 410 100 438H50C22 438 0 416 0 388Z " transform="matrix(-0.38087647494299065,-0.13862769981148562,0.13862769981148562,-0.38087647494299065,11.790583725005973,577.2333691420295)" opacity="0.62"></path><path d="M-1 21H49C77 21 99 43 99 71H49C21 71 -1 49 -1 21Z " transform="matrix(-0.37091717521617484,-0.188991740427225,0.188991740427225,-0.37091717521617484,58.48132152594022,72.32278534087807)" opacity="0.64"></path><path d="M601 737H651C679 737 701 759 701 787H651C623 787 601 765 601 737Z " transform="matrix(-0.10140429358400743,0.2509844339297432,-0.2509844339297432,-0.10140429358400743,908.2643337776531,675.8792052227509)" filter="url(#llleaves-blur-3)" opacity="0.41"></path><path d="M2 112H52C80 112 102 134 102 162H52C24 162 2 140 2 112Z " transform="matrix(-0.354500199276141,-0.23911340363409445,0.23911340363409445,-0.354500199276141,37.6754740644884,198.00042428980422)" opacity="0.66"></path><path d="M200 119H250C278 119 300 141 300 169H250C222 169 200 147 200 119Z " transform="matrix(0.02702272854969096,-0.5156243771320276,0.5156243771320276,0.02702272854969096,168.99440755556532,269.0148213718514)" opacity="0.79"></path><path d="M107 730H157C185 730 207 752 207 780H157C129 780 107 758 107 730Z " transform="matrix(-0.13433641398308233,-0.46848675045839366,0.46848675045839366,-0.13433641398308233,-175.61667960074334,929.9764123791949)" opacity="0.75"></path><path d="M687 426H737C765 426 787 448 787 476H737C709 476 687 454 687 426Z " transform="matrix(-0.10153663255513928,0.2513119843773863,-0.2513119843773863,-0.10153663255513928,925.1742031473389,311.5760887962341)" filter="url(#llleaves-blur-3)" opacity="0.41"></path><path d="M631 106H681C709 106 731 128 731 156H681C653 156 631 134 631 106Z " transform="matrix(-0.3236216835362551,0.11778865997031364,-0.11778865997031364,-0.3236216835362551,916.816680944301,93.18036310346584)" filter="url(#llleaves-blur-2)" opacity="0.53"></path><path d="M414 554H464C492 554 514 576 514 604H464C436 604 414 582 414 554Z " transform="matrix(-0.33944346934187397,0.09095360348617379,-0.09095360348617379,-0.33944346934187397,674.163906193124,733.3352967313604)" filter="url(#llleaves-blur-2)" opacity="0.54"></path><path d="M284 111H334C362 111 384 133 384 161H334C306 161 284 139 284 111Z " transform="matrix(-0.18661672989606956,-0.4396414646279476,0.4396414646279476,-0.18661672989606956,336.5387485958863,308.2201244516)" opacity="0.73"></path><path d="M712 619H762C790 619 812 641 812 669H762C734 669 712 647 712 619Z " transform="matrix(-0.11132286202116037,0.25003524187579135,-0.25003524187579135,-0.11132286202116037,1007.8507166281338,525.1650688322743)" filter="url(#llleaves-blur-3)" opacity="0.42"></path><path d="M102 545H152C180 545 202 567 202 595H152C124 595 102 573 102 545Z " transform="matrix(-0.13433641398308233,-0.46848675045839366,0.46848675045839366,-0.13433641398308233,-94.61831283585587,717.7817420400328)" opacity="0.75"></path><path d="M309 397H359C387 397 409 419 409 447H359C331 447 309 425 309 397Z " transform="matrix(-0.3448210652706252,-0.25984131029543944,0.25984131029543944,-0.3448210652706252,373.137729487479,660.7975199402666)" opacity="0.66"></path><path d="M205 551H255C283 551 305 573 305 601H255C227 601 205 579 205 551Z " transform="matrix(-0.1188924061428162,-0.476851395699807,0.476851395699807,-0.1188924061428162,10.651159643329265,766.079131841713)" opacity="0.75"></path><path d="M630 653H680C708 653 730 675 730 703H680C652 703 630 681 630 653Z " transform="matrix(-0.0964868782808074,0.2513569114957732,-0.2513569114957732,-0.0964868782808074,916.0310632250832,572.4954036572616)" filter="url(#llleaves-blur-3)" opacity="0.41"></path><path d="M188 293H238C266 293 288 315 288 343H238C210 343 188 321 188 293Z " transform="matrix(-0.09462131675425944,-0.4867844751045225,0.4867844751045225,-0.09462131675425944,105.7224103042756,463.94428380273087)" opacity="0.76"></path><path d="M447 97H497C525 97 547 119 547 147H497C469 147 447 125 447 97Z " transform="matrix(-0.3841727281521949,-0.1101597571320147,0.1101597571320147,-0.3841727281521949,674.494355521535,223.6184721291791)" filter="url(#llleaves-blur-2)" opacity="0.61"></path><path d="M380 466H430C458 466 480 488 480 516H430C402 516 380 494 380 466Z " transform="matrix(-0.37709922645102073,-0.013168595162412446,0.013168595162412446,-0.37709922645102073,585.6868871491944,681.8182161072885)" filter="url(#llleaves-blur-2)" opacity="0.58"></path><path d="M402 728H452C480 728 502 750 502 778H452C424 778 402 756 402 728Z " transform="matrix(-0.33944346934187397,0.09095360348617379,-0.09095360348617379,-0.33944346934187397,673.916511567616,967.4899036386805)" filter="url(#llleaves-blur-2)" opacity="0.54"></path><path d="M180 205H230C258 205 280 227 280 255H230C202 255 180 233 180 205Z " transform="matrix(-0.07795508221339392,-0.4921890184014328,0.4921890184014328,-0.07795508221339392,134.72619467675105,361.1331431414102)" opacity="0.77"></path><path d="M703 726H753C781 726 803 748 803 776H753C725 776 703 754 703 726Z " transform="matrix(-0.11132286202116037,0.25003524187579135,-0.25003524187579135,-0.11132286202116037,1024.602581750653,646.3269322454206)" filter="url(#llleaves-blur-3)" opacity="0.42"></path><path d="M-6 481H44C72 481 94 503 94 531H44C16 531 -6 509 -6 481Z " transform="matrix(-0.38087647494299065,-0.13862769981148562,0.13862769981148562,-0.38087647494299065,-9.38705120712013,704.8231151128587)" opacity="0.62"></path><path d="M712 350H762C790 350 812 372 812 400H762C734 400 712 378 712 350Z " transform="matrix(-0.11132286202116037,0.25003524187579135,-0.25003524187579135,-0.11132286202116037,940.591236563546,226.21921894858215)" filter="url(#llleaves-blur-3)" opacity="0.42"></path><path d="M555 251H605C633 251 655 273 655 301H605C577 301 555 279 555 251Z " transform="matrix(-0.126649332865588,0.2485633111972218,-0.2485633111972218,-0.126649332865588,750.226320274114,160.5744125965831)" filter="url(#llleaves-blur-3)" opacity="0.43"></path><path d="M454 320H504C532 320 554 342 554 370H504C476 370 454 348 454 320Z " transform="matrix(-0.25418502499032036,0.19154215505693578,-0.19154215505693578,-0.25418502499032036,698.1912960897644,336.1565874729649)" filter="url(#llleaves-blur-2)" opacity="0.49"></path><path d="M579 166H629C657 166 679 188 679 216H629C601 216 579 194 579 166Z " transform="matrix(-0.11644995633437012,0.2497277372520927,-0.2497277372520927,-0.11644995633437012,749.9450203494686,56.16319492829837)" filter="url(#llleaves-blur-3)" opacity="0.42"></path><path d="M85 179H135C163 179 185 201 185 229H135C107 229 85 207 85 179Z " transform="matrix(-0.1719408208340221,-0.44792115212918654,0.44792115212918654,-0.1719408208340221,66.83609577823894,299.5452829875807)" opacity="0.74"></path><path d="M312 553H362C390 553 412 575 412 603H362C334 603 312 581 312 553Z " transform="matrix(-0.3448210652706252,-0.25984131029543944,0.25984131029543944,-0.3448210652706252,336.63694827720235,871.3691300533704)" opacity="0.66"></path><path d="M600 489H650C678 489 700 511 700 539H650C622 539 600 517 600 489Z " transform="matrix(-0.10140429358400743,0.2509844339297432,-0.2509844339297432,-0.10140429358400743,844.9187898694928,402.98192484784676)" filter="url(#llleaves-blur-3)" opacity="0.41"></path><path d="M110 97H160C188 97 210 119 210 147H160C132 147 110 125 110 97Z " transform="matrix(-0.008915505743689373,-0.5107689819747799,0.5107689819747799,-0.008915505743689373,99.11266511806716,204.81072881669485)" opacity="0.78"></path><path d="M-12 653H38C66 653 88 675 88 703H38C10 703 -12 681 -12 653Z " transform="matrix(-0.38087647494299065,-0.13862769981148562,0.13862769981148562,-0.38087647494299065,-41.51627442435361,941.5021026041843)" opacity="0.62"></path><path d="M207 729H257C285 729 307 751 307 779H257C229 779 207 757 207 729Z " transform="matrix(-0.1188924061428162,-0.476851395699807,0.476851395699807,-0.1188924061428162,-71.99060397895067,966.1956829265339)" opacity="0.75"></path><path d="M368 262H418C446 262 468 284 468 312H418C390 312 368 290 368 262Z " transform="matrix(-0.37709922645102073,-0.013168595162412446,0.013168595162412446,-0.37709922645102073,571.8480898449144,400.7319507693313)" filter="url(#llleaves-blur-2)" opacity="0.58"></path><path d="M73 641H123C151 641 173 663 173 691H123C95 691 73 669 73 641Z " transform="matrix(-0.21361470576270586,-0.419242465660278,0.419242465660278,-0.21361470576270586,-129.94087332093233,859.8342173141763)" opacity="0.72"></path><path d="M108 363H158C186 363 208 385 208 413H158C130 413 108 391 108 363Z " transform="matrix(-0.13433641398308233,-0.46848675045839366,0.46848675045839366,-0.13433641398308233,-2.5477057685297666,514.1434351978621)" opacity="0.75"></path></g><g fill="none" stroke-width="3" stroke="hsl(353, 98%, 41%)"><path d="M356 641H406C434 641 456 663 456 691H406C378 691 356 669 356 641Z " transform="matrix(-0.3849983377939498,-0.06788559448098493,0.06788559448098493,-0.3849983377939498,517.0975192200077,949.9704443300504)" filter="url(#llleaves-blur-2)" opacity="0.60"></path><path d="M167 458H217C245 458 267 480 267 508H217C189 508 167 486 167 458Z " transform="matrix(-0.07795508221339392,-0.4921890184014328,0.4921890184014328,-0.07795508221339392,-3.811043047585599,627.4573217021801)" opacity="0.77"></path><path d="M267 474H317C345 474 367 496 367 524H317C289 524 267 502 267 474Z " transform="matrix(-0.27475262891886904,-0.3646090534333793,0.3646090534333793,-0.27475262891886904,222.15666570402522,751.682631768897)" opacity="0.70"></path><path d="M258 639H308C336 639 358 661 358 689H308C280 689 258 667 258 639Z " transform="matrix(-0.22662242566473223,-0.40883767831462553,0.40883767831462553,-0.22662242566473223,106.33148870382615,940.3992955622869)" opacity="0.72"></path><path d="M0 302H50C78 302 100 324 100 352H50C22 352 0 330 0 302Z " transform="matrix(-0.38087647494299065,-0.13862769981148562,0.13862769981148562,-0.38087647494299065,23.71256590879373,458.4779922969322)" opacity="0.62"></path><path d="M217 380H267C295 380 317 402 317 430H267C239 430 217 408 217 380Z " transform="matrix(-0.14990735446701264,-0.4613673969446198,0.4613673969446198,-0.14990735446701264,120.17146788012136,588.8975735433537)" opacity="0.75"></path><path d="M709 262H759C787 262 809 284 809 312H759C731 312 709 290 709 262Z " transform="matrix(-0.11132286202116037,0.25003524187579135,-0.25003524187579135,-0.11132286202116037,915.2541666924128,129.1729128163474)" filter="url(#llleaves-blur-3)" opacity="0.42"></path><path d="M96 16H146C174 16 196 38 196 66H146C118 66 96 44 96 16Z " transform="matrix(0.027061990321795123,-0.5163735363721496,0.5163735363721496,0.027061990321795123,120.87763442175978,115.28099470714025)" opacity="0.79"></path><path d="M392 13H442C470 13 492 35 492 63H442C414 63 392 41 392 13Z " transform="matrix(-0.06118504558615704,-0.4983122074650821,0.4983122074650821,-0.06118504558615704,450.1079262654083,260.57902743184025)" opacity="0.77"></path><path d="M482 16H532C560 16 582 38 582 66H532C504 66 482 44 482 16Z " transform="matrix(-0.2001558031489836,-0.4292355050331436,0.4292355050331436,-0.2001558031489836,620.8842315689004,277.5596766067407)" opacity="0.73"></path><path d="M305 730H355C383 730 405 752 405 780H355C327 780 305 758 305 730Z " transform="matrix(-0.3448210652706252,-0.25984131029543944,0.25984131029543944,-0.3448210652706252,281.23128889801524,1107.583569434203)" opacity="0.66"></path><path d="M162 638H212C240 638 262 660 262 688H212C184 688 162 666 162 638Z " transform="matrix(-0.07800833336630869,-0.4925252329488067,0.4925252329488067,-0.07800833336630869,-98.0064627714014,819.1348744070096)" opacity="0.77"></path><path d="M384 174H434C462 174 484 196 484 224H434C406 224 384 202 384 174Z " transform="matrix(-0.36137783243828436,0.0443716184759782,-0.0443716184759782,-0.36137783243828436,599.667931354935,251.65690623664406)" filter="url(#llleaves-blur-2)" opacity="0.56"></path><path d="M283 301H333C361 301 383 323 383 351H333C305 351 283 329 283 301Z " transform="matrix(-0.30881925087899037,-0.3197916957672893,0.3197916957672893,-0.30881925087899037,331.58471772256746,533.1657104770582)" opacity="0.68"></path><path d="M380 357H430C458 357 480 379 480 407H430C402 407 380 385 380 357Z " transform="matrix(-0.37709922645102073,-0.013168595162412446,0.013168595162412446,-0.37709922645102073,587.1222640218973,531.7144004241272)" filter="url(#llleaves-blur-2)" opacity="0.58"></path><path d="M538 90H588C616 90 638 112 638 140H588C560 140 538 118 538 90Z " transform="matrix(-0.381925429078227,-0.03341414535661907,0.03341414535661907,-0.381925429078227,808.7295255819862,178.56894181368813)" filter="url(#llleaves-blur-2)" opacity="0.59"></path><path d="M628 326H678C706 326 728 348 728 376H678C650 376 628 354 628 326Z " transform="matrix(-0.0964868782808074,0.2513569114957732,-0.2513569114957732,-0.0964868782808074,831.6443794094039,214.44690828242918)" filter="url(#llleaves-blur-3)" opacity="0.41"></path><path d="M543 661H593C621 661 643 683 643 711H593C565 711 543 689 543 661Z " transform="matrix(-0.14157762395844758,0.24521963791091209,-0.24521963791091209,-0.14157762395844758,845.1762026142451,637.7070047543242)" filter="url(#llleaves-blur-3)" opacity="0.43"></path><path d="M-5 208H45C73 208 95 230 95 258H45C17 258 -5 236 -5 208Z " transform="matrix(-0.38087647494299065,-0.13862769981148562,0.13862769981148562,-0.38087647494299065,29.83918731635843,327.9824651532337)" opacity="0.62"></path><path d="M4 735H54C82 735 104 757 104 785H54C26 785 4 763 4 735Z " transform="matrix(-0.3639159269426686,-0.21010695838274196,0.21010695838274196,-0.3639159269426686,-86.02982831597976,1047.9218802290961)" opacity="0.64"></path><path d="M492 169H542C570 169 592 191 592 219H542C514 219 492 197 492 169Z " transform="matrix(-0.20151153694599624,0.2238012348146887,-0.2238012348146887,-0.20151153694599624,694.6366925787795,111.79296889796201)" filter="url(#llleaves-blur-2)" opacity="0.46"></path><path d="M493 495H543C571 495 593 517 593 545H543C515 545 493 523 493 495Z " transform="matrix(-0.20151153694599624,0.2238012348146887,-0.2238012348146887,-0.20151153694599624,768.797406665314,503.2619287075421)" filter="url(#llleaves-blur-2)" opacity="0.46"></path><path d="M496 734H546C574 734 596 756 596 784H546C518 784 496 762 496 734Z " transform="matrix(-0.20151153694599624,0.2238012348146887,-0.2238012348146887,-0.20151153694599624,825.8904363968627,789.7517823331912)" filter="url(#llleaves-blur-2)" opacity="0.46"></path><path d="M536 335H586C614 335 636 357 636 385H586C558 385 536 363 536 335Z " transform="matrix(-0.14157762395844758,0.24521963791091209,-0.24521963791091209,-0.14157762395844758,757.2435572875787,267.26923680924665)" filter="url(#llleaves-blur-3)" opacity="0.43"></path><path d="M714 13H764C792 13 814 35 814 63H764C736 63 714 41 714 13Z " transform="matrix(-0.36399753773949006,0.038257682842698405,-0.038257682842698405,-0.36399753773949006,1043.5479107809929,22.603036742279038)" filter="url(#llleaves-blur-2)" opacity="0.56"></path><path d="M198 22H248C276 22 298 44 298 72H248C220 72 198 50 198 22Z " transform="matrix(0.2514664185335236,-0.4935306347956486,0.4935306347956486,0.2514664185335236,162.44038836829066,157.57667575824524)" opacity="0.85"></path><path d="M77 452H127C155 452 177 474 177 502H127C99 502 77 480 77 452Z " transform="matrix(-0.21361470576270586,-0.419242465660278,0.419242465660278,-0.21361470576270586,-45.849588488088955,632.138007787666)" opacity="0.72"></path><path d="M362 90H412C440 90 462 112 462 140H412C384 140 362 118 362 90Z " transform="matrix(-0.25170976517109533,-0.3875990484369659,0.3875990484369659,-0.25170976517109533,471.13053268024015,303.63743095070595)" opacity="0.71"></path><path d="M635 567H685C713 567 735 589 735 617H685C657 617 635 595 635 567Z " transform="matrix(-0.09182752401782139,0.2522940487233913,-0.2522940487233913,-0.09182752401782139,897.2599307964553,473.54047084302726)" filter="url(#llleaves-blur-3)" opacity="0.41"></path><path d="M708 512H758C786 512 808 534 808 562H758C730 562 708 540 708 512Z " transform="matrix(-0.11132286202116037,0.25003524187579135,-0.25003524187579135,-0.11132286202116037,976.6516542993395,407.2536635635132)" filter="url(#llleaves-blur-3)" opacity="0.42"></path><path d="M454 637H504C532 637 554 659 554 687H504C476 687 454 665 454 637Z " transform="matrix(-0.25418502499032036,0.19154215505693578,-0.19154215505693578,-0.25418502499032036,758.9101592428129,733.7332403948965)" filter="url(#llleaves-blur-2)" opacity="0.49"></path><path d="M711 90H761C789 90 811 112 811 140H761C733 140 711 118 711 90Z " transform="matrix(-0.30586900644783716,0.14262906009888715,-0.14262906009888715,-0.30586900644783716,1010.1686558181761,41.63422100624818)" filter="url(#llleaves-blur-2)" opacity="0.52"></path><path d="M466 412H516C544 412 566 434 566 462H516C488 462 466 440 466 412Z " transform="matrix(-0.25418502499032036,0.19154215505693578,-0.19154215505693578,-0.25418502499032036,730.8633946548864,449.24310391139113)" filter="url(#llleaves-blur-2)" opacity="0.49"></path><path d="M707 172H757C785 172 807 194 807 222H757C729 222 707 200 707 172Z " transform="matrix(-0.11132286202116037,0.25003524187579135,-0.25003524187579135,-0.11132286202116037,890.5283491995493,29.65392571819453)" filter="url(#llleaves-blur-3)" opacity="0.42"></path></g></svg>