<svg xmlns="http://www.w3.org/2000/svg" version="1.1" xmlns:xlink="http://www.w3.org/1999/xlink" xmlns:svgjs="http://svgjs.dev/svgjs" viewBox="0 0 800 800"><defs><filter id="bbburst-blur-1" x="-100%" y="-100%" width="400%" height="400%"><feGaussianBlur in="SourceGraphic" stdDeviation="1"></feGaussianBlur></filter><filter id="bbburst-blur-2" x="-100%" y="-100%" width="400%" height="400%"><feGaussianBlur in="SourceGraphic" stdDeviation="2"></feGaussianBlur></filter><filter id="bbburst-blur-3" x="-100%" y="-100%" width="400%" height="400%"><feGaussianBlur in="SourceGraphic" stdDeviation="4"></feGaussianBlur></filter><filter id="bbburst-blur-4" x="-100%" y="-100%" width="400%" height="400%"><feGaussianBlur in="SourceGraphic" stdDeviation="12"></feGaussianBlur></filter><symbol id="bbburst-shape-1" viewBox="0 0 194 167"><path d="m97 0 96.129 166.5H.871L97 0Z"></path></symbol><symbol id="bbburst-shape-4" viewBox="0 0 149 143"><path d="M71.647 2.781c.898-2.764 4.808-2.764 5.706 0l15.445 47.534a3 3 0 0 0 2.853 2.073h49.98c2.906 0 4.115 3.719 1.764 5.427L106.96 87.193a2.999 2.999 0 0 0-1.09 3.354l15.445 47.534c.898 2.764-2.266 5.062-4.617 3.354l-40.435-29.378a3 3 0 0 0-3.526 0l-40.435 29.378c-2.351 1.708-5.515-.59-4.617-3.354L43.13 90.547a3 3 0 0 0-1.09-3.354L1.605 57.815c-2.35-1.708-1.142-5.427 1.764-5.427h49.98a3 3 0 0 0 2.853-2.073L71.647 2.781Z"></path></symbol><symbol id="bbburst-shape-6" viewBox="0 0 133 116"><path d="M59.7487 10.2513c-13.6683-13.66839-35.8291-13.66839-49.4974 0-13.66839 13.6683-13.66839 35.8291 0 49.4974l49.4974-49.4974ZM66.5 66.5 41.7513 91.2487 66.5 115.997l24.7487-24.7483L66.5 66.5Zm56.249-6.7513c13.668-13.6683 13.668-35.8291 0-49.4974-13.669-13.66839-35.8294-13.66839-49.4977 0l49.4977 49.4974Zm-112.4977 0 31.5 31.5 49.4974-49.4974-31.5-31.5-49.4974 49.4974Zm80.9974 31.5 31.5003-31.5-49.4977-49.4974-31.5 31.5 49.4974 49.4974Z"></path></symbol><symbol id="bbburst-shape-7" viewBox="0 0 139 124"><path fill-rule="evenodd" clip-rule="evenodd" d="M70.1641 15.0917C54.6093.764854 37.8293-2.10782 24.4032 2.82615 10.3804 7.97941.763366 21.4591 1.00047 37.0608c.1068 7.0273 2.86132 13.7317 7.0039 20.2001C12.1442 63.7249 17.853 70.2322 24.25 76.9024c3.8209 3.9842 7.8871 8.0312 12.0767 12.201h.0001c10.0335 9.9862 20.7748 20.6766 30.5497 32.8956 1.38 1.725 3.8972 2.005 5.6223.624.6706-.536 1.1228-1.244 1.3439-2.011 9.5768-11.748 20.0328-22.0735 29.8163-31.7351 4.19-4.1373 8.256-8.1528 12.078-12.1062 6.396-6.6176 12.106-13.0752 16.247-19.4911 4.144-6.4196 6.905-13.0811 7.012-20.0691.237-15.5124-9.399-28.8902-23.411-33.99923-13.32-4.85681-29.9542-2.08621-45.4209 11.88043Zm-3.7351 7.4919C52.1278 8.44857 37.6826 6.46918 27.1626 10.3352 16.2859 14.3323 8.8148 24.7824 8.99955 36.9392c.07575 4.9844 2.03755 10.2234 5.74165 16.0072 3.707 5.7881 8.9752 11.8418 15.2827 18.4187 3.5798 3.7328 7.4978 7.6329 11.6 11.7163 9.0476 9.0063 18.9911 18.9046 28.1786 29.8666 9.2999-11.068 19.4036-21.0473 28.5839-30.1144l.0007-.0006c4.1019-4.0508 8.0189-7.9196 11.5979-11.6222 6.307-6.5252 11.573-12.5298 15.278-18.2697 3.703-5.7362 5.658-10.924 5.734-15.8531.184-12.0276-7.267-22.3914-18.153-26.3608-10.71-3.90518-25.4722-1.80041-40.0023 12.867-1.5547 1.5694-4.0874 1.5813-5.6568.0265-.3146-.3116-.5666-.6625-.7559-1.0371Z"></path></symbol><symbol id="bbburst-shape-8" viewBox="0 0 87 168"><path d="m12 12 31.2546 18.0749c16.4102 9.4902 20.014 31.6325 7.4603 45.8369L36.3296 92.1884c-12.5684 14.2206-8.9394 36.3916 7.5068 45.8636L75 156" stroke-width="14" stroke-linecap="round" stroke-linejoin="round"></path></symbol><symbol id="bbburst-shape-10" viewBox="0 0 145 145"><circle cx="72.5" cy="72.5" r="61.5" fill="none" stroke-width="22"></circle></symbol><symbol id="bbburst-shape-12" viewBox="0 0 170 151"><path d="M69.3728 54.2122 85 10.0031l15.627 44.2091c1.413 3.9958 5.19 6.6672 9.428 6.6673h49.312l-39.149 26.1447c-3.803 2.5401-5.399 7.3367-3.875 11.6488l15.179 42.94-40.9683-27.36c-3.3621-2.245-7.7453-2.245-11.1074 0l-40.9682 27.36 15.1785-42.94c1.5243-4.3121-.0712-9.1087-3.8746-11.6488L10.6333 60.8795h49.3112c4.2381-.0001 8.0159-2.6715 9.4283-6.6673Z" stroke-width="12"></path></symbol><symbol id="bbburst-shape-14" viewBox="0 0 185 109"><path d="M168 16.5C168 58.1975 134.197 92 92.5 92 50.8025 92 17 58.1975 17 16.5" stroke-width="33" stroke-linecap="round"></path></symbol></defs><use xlink:href="#bbburst-shape-7" width="32.35013122895177" opacity="0.4645932957807035" transform="matrix(0.7305653258694634,-0.6828428110753197,0.6828428110753197,0.7305653258694634,-121.29402136592321,166.17256309742987)" fill="#7ca4dc" filter="url(#bbburst-blur-2)"></use><use xlink:href="#bbburst-shape-8" width="37.948915028301826" opacity="0.315785691887853" transform="matrix(1.0018584395139691,-0.7475156634978528,0.7475156634978528,1.0018584395139691,344.3900676387474,-147.628868213847)" fill="none" stroke="#7ca4dc" filter="url(#bbburst-blur-3)"></use><use xlink:href="#bbburst-shape-7" width="37.17132203153898" opacity="0.2872061603342798" transform="matrix(1.0005080413216014,0.7493221331649109,-0.7493221331649109,1.0005080413216014,802.6907996969035,-311.02283603087744)" fill="#7ca4dc" filter="url(#bbburst-blur-3)"></use><use xlink:href="#bbburst-shape-7" width="40.70841562802212" opacity="0.08799495289405046" transform="matrix(1.7017554963428245,0.4080787064611273,-0.4080787064611273,1.7017554963428245,883.5381682539722,-83.48927076573591)" fill="#7ca4dc" filter="url(#bbburst-blur-4)"></use><use xlink:href="#bbburst-shape-8" width="40.27057192393256" opacity="0.1957603608001428" transform="matrix(1.2333081463614801,0.2035952261680261,-0.2035952261680261,1.2333081463614801,723.4966941613326,147.00752452463962)" fill="none" stroke="#7ca4dc" filter="url(#bbburst-blur-3)"></use><use xlink:href="#bbburst-shape-10" width="30.864244362329355" opacity="0.2383802350759936" transform="matrix(1.0435089197807725,-0.6881781268959114,0.6881781268959114,1.0435089197807725,258.8061274653053,301.28916572040384)" fill="none" stroke="#7ca4dc" filter="url(#bbburst-blur-3)"></use><use xlink:href="#bbburst-shape-6" width="36.034844606150294" opacity="0.36116042637809354" transform="matrix(0.9408187047820107,-0.33891026058869894,0.33891026058869894,0.9408187047820107,-39.944397086122436,24.49935863137938)" fill="#7ca4dc" filter="url(#bbburst-blur-2)"></use><use xlink:href="#bbburst-shape-4" width="37.43675074017327" opacity="0.5060728276815536" transform="matrix(0.9872129987659368,0.1594066970599619,-0.1594066970599619,0.9872129987659368,632.897669914601,-117.00613296622168)" fill="#7ca4dc" filter="url(#bbburst-blur-2)"></use><use xlink:href="#bbburst-shape-12" width="18.345325260009144" opacity="0.7956607902768161" transform="matrix(0.8901750764337008,-0.4556186270295093,0.4556186270295093,0.8901750764337008,126.60611232598973,87.72718612850673)" fill="none" stroke="#7ca4dc"></use><use xlink:href="#bbburst-shape-6" width="32.425791636247844" opacity="0.07703537005264893" transform="matrix(1.7439282313522526,-0.1456513779289565,0.1456513779289565,1.7439282313522526,527.2571452404953,-651.2927454934733)" fill="#7ca4dc" filter="url(#bbburst-blur-4)"></use><use xlink:href="#bbburst-shape-1" width="14.774781215450059" opacity="0.8897094143349118" transform="matrix(0.8455735375586254,-0.5338589631921449,0.5338589631921449,0.8455735375586254,142.48941220222477,97.97359497951527)" fill="#7ca4dc"></use><use xlink:href="#bbburst-shape-1" width="17.111329985856656" opacity="0.7756136321361999" transform="matrix(0.9923851211178594,-0.12317374470191156,0.12317374470191156,0.9923851211178594,241.41389511193663,-1.2884573754546977)" fill="#7ca4dc" filter="url(#bbburst-blur-1)"></use><use xlink:href="#bbburst-shape-4" width="16.345415539767956" opacity="0.815335894916801" transform="matrix(0.7942330082027509,0.6076133052206881,-0.6076133052206881,0.7942330082027509,628.2416237974998,-5.330216226342657)" fill="#7ca4dc"></use><use xlink:href="#bbburst-shape-8" width="26.84694704371153" opacity="0.40993875952682923" transform="matrix(0.771387362837674,0.6363658825348344,-0.6363658825348344,0.771387362837674,460.2227424813703,-108.56601228569525)" fill="none" stroke="#7ca4dc" filter="url(#bbburst-blur-2)"></use><use xlink:href="#bbburst-shape-10" width="9.909658173701427" opacity="0.935648207183902" transform="matrix(0.9656566839377583,0.2598214170662848,-0.2598214170662848,0.9656566839377583,470.22090347911177,13.879535724893515)" fill="none" stroke="#7ca4dc"></use><use xlink:href="#bbburst-shape-4" width="22.214298376837615" opacity="0.5862797063707373" transform="matrix(0.9540600455709823,-0.29961546930206245,0.29961546930206245,0.9540600455709823,436.8217763418675,103.48669604107027)" fill="#7ca4dc" filter="url(#bbburst-blur-1)"></use><use xlink:href="#bbburst-shape-6" width="39.28671391918426" opacity="0.10861743391400647" transform="matrix(1.4874346429473806,0.9219751531142252,-0.9219751531142252,1.4874346429473806,1041.5594135690985,-477.09572572571165)" fill="#7ca4dc" filter="url(#bbburst-blur-4)"></use><use xlink:href="#bbburst-shape-4" width="21.456605291829216" opacity="0.6187975740705247" transform="matrix(0.7846847899331123,0.6198949753366512,-0.6198949753366512,0.7846847899331123,761.870985020188,-40.7522794862827)" fill="#7ca4dc" filter="url(#bbburst-blur-1)"></use><use xlink:href="#bbburst-shape-8" width="33.20603032088794" opacity="0.4381939225384387" transform="matrix(0.8492194059339201,0.5280401505427782,-0.5280401505427782,0.8492194059339201,842.0324015090273,-11.148234079304473)" fill="none" stroke="#7ca4dc" filter="url(#bbburst-blur-2)"></use><use xlink:href="#bbburst-shape-10" width="30.10748283687943" opacity="0.4438810605464144" transform="matrix(0.9641016112809339,-0.26553358191668935,0.26553358191668935,0.9641016112809339,229.39236510031276,263.58861500164585)" fill="none" stroke="#7ca4dc" filter="url(#bbburst-blur-2)"></use><use xlink:href="#bbburst-shape-10" width="29.334155246204176" opacity="0.4646138523606925" transform="matrix(0.9863098747970898,-0.16490248899804116,0.16490248899804116,0.9863098747970898,219.35194195813938,-211.19447104150092)" fill="none" stroke="#7ca4dc" filter="url(#bbburst-blur-2)"></use><use xlink:href="#bbburst-shape-7" width="32.1126078760144" opacity="0.23068048187224688" transform="matrix(1.0841129510011531,-0.6222532518770562,0.6222532518770562,1.0841129510011531,123.17014246130032,-369.6317784262511)" fill="#7ca4dc" filter="url(#bbburst-blur-3)"></use><use xlink:href="#bbburst-shape-10" width="45.905818304629264" opacity="0.38016426036109363" transform="matrix(0.7401470902168742,0.6724450050699271,-0.6724450050699271,0.7401470902168742,898.1270467274949,219.7165788432161)" fill="none" stroke="#7ca4dc" filter="url(#bbburst-blur-2)"></use><use xlink:href="#bbburst-shape-4" width="26.91087427574252" opacity="0.5874198082744306" transform="matrix(0.8954858817870956,-0.44508991846590695,0.44508991846590695,0.8954858817870956,174.34792499875644,-134.4039362881069)" fill="#7ca4dc" filter="url(#bbburst-blur-1)"></use><use xlink:href="#bbburst-shape-7" width="21.983656952674227" opacity="0.6756401820481541" transform="matrix(0.8065799767693116,0.5911249792343551,-0.5911249792343551,0.8065799767693116,485.25426460257086,38.199874739545635)" fill="#7ca4dc" filter="url(#bbburst-blur-1)"></use><use xlink:href="#bbburst-shape-12" width="23.442829820564288" opacity="0.5219745035020706" transform="matrix(0.8806471981720727,-0.47377263782502055,0.47377263782502055,0.8806471981720727,412.4156762533156,88.12162236369335)" fill="none" stroke="#7ca4dc" filter="url(#bbburst-blur-2)"></use><use xlink:href="#bbburst-shape-4" width="14.304819191986086" opacity="0.8987865759762238" transform="matrix(0.8462196074193686,-0.532834285701483,0.532834285701483,0.8462196074193686,223.8523336855904,80.2579768424003)" fill="#7ca4dc"></use><use xlink:href="#bbburst-shape-8" width="32.39060046124646" opacity="0.038433539786190574" transform="matrix(1.6869343786679607,-0.46556675361127453,0.46556675361127453,1.6869343786679607,-165.28245317630098,-519.2571381410221)" fill="none" stroke="#7ca4dc" filter="url(#bbburst-blur-4)"></use><use xlink:href="#bbburst-shape-4" width="46.57077488637684" opacity="0.060507629258163664" transform="matrix(1.4764255943901992,0.93950383939053,-0.93950383939053,1.4764255943901992,500.54533085990954,-559.8514921651408)" fill="#7ca4dc" filter="url(#bbburst-blur-4)"></use><use xlink:href="#bbburst-shape-7" width="41.31897352424299" opacity="-0.0705109876195773" transform="matrix(1.642796280083654,-0.6030923495977285,0.6030923495977285,1.642796280083654,469.1536052048508,92.0493447934283)" fill="#7ca4dc" filter="url(#bbburst-blur-4)"></use><use xlink:href="#bbburst-shape-14" width="27.19180903750203" opacity="0.17645790152836416" transform="matrix(0.9868509232039038,0.7672191703624218,-0.7672191703624218,0.9868509232039038,760.7739956208,359.2908860142068)" fill="none" stroke="#7ca4dc" filter="url(#bbburst-blur-3)"></use><use xlink:href="#bbburst-shape-12" width="27.663589303519576" opacity="0.6170096356970061" transform="matrix(0.998290525039542,-0.05844679303670627,0.05844679303670627,0.998290525039542,304.1966679966862,163.51464444305418)" fill="none" stroke="#7ca4dc" filter="url(#bbburst-blur-1)"></use><use xlink:href="#bbburst-shape-8" width="16.48884680706636" opacity="0.7595240083705888" transform="matrix(0.773508517881937,-0.6337859045167297,0.6337859045167297,0.773508517881937,224.75472631066822,28.402694833134433)" fill="none" stroke="#7ca4dc" filter="url(#bbburst-blur-1)"></use><use xlink:href="#bbburst-shape-6" width="42.430667869400025" opacity="0.23512703458770168" transform="matrix(1.0218410671175218,-0.7199589110165417,0.7199589110165417,1.0218410671175218,48.5238970551286,348.1817393947689)" fill="#7ca4dc" filter="url(#bbburst-blur-3)"></use><use xlink:href="#bbburst-shape-7" width="38.70048582788118" opacity="0.08665571013482543" transform="matrix(1.5598570872403579,-0.7933132214869648,0.7933132214869648,1.5598570872403579,413.2524888727601,-405.00325612111476)" fill="#7ca4dc" filter="url(#bbburst-blur-4)"></use><use xlink:href="#bbburst-shape-6" width="24.5744264407268" opacity="0.6084626300010936" transform="matrix(0.723752548172191,0.6900595981611011,-0.6900595981611011,0.723752548172191,491.5973537356662,117.23804815170172)" fill="#7ca4dc" filter="url(#bbburst-blur-1)"></use><use xlink:href="#bbburst-shape-8" width="49.699822070174996" opacity="-0.07547799078499406" transform="matrix(1.6763150568719036,0.5024617697940279,-0.5024617697940279,1.6763150568719036,216.5264617752818,58.61486078971461)" fill="none" stroke="#7ca4dc" filter="url(#bbburst-blur-4)"></use><use xlink:href="#bbburst-shape-4" width="21.579081155123045" opacity="0.6656488082808338" transform="matrix(0.9980124245495994,-0.06301746142641862,0.06301746142641862,0.9980124245495994,499.8356454357141,-63.26188537672385)" fill="#7ca4dc" filter="url(#bbburst-blur-1)"></use><use xlink:href="#bbburst-shape-6" width="14.655370860344597" opacity="0.8845108293473388" transform="matrix(0.9982448054995672,-0.05922253197163543,0.05922253197163543,0.9982448054995672,418.8746766813076,-13.459250334627313)" fill="#7ca4dc"></use><use xlink:href="#bbburst-shape-4" width="20.242953681280987" opacity="0.7066427652011786" transform="matrix(0.9679779667537629,0.25103516861039815,-0.25103516861039815,0.9679779667537629,403.3223554619841,-88.74633455920917)" fill="#7ca4dc" filter="url(#bbburst-blur-1)"></use><use xlink:href="#bbburst-shape-10" width="19.86862998644198" opacity="0.7998578617529999" transform="matrix(0.7466533053196818,0.6652133805443138,-0.6652133805443138,0.7466533053196818,668.0567967088143,184.30348847983322)" fill="none" stroke="#7ca4dc"></use><use xlink:href="#bbburst-shape-4" width="16.384708265827197" opacity="0.6982144369004084" transform="matrix(0.9986141275866426,0.05262911916770643,-0.05262911916770643,0.9986141275866426,366.47995205884354,-127.49646736583094)" fill="#7ca4dc" filter="url(#bbburst-blur-1)"></use><use xlink:href="#bbburst-shape-7" width="15.231406748389317" opacity="0.7690132944855007" transform="matrix(0.9974965383470682,0.07071531648529894,-0.07071531648529894,0.9974965383470682,475.7658107615511,88.57318143840712)" fill="#7ca4dc" filter="url(#bbburst-blur-1)"></use><use xlink:href="#bbburst-shape-8" width="21.996460018779025" opacity="0.7368525049654684" transform="matrix(0.9993228329092391,0.03679504893668421,-0.03679504893668421,0.9993228329092391,368.6370227866293,112.96399983283885)" fill="none" stroke="#7ca4dc" filter="url(#bbburst-blur-1)"></use><use xlink:href="#bbburst-shape-7" width="23.23553795790023" opacity="0.5324071074803022" transform="matrix(0.7889620928029539,-0.6144418736707185,0.6144418736707185,0.7889620928029539,22.9855196275073,263.03647061822846)" fill="#7ca4dc" filter="url(#bbburst-blur-2)"></use><use xlink:href="#bbburst-shape-6" width="16.707627040900157" opacity="0.6925725328273475" transform="matrix(0.7840336781208466,0.6207182868035198,-0.6207182868035198,0.7840336781208466,662.9112151257186,217.91373000198143)" fill="#7ca4dc" filter="url(#bbburst-blur-1)"></use><use xlink:href="#bbburst-shape-7" width="48.81475311830978" opacity="0.20911159310093086" transform="matrix(1.2302814517369711,0.22115051325278673,-0.22115051325278673,1.2302814517369711,802.491372128006,-187.80318065678495)" fill="#7ca4dc" filter="url(#bbburst-blur-3)"></use><use xlink:href="#bbburst-shape-8" width="34.716352312631955" opacity="0.37709747814873273" transform="matrix(0.9889778087267675,-0.1480638168020843,0.1480638168020843,0.9889778087267675,500.7168507071142,224.24345004721835)" fill="none" stroke="#7ca4dc" filter="url(#bbburst-blur-2)"></use><use xlink:href="#bbburst-shape-1" width="25.0219809394749" opacity="0.6850929253632344" transform="matrix(0.9976244407927413,-0.06888740910333573,0.06888740910333573,0.9976244407927413,259.57900666501126,101.86256375718597)" fill="#7ca4dc" filter="url(#bbburst-blur-1)"></use><use xlink:href="#bbburst-shape-10" width="31.30703719701353" opacity="0.5315171741859153" transform="matrix(0.8992062217893073,0.43752505150608123,-0.43752505150608123,0.8992062217893073,712.106780014895,180.40680209602345)" fill="none" stroke="#7ca4dc" filter="url(#bbburst-blur-2)"></use><use xlink:href="#bbburst-shape-7" width="24.574731526052105" opacity="0.5812355683434324" transform="matrix(0.9901596720616233,0.13994221601367723,-0.13994221601367723,0.9901596720616233,331.9098477241096,-149.4897706122928)" fill="#7ca4dc" filter="url(#bbburst-blur-1)"></use><use xlink:href="#bbburst-shape-10" width="37.152004394535176" opacity="0.14715955280335002" transform="matrix(1.0354897522435016,-0.7001863844710863,0.7001863844710863,1.0354897522435016,-253.1414502698759,-149.81251728365157)" fill="none" stroke="#7ca4dc" filter="url(#bbburst-blur-3)"></use><use xlink:href="#bbburst-shape-4" width="44.38904259502769" opacity="0.20191402307697648" transform="matrix(1.2059763091479954,-0.328817794186657,0.328817794186657,1.2059763091479954,-26.791373355658408,163.4560113038981)" fill="#7ca4dc" filter="url(#bbburst-blur-3)"></use><use xlink:href="#bbburst-shape-10" width="21.619010276424643" opacity="0.6359385316686954" transform="matrix(0.9222412820922349,0.38661481813928295,-0.38661481813928295,0.9222412820922349,626.4203359755655,168.90156643545959)" fill="none" stroke="#7ca4dc" filter="url(#bbburst-blur-1)"></use><use xlink:href="#bbburst-shape-10" width="32.83253875585502" opacity="0.06155223979075297" transform="matrix(1.6621710336550135,-0.5474371697996251,0.5474371697996251,1.6621710336550135,-206.05642279505372,-34.77941863996898)" fill="none" stroke="#7ca4dc" filter="url(#bbburst-blur-4)"></use><use xlink:href="#bbburst-shape-10" width="18.732992491648393" opacity="0.6996320453164608" transform="matrix(0.9019477547036272,-0.4318451664486769,0.4318451664486769,0.9019477547036272,90.5817206498563,86.00051045943508)" fill="none" stroke="#7ca4dc" filter="url(#bbburst-blur-1)"></use><use xlink:href="#bbburst-shape-6" width="17.497899016878225" opacity="0.8016312732533779" transform="matrix(0.8330237513774916,0.5532372272732294,-0.5532372272732294,0.8330237513774916,649.199672123131,-20.08530593253147)" fill="#7ca4dc"></use><use xlink:href="#bbburst-shape-4" width="38.85791196481708" opacity="-0.09312905278572448" transform="matrix(1.7028751170965881,-0.40338112942139603,0.40338112942139603,1.7028751170965881,-139.90560760673412,-623.4177716256982)" fill="#7ca4dc" filter="url(#bbburst-blur-4)"></use><use xlink:href="#bbburst-shape-8" width="12.423285593192888" opacity="0.8613303527484781" transform="matrix(0.9983348952608154,-0.05768393974562262,0.05768393974562262,0.9983348952608154,308.5506407698264,6.3405475104814855)" fill="none" stroke="#7ca4dc"></use><use xlink:href="#bbburst-shape-12" width="39.65539208559209" opacity="0.20264510675904646" transform="matrix(1.2394655437013595,0.1619418598667212,-0.1619418598667212,1.2394655437013595,105.05646726113835,29.03392641800076)" fill="none" stroke="#7ca4dc" filter="url(#bbburst-blur-3)"></use><use xlink:href="#bbburst-shape-4" width="35.58838359900651" opacity="0.14815627854516134" transform="matrix(1.1379697322746265,-0.5172280816301593,0.5172280816301593,1.1379697322746265,50.718696709251105,-409.29190357733523)" fill="#7ca4dc" filter="url(#bbburst-blur-3)"></use><use xlink:href="#bbburst-shape-7" width="24.203874704495686" opacity="0.6338991506445681" transform="matrix(0.9935578370372135,-0.11332618612630502,0.11332618612630502,0.9935578370372135,202.32777896888035,-82.51596145374862)" fill="#7ca4dc" filter="url(#bbburst-blur-1)"></use><use xlink:href="#bbburst-shape-7" width="34.14691644360571" opacity="0.40157019612364353" transform="matrix(0.9073776656430783,-0.4203162760257066,0.4203162760257066,0.9073776656430783,17.754004320378556,226.23364604913388)" fill="#7ca4dc" filter="url(#bbburst-blur-2)"></use><use xlink:href="#bbburst-shape-8" width="24.203700049931133" opacity="0.6107093179152316" transform="matrix(0.8452050734762234,-0.5344421238731578,0.5344421238731578,0.8452050734762234,349.1408145361662,41.76418224464038)" fill="none" stroke="#7ca4dc" filter="url(#bbburst-blur-1)"></use><use xlink:href="#bbburst-shape-12" width="16.012838940216717" opacity="0.8912318919669244" transform="matrix(0.9210067771028976,-0.38954655245622904,0.38954655245622904,0.9210067771028976,247.7956733937009,-13.00423958379372)" fill="none" stroke="#7ca4dc"></use><use xlink:href="#bbburst-shape-4" width="15.79498954956156" opacity="0.799112399469516" transform="matrix(0.9683033753797821,-0.24977704704019715,0.24977704704019715,0.9683033753797821,235.210346580638,84.63790296385287)" fill="#7ca4dc"></use><use xlink:href="#bbburst-shape-4" width="9.781880508305365" opacity="0.9161024215228559" transform="matrix(0.7737301412024242,0.633515326250973,-0.633515326250973,0.7737301412024242,647.7762106920596,125.12536525574774)" fill="#7ca4dc"></use><use xlink:href="#bbburst-shape-8" width="39.27101294244029" opacity="0.20507518312994466" transform="matrix(1.23730509960599,-0.17769662486668517,0.17769662486668517,1.23730509960599,647.3675604173708,10.984155005487139)" fill="none" stroke="#7ca4dc" filter="url(#bbburst-blur-3)"></use><use xlink:href="#bbburst-shape-12" width="24.356029332943272" opacity="0.7013642220902565" transform="matrix(0.9239810240719561,0.38243831810494505,-0.38243831810494505,0.9239810240719561,605.2990358134939,-92.69603879003353)" fill="none" stroke="#7ca4dc" filter="url(#bbburst-blur-1)"></use><use xlink:href="#bbburst-shape-10" width="10.875411704492402" opacity="0.9703198093625401" transform="matrix(0.8543125752521206,-0.5197595826592233,0.5197595826592233,0.8543125752521206,193.2524364143158,73.13141829589347)" fill="none" stroke="#7ca4dc"></use><use xlink:href="#bbburst-shape-4" width="35.988528710176574" opacity="0.2571018618411852" transform="matrix(1.2000212434681803,0.34992715702712,-0.34992715702712,1.2000212434681803,730.2606173350542,-344.83879419198684)" fill="#7ca4dc" filter="url(#bbburst-blur-3)"></use><use xlink:href="#bbburst-shape-6" width="27.889409961011395" opacity="0.17150566696629843" transform="matrix(1.0578065530765572,0.6659919641169049,-0.6659919641169049,1.0578065530765572,733.6024395750438,-396.1120829006234)" fill="#7ca4dc" filter="url(#bbburst-blur-3)"></use><use xlink:href="#bbburst-shape-10" width="24.64971894545451" opacity="0.7035234238102883" transform="matrix(0.8795290144528893,0.4758452613355829,-0.4758452613355829,0.8795290144528893,685.0321029235629,123.94462571546916)" fill="none" stroke="#7ca4dc" filter="url(#bbburst-blur-1)"></use><use xlink:href="#bbburst-shape-6" width="22.29376861938253" opacity="0.8112362249652666" transform="matrix(0.7102017868579074,-0.7039981689918202,0.7039981689918202,0.7102017868579074,187.86388803558242,158.80740304066057)" fill="#7ca4dc"></use><use xlink:href="#bbburst-shape-6" width="43.74355287916275" opacity="-0.0852657944548032" transform="matrix(1.7470558374005534,-0.10146871934074549,0.10146871934074549,1.7470558374005534,665.7818636432593,-642.6789223153758)" fill="#7ca4dc" filter="url(#bbburst-blur-4)"></use><use xlink:href="#bbburst-shape-1" width="17.089242757808833" opacity="0.8602681097814836" transform="matrix(0.997308891548266,-0.07331421989470484,0.07331421989470484,0.997308891548266,306.76562018543626,-28.03930555839048)" fill="#7ca4dc"></use><use xlink:href="#bbburst-shape-4" width="10.6051457777265" opacity="0.9470004573952295" transform="matrix(0.7416441546752953,0.6707935210151978,-0.6707935210151978,0.7416441546752953,650.8946427839785,80.12016602424558)" fill="#7ca4dc"></use><use xlink:href="#bbburst-shape-14" width="17.376684888721158" opacity="0.7693378205176026" transform="matrix(0.707333925941771,-0.706879563441893,0.706879563441893,0.707333925941771,21.201113920275134,71.37143327248941)" fill="none" stroke="#7ca4dc" filter="url(#bbburst-blur-1)"></use><use xlink:href="#bbburst-shape-7" width="13.723368624773002" opacity="0.950757783459613" transform="matrix(0.9999902706242808,-0.004411196751189852,0.004411196751189852,0.9999902706242808,407.5391724004289,-15.073511226639482)" fill="#7ca4dc"></use><use xlink:href="#bbburst-shape-1" width="31.710510945706446" opacity="0.37512086507566345" transform="matrix(0.9949674545621301,-0.10019862455221444,0.10019862455221444,0.9949674545621301,91.23551670008166,126.54738299210777)" fill="#7ca4dc" filter="url(#bbburst-blur-2)"></use><use xlink:href="#bbburst-shape-14" width="29.166501415715114" opacity="0.5594488393429496" transform="matrix(0.8189522367422513,0.5738616853692741,-0.5738616853692741,0.8189522367422513,713.46772792795,-109.4329289320753)" fill="none" stroke="#7ca4dc" filter="url(#bbburst-blur-1)"></use><use xlink:href="#bbburst-shape-6" width="18.18908774017409" opacity="0.7998963257816191" transform="matrix(0.8223495608996699,0.5689826005143919,-0.5689826005143919,0.8223495608996699,572.561101429339,-10.58075140352355)" fill="#7ca4dc"></use><use xlink:href="#bbburst-shape-7" width="37.06975807606362" opacity="0.08333143585390157" transform="matrix(1.366699151556375,1.0929928769827757,-1.0929928769827757,1.366699151556375,579.4938190002472,173.83754833910768)" fill="#7ca4dc" filter="url(#bbburst-blur-4)"></use><use xlink:href="#bbburst-shape-1" width="17.834696283286224" opacity="0.7852754264490499" transform="matrix(0.840844072060729,-0.5412774209962316,0.5412774209962316,0.840844072060729,271.18151935626133,51.84367423125178)" fill="#7ca4dc"></use><use xlink:href="#bbburst-shape-12" width="25.505665432501168" opacity="0.19399348198721011" transform="matrix(1.1777156060804816,-0.41891043337983813,0.41891043337983813,1.1777156060804816,580.0583223943331,-60.29068652376213)" fill="none" stroke="#7ca4dc" filter="url(#bbburst-blur-3)"></use><use xlink:href="#bbburst-shape-6" width="26.787036347815246" opacity="0.6046752746697914" transform="matrix(0.9939107657560641,-0.11018797445363243,0.11018797445363243,0.9939107657560641,372.60727581908986,-171.43747784281666)" fill="#7ca4dc" filter="url(#bbburst-blur-1)"></use><use xlink:href="#bbburst-shape-8" width="15.462549767218754" opacity="0.8484832202989314" transform="matrix(0.9914330857911778,-0.1306156054940717,0.1306156054940717,0.9914330857911778,321.7737888955958,70.1132409399753)" fill="none" stroke="#7ca4dc"></use><use xlink:href="#bbburst-shape-7" width="32.61127311953278" opacity="0.4978803489141618" transform="matrix(0.9999995674685503,0.0009300874755497221,-0.0009300874755497221,0.9999995674685503,193.29757427486672,-121.29818782377458)" fill="#7ca4dc" filter="url(#bbburst-blur-2)"></use><use xlink:href="#bbburst-shape-1" width="32.80767220898992" opacity="0.4298964714196174" transform="matrix(0.7956207815297018,0.6057949917241529,-0.6057949917241529,0.7956207815297018,790.0359449503188,-128.05497356799884)" fill="#7ca4dc" filter="url(#bbburst-blur-2)"></use><use xlink:href="#bbburst-shape-14" width="11.901498684941132" opacity="0.8506580546160557" transform="matrix(0.8186881556619355,0.5742383684314889,-0.5742383684314889,0.8186881556619355,674.2201086639457,23.563897754654477)" fill="none" stroke="#7ca4dc"></use><use xlink:href="#bbburst-shape-7" width="27.26284737523692" opacity="0.5647984185355955" transform="matrix(0.9986669785602719,0.051616527714457724,-0.051616527714457724,0.9986669785602719,237.34967549886156,97.76442584515252)" fill="#7ca4dc" filter="url(#bbburst-blur-1)"></use><use xlink:href="#bbburst-shape-10" width="29.009385491859305" opacity="0.4906165146055599" transform="matrix(0.9971796378828558,0.07505178073714507,-0.07505178073714507,0.9971796378828558,501.22778462598944,212.65066242666342)" fill="none" stroke="#7ca4dc" filter="url(#bbburst-blur-2)"></use><use xlink:href="#bbburst-shape-8" width="32.221476584206485" opacity="0.3270819202587617" transform="matrix(1.0247135720590252,0.7158645788401834,-0.7158645788401834,1.0247135720590252,584.3789286383908,-311.92280490683595)" fill="none" stroke="#7ca4dc" filter="url(#bbburst-blur-3)"></use><use xlink:href="#bbburst-shape-14" width="25.19288442999169" opacity="0.440318131550425" transform="matrix(0.7072811961041552,-0.7069323232371509,0.7069323232371509,0.7072811961041552,175.1939391375348,-116.80587245397001)" fill="none" stroke="#7ca4dc" filter="url(#bbburst-blur-2)"></use><use xlink:href="#bbburst-shape-12" width="26.952039371217108" opacity="0.37162955183566115" transform="matrix(0.9494112360481414,-0.31403551529331913,0.31403551529331913,0.9494112360481414,543.8644261085165,40.863296005182974)" fill="none" stroke="#7ca4dc" filter="url(#bbburst-blur-2)"></use><use xlink:href="#bbburst-shape-6" width="13.934171684343555" opacity="0.8672531206186402" transform="matrix(0.9973808223802434,0.0723290753992433,-0.0723290753992433,0.9973808223802434,453.9476158256104,51.00823873424622)" fill="#7ca4dc"></use><use xlink:href="#bbburst-shape-1" width="36.21585769707487" opacity="0.26343948812809714" transform="matrix(1.1663109954053477,0.449687293568083,-0.449687293568083,1.1663109954053477,377.942525120772,-352.4165406431099)" fill="#7ca4dc" filter="url(#bbburst-blur-3)"></use><use xlink:href="#bbburst-shape-12" width="35.036497113128924" opacity="0.34870001529049766" transform="matrix(0.8586841873341262,-0.5125050891672502,0.5125050891672502,0.8586841873341262,-90.72778211159923,-47.00931501225432)" fill="none" stroke="#7ca4dc" filter="url(#bbburst-blur-2)"></use><use xlink:href="#bbburst-shape-10" width="41.391611249988586" opacity="0.3366214211712034" transform="matrix(0.9055355768563131,-0.42427033722321933,0.42427033722321933,0.9055355768563131,64.37537932066309,306.28492027260125)" fill="none" stroke="#7ca4dc" filter="url(#bbburst-blur-2)"></use><use xlink:href="#bbburst-shape-6" width="28.973613285273075" opacity="0.367864949992344" transform="matrix(0.9998365667249155,-0.018078712336159517,0.018078712336159517,0.9998365667249155,425.27798287168144,280.87973932150135)" fill="#7ca4dc" filter="url(#bbburst-blur-2)"></use><use xlink:href="#bbburst-shape-7" width="14.798190549186465" opacity="0.8812742692502552" transform="matrix(0.9620532387115404,-0.2728618073029567,0.2728618073029567,0.9620532387115404,258.4853482524029,-29.903071652650794)" fill="#7ca4dc"></use><use xlink:href="#bbburst-shape-4" width="40.379339818627" opacity="0.19801592818685532" transform="matrix(1.2485773833575011,-0.05961977665285067,0.05961977665285067,1.2485773833575011,-6.497845539795733,-147.95729724724845)" fill="#7ca4dc" filter="url(#bbburst-blur-3)"></use><use xlink:href="#bbburst-shape-6" width="32.538015761332595" opacity="0.5130843546797322" transform="matrix(0.9952818031097624,0.09702645205602449,-0.09702645205602449,0.9952818031097624,208.36788409330893,-45.59124541688357)" fill="#7ca4dc" filter="url(#bbburst-blur-2)"></use><use xlink:href="#bbburst-shape-6" width="40.55349634058657" opacity="0.06213099145718881" transform="matrix(1.6106264996410702,0.6843845984926562,-0.6843845984926562,1.6106264996410702,868.3582198121761,97.49952425110439)" fill="#7ca4dc" filter="url(#bbburst-blur-4)"></use><use xlink:href="#bbburst-shape-6" width="23.970597713299824" opacity="0.5679159537878722" transform="matrix(0.7843772148583601,0.6202841162008278,-0.6202841162008278,0.7843772148583601,645.9202063243088,273.1192191678972)" fill="#7ca4dc" filter="url(#bbburst-blur-1)"></use><use xlink:href="#bbburst-shape-8" width="20.07275001540151" opacity="0.723528043953228" transform="matrix(0.9365372690548212,0.35056803001890735,-0.35056803001890735,0.9365372690548212,537.3341178790556,-102.3754663016689)" fill="none" stroke="#7ca4dc" filter="url(#bbburst-blur-1)"></use><use xlink:href="#bbburst-shape-4" width="35.59444301015028" opacity="0.43941783169863524" transform="matrix(0.9563880319660014,0.2920991823203184,-0.2920991823203184,0.9563880319660014,491.64982866116463,-239.8528529960693)" fill="#7ca4dc" filter="url(#bbburst-blur-2)"></use><use xlink:href="#bbburst-shape-6" width="38.843387895433274" opacity="0.19295733995070363" transform="matrix(1.2480228346771889,0.07027804866609655,-0.07027804866609655,1.2480228346771889,44.275063848519196,-49.76429050748243)" fill="#7ca4dc" filter="url(#bbburst-blur-3)"></use><use xlink:href="#bbburst-shape-14" width="41.79917762998639" opacity="0.22833338507088874" transform="matrix(1.1979868420611846,0.356829828136985,-0.356829828136985,1.1979868420611846,250.85303886468287,-308.82090249983446)" fill="none" stroke="#7ca4dc" filter="url(#bbburst-blur-3)"></use><use xlink:href="#bbburst-shape-7" width="26.598951416421762" opacity="0.7021951971432401" transform="matrix(0.8192304827754949,0.5734643982771986,-0.5734643982771986,0.8192304827754949,750.4884219217333,87.34548384350188)" fill="#7ca4dc" filter="url(#bbburst-blur-1)"></use><use xlink:href="#bbburst-shape-10" width="43.05155023506136" opacity="0.15399399258619573" transform="matrix(1.079828995100019,-0.6296581146473721,0.6296581146473721,1.079828995100019,-9.55421890573814,337.79445931474163)" fill="none" stroke="#7ca4dc" filter="url(#bbburst-blur-3)"></use></svg>