<svg xmlns="http://www.w3.org/2000/svg" version="1.1" xmlns:xlink="http://www.w3.org/1999/xlink" xmlns:svgjs="http://svgjs.dev/svgjs" viewBox="0 0 640 800"><defs><filter id="llleaves-blur-2" x="-100%" y="-100%" width="400%" height="400%"><feGaussianBlur in="SourceGraphic" stdDeviation="2"></feGaussianBlur></filter><filter id="llleaves-blur-3" x="-100%" y="-100%" width="400%" height="400%"><feGaussianBlur in="SourceGraphic" stdDeviation="4"></feGaussianBlur></filter><filter id="llleaves-blur-4" x="-100%" y="-100%" width="400%" height="400%"><feGaussianBlur in="SourceGraphic" stdDeviation="12"></feGaussianBlur></filter></defs><g fill="hsl(50, 98%, 50%)"><path d="M219 448H269C297 448 319 470 319 498H269C241 498 219 476 219 448Z " transform="matrix(-0.20163623295284594,0.2239397237604452,-0.2239397237604452,-0.20163623295284594,429.1636360030061,508.1341524951364)" filter="url(#llleaves-blur-2)" opacity="0.46"></path><path d="M429 171H479C507 171 529 193 529 221H479C451 221 429 199 429 171Z " transform="matrix(0.10358307074861017,0.1535682176905832,-0.1535682176905832,0.10358307074861017,459.48307977877005,102.13854185948304)" filter="url(#llleaves-blur-4)" opacity="0.28"></path><path d="M429 736H479C507 736 529 758 529 786H479C451 786 429 764 429 736Z " transform="matrix(0.10358307074861017,0.1535682176905832,-0.1535682176905832,0.10358307074861017,546.2491227739496,608.6141068865184)" filter="url(#llleaves-blur-4)" opacity="0.28"></path><path d="M-13 375H37C65 375 87 397 87 425H37C9 425 -13 403 -13 375Z " transform="matrix(-0.34803523317593665,-0.2528623981465802,0.2528623981465802,-0.34803523317593665,-51.26765563112241,548.5700020017981)" opacity="0.66"></path><path d="M304 455H354C382 455 404 477 404 505H354C326 505 304 483 304 455Z " transform="matrix(0.0913136029123539,0.1717359096433898,-0.1717359096433898,0.0913136029123539,404.10822119785377,375.37495858831016)" filter="url(#llleaves-blur-4)" opacity="0.30"></path><path d="M339 535H389C417 535 439 557 439 585H389C361 585 339 563 339 535Z " transform="matrix(0.11797555466130617,0.12216726313803884,-0.12216726313803884,0.11797555466130617,411.5211765940536,446.4106240289714)" filter="url(#llleaves-blur-4)" opacity="0.26"></path><path d="M560 735H610C638 735 660 757 660 785H610C582 785 560 763 560 735Z " transform="matrix(0.04542109255987006,0.21368943966257237,-0.21368943966257237,0.04542109255987006,744.6971076820342,595.1294114603296)" filter="url(#llleaves-blur-3)" opacity="0.33"></path><path d="M392 397H442C470 397 492 419 492 447H442C414 447 392 425 392 397Z " transform="matrix(0.11627055361356162,0.12913153194934018,-0.12913153194934018,0.11627055361356162,445.1019217854273,315.85768925346866)" filter="url(#llleaves-blur-4)" opacity="0.26"></path><path d="M182 514H232C260 514 282 536 282 564H232C204 564 182 542 182 514Z " transform="matrix(-0.3640546447709053,0.0382636850335636,-0.0382636850335636,-0.3640546447709053,337.08480381994076,726.3482786037312)" filter="url(#llleaves-blur-2)" opacity="0.56"></path><path d="M454 7H504C532 7 554 29 554 57H504C476 57 454 35 454 7Z " transform="matrix(0.1387271149671581,-0.5177366414448821,0.5177366414448821,0.1387271149671581,417.51396153031607,288.4999996092715)" opacity="0.82"></path><path d="M490 516H540C568 516 590 538 590 566H540C512 566 490 544 490 516Z " transform="matrix(0.061736327567860155,0.20193042868093,-0.20193042868093,0.061736327567860155,615.9067450297387,398.55821529808543)" filter="url(#llleaves-blur-3)" opacity="0.32"></path><path d="M480 68H530C558 68 580 90 580 118H530C502 118 480 96 480 68Z " transform="matrix(-0.27468830252137805,-0.3645236894206954,0.3645236894206954,-0.27468830252137805,641.6840972202057,311.7435675274568)" opacity="0.70"></path><path d="M-12 159H38C66 159 88 181 88 209H38C10 209 -12 187 -12 159Z " transform="matrix(-0.36201788466678114,-0.21752229027993006,0.21752229027993006,-0.36201788466678114,11.732578205830553,258.87713780932506)" opacity="0.65"></path><path d="M-17 633H33C61 633 83 655 83 683H33C5 683 -17 661 -17 633Z " transform="matrix(-0.34803523317593665,-0.2528623981465802,0.2528623981465802,-0.34803523317593665,-121.89829528564385,895.3516425686034)" opacity="0.66"></path><path d="M311 87H361C389 87 411 109 411 137H361C333 137 311 115 311 87Z " transform="matrix(-0.29701667120990133,0.15133755290556397,-0.15133755290556397,-0.29701667120990133,485.1728242321975,90.63301057660036)" filter="url(#llleaves-blur-2)" opacity="0.51"></path><path d="M300 9H350C378 9 400 31 400 59H350C322 59 300 37 300 9Z " transform="matrix(-0.17203566196498493,-0.448168221722341,0.448168221722341,-0.17203566196498493,394.97476214918515,196.70809010962884)" opacity="0.74"></path><path d="M323 238H373C401 238 423 260 423 288H373C345 288 323 266 323 238Z " transform="matrix(0.10534450578163723,0.15044754595327836,-0.15044754595327836,0.10534450578163723,373.2742039291615,179.17746033885658)" filter="url(#llleaves-blur-4)" opacity="0.28"></path><path d="M226 124H276C304 124 326 146 326 174H276C248 174 226 152 226 124Z " transform="matrix(-0.25882317922477743,0.18804604694035446,-0.18804604694035446,-0.25882317922477743,375.45405846015143,135.663944748954)" filter="url(#llleaves-blur-2)" opacity="0.49"></path><path d="M556 92H606C634 92 656 114 656 142H606C578 142 556 120 556 92Z " transform="matrix(-0.3691736555071266,0.019347571454930972,-0.019347571454930972,-0.3691736555071266,831.9829010975457,148.46868939264564)" filter="url(#llleaves-blur-2)" opacity="0.57"></path><path d="M487 294H537C565 294 587 316 587 344H537C509 344 487 322 487 294Z " transform="matrix(0.061736327567860155,0.20193042868093,-0.20193042868093,0.061736327567860155,568.2633988452758,190.86947130419318)" filter="url(#llleaves-blur-3)" opacity="0.32"></path><path d="M276 669H326C354 669 376 691 376 719H326C298 719 276 697 276 669Z " transform="matrix(0.034893608077727636,0.22030957085323014,-0.22030957085323014,0.034893608077727636,467.5195259388025,597.962915895904)" filter="url(#llleaves-blur-3)" opacity="0.34"></path><path d="M125 639H175C203 639 225 661 225 689H175C147 689 125 667 125 639Z " transform="matrix(-0.3408520567649338,-0.2663028127156942,0.2663028127156942,-0.3408520567649338,57.82404229064245,936.9287579171626)" opacity="0.66"></path><path d="M65 741H115C143 741 165 763 165 791H115C87 791 65 769 65 741Z " transform="matrix(-0.27478012692653536,-0.3646455445220578,0.3646455445220578,-0.27478012692653536,-132.71877250734468,1018.4158148457628)" opacity="0.70"></path><path d="M159 82H209C237 82 259 104 259 132H209C181 132 159 110 159 82Z " transform="matrix(-0.2899976495723748,-0.34560574072175426,0.34560574072175426,-0.2899976495723748,232.6296945033986,210.26134831509074)" opacity="0.69"></path><path d="M-8 88H42C70 88 92 110 92 138H42C14 138 -8 116 -8 88Z " transform="matrix(-0.33367546342355575,-0.2799869582916136,0.2799869582916136,-0.33367546342355575,24.375843176837,162.4647796151096)" opacity="0.67"></path><path d="M120 552H170C198 552 220 574 220 602H170C142 602 120 580 120 552Z " transform="matrix(-0.31844918555997376,-0.3075228038417217,0.3075228038417217,-0.31844918555997376,46.695703728522105,813.0240567211974)" opacity="0.68"></path><path d="M386 471H436C464 471 486 493 486 521H436C408 521 386 499 386 471Z " transform="matrix(0.11781063060857616,0.12199647928196371,-0.12199647928196371,0.11781063060857616,445.1448187785148,384.37546225121)" filter="url(#llleaves-blur-4)" opacity="0.26"></path><path d="M314 380H364C392 380 414 402 414 430H364C336 430 314 408 314 380Z " transform="matrix(0.10534450578163723,0.15044754595327836,-0.15044754595327836,0.10534450578163723,386.5858560065618,307.5725684314436)" filter="url(#llleaves-blur-4)" opacity="0.28"></path></g><g fill="none" stroke-width="3" stroke="hsl(50, 98%, 50%)"><path d="M76 98H126C154 98 176 120 176 148H126C98 148 76 126 76 98Z " transform="matrix(-0.11069005629527516,-0.47945130836613875,0.47945130836613875,-0.11069005629527516,80.9744361641696,197.0257417784523)" opacity="0.76"></path><path d="M-14 539H36C64 539 86 561 86 589H36C8 589 -14 567 -14 539Z " transform="matrix(-0.34803523317593665,-0.2528623981465802,0.2528623981465802,-0.34803523317593665,-94.08512416033747,769.3949178445051)" opacity="0.66"></path><path d="M555 342H605C633 342 655 364 655 392H605C577 392 555 370 555 342Z " transform="matrix(0.04542109255987006,0.21368943966257237,-0.21368943966257237,0.04542109255987006,655.9442633574427,221.04834803467142)" filter="url(#llleaves-blur-3)" opacity="0.33"></path><path d="M-13 729H37C65 729 87 751 87 779H37C9 779 -13 757 -13 729Z " transform="matrix(-0.34803523317593665,-0.2528623981465802,0.2528623981465802,-0.34803523317593665,-140.7809445750118,1025.7744745460795)" opacity="0.66"></path><path d="M408 248H458C486 248 508 270 508 298H458C430 298 408 276 408 248Z " transform="matrix(0.11030370623127501,0.14118230579060403,-0.14118230579060403,0.11030370623127501,446.02367202691096,178.22559214676528)" filter="url(#llleaves-blur-4)" opacity="0.27"></path><path d="M129 456H179C207 456 229 478 229 506H179C151 506 129 484 129 456Z " transform="matrix(-0.3408520567649338,-0.2663028127156942,0.2663028127156942,-0.3408520567649338,111.92086524467423,692.6180427800424)" opacity="0.66"></path><path d="M451 663H501C529 663 551 685 551 713H501C473 713 451 691 451 663Z " transform="matrix(0.08656598472461388,0.1774865710309705,-0.1774865710309705,0.08656598472461388,579.7412025222761,539.5218304229494)" filter="url(#llleaves-blur-4)" opacity="0.30"></path><path d="M203 591H253C281 591 303 613 303 641H253C225 641 203 619 203 591Z " transform="matrix(-0.3241732214901842,0.1179894033686119,-0.1179894033686119,-0.3241732214901842,407.6972975120815,785.8393853856946)" filter="url(#llleaves-blur-2)" opacity="0.53"></path><path d="M547 12H597C625 12 647 34 647 62H597C569 62 547 40 547 12Z " transform="matrix(-0.1863997817716036,-0.4391303668756634,0.4391303668756634,-0.1863997817716036,692.0328461432478,306.0576209503204)" opacity="0.73"></path><path d="M-21 13H29C57 13 79 35 79 63H29C1 63 -21 41 -21 13Z " transform="matrix(-0.3511789048065611,-0.245898116405784,0.245898116405784,-0.3511789048065611,29.84005981597048,58.47584375841706)" opacity="0.66"></path><path d="M497 732H547C575 732 597 754 597 782H547C519 782 497 760 497 732Z " transform="matrix(0.061736327567860155,0.20193042868093,-0.20193042868093,0.061736327567860155,666.0915633318446,599.8096555426612)" filter="url(#llleaves-blur-3)" opacity="0.32"></path><path d="M238 375H288C316 375 338 397 338 425H288C260 425 238 403 238 375Z " transform="matrix(-0.13141882861941395,0.24716286902934595,-0.24716286902934595,-0.13141882861941395,424.7137702541296,381.38462516731397)" filter="url(#llleaves-blur-3)" opacity="0.43"></path><path d="M-11 453H39C67 453 89 475 89 503H39C11 503 -11 481 -11 453Z " transform="matrix(-0.34803523317593665,-0.2528623981465802,0.2528623981465802,-0.34803523317593665,-68.2948522202038,654.2224749858144)" opacity="0.66"></path><path d="M98 320H148C176 320 198 342 198 370H148C120 370 98 348 98 320Z " transform="matrix(-0.2952140123244593,-0.3396048731470115,0.3396048731470115,-0.2952140123244593,74.52799258830102,497.1103554776962)" opacity="0.69"></path><path d="M421 537H471C499 537 521 559 521 587H471C443 587 421 565 421 537Z " transform="matrix(0.10358307074861017,0.1535682176905832,-0.1535682176905832,0.10358307074861017,508.5177120195123,431.4556837070164)" filter="url(#llleaves-blur-4)" opacity="0.28"></path><path d="M375 16H425C453 16 475 38 475 66H425C397 66 375 44 375 16Z " transform="matrix(-0.03530835842154687,-0.5049330498589037,0.5049330498589037,-0.03530835842154687,419.3037972849424,257.0441888853175)" opacity="0.78"></path><path d="M556 497H606C634 497 656 519 656 547H606C578 547 556 525 556 497Z " transform="matrix(0.04542109255987006,0.21368943966257237,-0.21368943966257237,0.04542109255987006,690.0207054125815,368.794389248229)" filter="url(#llleaves-blur-3)" opacity="0.33"></path><path d="M218 739H268C296 739 318 761 318 789H268C240 789 218 767 218 739Z " transform="matrix(-0.20163623295284594,0.2239397237604452,-0.2239397237604452,-0.20163623295284594,493.1284593843428,858.0342360081748)" filter="url(#llleaves-blur-2)" opacity="0.46"></path><path d="M75 248H125C153 248 175 270 175 298H125C97 298 75 276 75 248Z " transform="matrix(-0.27481542956222427,-0.36469239270193826,0.36469239270193826,-0.27481542956222427,59.7909054876489,393.61116135822954)" opacity="0.70"></path><path d="M172 7H222C250 7 272 29 272 57H222C194 57 172 35 172 7Z " transform="matrix(-9.412045535278684e-17,-0.5123678947993667,0.5123678947993667,-9.412045535278684e-17,205.60422736642028,145.74567264545942)" opacity="0.79"></path></g></svg>