<svg xmlns="http://www.w3.org/2000/svg" version="1.1" xmlns:xlink="http://www.w3.org/1999/xlink" xmlns:svgjs="http://svgjs.dev/svgjs" viewBox="0 0 800 800"><defs><linearGradient x1="50%" y1="0%" x2="50%" y2="100%" id="ccchaos-grad"><stop stop-color="#7ca4dc" stop-opacity="1" offset="0%"></stop><stop stop-color="#eaecef" stop-opacity="1" offset="100%"></stop></linearGradient></defs><g stroke-width="3" stroke="url(#ccchaos-grad)" fill="none" stroke-linecap="round"><path d="M388.02 37.28C393.91 37.58 399.77 38.18 405.6 39.09 411.43 40.14 417.23 41.48 422.99 43.07 428.77 44.78 434.52 46.71 440.24 48.86 445.98 51.07 451.7 53.46 457.41 56 468.91 61.1 480.42 66.62 492 72.42 503.78 77.89 515.73 83.44 527.87 89 540.27 94.03 552.9 99.02 565.7 103.96 578.66 108.38 591.63 112.83 604.42 117.36 616.95 121.53 628.89 125.93 639.92 130.64 650.05 135.2 658.79 140.21 665.89 145.72 671.71 151.29 675.82 157.45 678.28 164.22 680.03 171.18 680.86 178.78 681.31 186.97 682.61 195.41 684.74 204.43 688.24 213.96 693.96 223.72 701.54 233.95 710.83 244.56 721.72 255.35 733.12 266.46 744.04 277.83 753.85 289.3 761.22 300.97 765.32 312.75 766.21 318.66 766.19 324.6 765.25 330.54 763.63 336.5 761.24 342.46 758.18 348.43 754.77 354.39 750.99 360.36 746.99 366.31 743.14 372.26 739.41 378.2 735.97 384.11 732.03 392.93 728.59 410.09 729.22 418.42 731.6 426.64 739.15 442.59 743.5 450.31 749.14 460.56 752.97 470.44 754.17 479.98 752.81 489.6 748.17 498.97 740.55 508.13 730.91 517.49 719.56 526.77 707.39 536.04 695.46 545.68 684.14 555.47 673.95 565.48 665.45 576.01 658.39 586.9 652.61 598.17 648.29 610.02 644.61 622.29 641.12 634.9 638.02 647.94 634.35 661.16 629.83 674.38 624.83 687.59 618.65 700.41 611.28 712.53 603.19 723.98 594 734.24 583.87 742.98 573.22 750.38 561.87 755.88 550.04 759.26 537.95 761.05 525.59 760.71 513.08 758.33 500.51 754.79 487.91 749.72 475.35 743.48 469.07 740.33 462.81 737.05 456.58 733.71 450.34 730.54 444.13 727.43 437.95 724.44 431.77 721.78 425.62 719.35 419.49 717.2 413.36 715.51 407.26 714.19 401.19 713.24 395.11 712.84 389.13 712.86 383.25 713.27 377.36 714.22 371.56 715.52 365.86 717.15 360.15 719.21 354.52 721.52 348.98 724.02 343.43 726.81 337.97 729.69 332.58 732.59 321.76 738.75 311.22 744.3 300.96 748.83 290.57 752.65 280.39 754.76 270.39 754.97 260.18 753.75 250.08 750.45 240.07 745.14 229.81 738.4 219.6 729.9 209.45 719.91 199.11 708.97 188.88 697 178.84 684.31 168.8 671.29 159.09 657.97 149.86 644.57 140.86 631.36 132.5 618.33 124.88 605.57 117.65 593.26 111.19 581.3 105.52 569.68 100.13 558.54 95.36 547.68 91.14 537.05 86.85 526.79 82.87 516.64 79.13 506.52 75.02 496.63 71.05 486.66 67.26 476.54 63.16 466.54 59.39 456.31 56.08 445.81 53.7 437.92 49.91 421.76 48.59 413.48 47.63 405.13 47.02 388 47.37 379.23 47.74 373.36 48.31 367.49 49.06 361.61 49.84 355.73 50.76 349.86 51.8 344 52.82 338.14 53.93 332.29 55.13 326.47 56.25 320.66 57.43 314.87 58.67 309.11 60.86 297.65 63.27 286.37 65.93 275.32 68.37 264.39 71.26 253.76 74.7 243.51 78.3 233.41 82.68 223.74 87.86 214.57 93.43 205.59 99.83 197.14 106.99 189.26 114.42 181.57 122.43 174.45 130.88 167.91 139.28 161.47 147.91 155.56 156.66 150.14 165.11 144.68 173.59 139.59 182.1 134.83 190.26 129.81 198.49 124.97 206.85 120.26 214.97 115.1 223.33 109.94 231.97 104.76 240.53 99.05 249.47 93.29 258.78 87.52 268.13 81.3 277.88 75.19 288.02 69.28 298.21 63.21 308.77 57.57 319.64 52.53 325.09 50.08 330.62 47.84 336.21 45.81 341.8 43.88 347.46 42.21 353.17 40.8 358.88 39.53 364.65 38.55 370.45 37.87 376.26 37.36 382.12 37.16 388.01 37.28" stroke-dasharray="16 15" transform="rotate(0, 400, 400)" opacity="0.93"></path><path d="M389.54 50.28C400.91 51.03 412.27 52.94 423.6 55.92 434.97 59.33 446.36 63.59 457.78 68.54 469.29 73.56 480.89 79.01 492.61 84.77 504.47 90.25 516.49 95.84 528.65 101.46 540.95 106.59 553.33 111.7 565.71 116.76 578.02 121.3 590.11 125.86 601.75 130.46 612.92 134.67 623.28 139.05 632.54 143.66 640.88 148.08 647.83 152.86 653.24 158.05 657.64 163.23 660.65 168.93 662.45 175.15 664 181.5 665.11 188.43 666.29 195.92 668.6 203.58 671.95 211.81 676.74 220.53 683.55 229.45 691.94 238.83 701.65 248.61 712.48 258.55 723.38 268.83 733.45 279.4 742.22 290.06 748.51 300.96 751.68 312.01 752.06 323.12 749.23 334.35 743.7 345.62 737.02 356.92 729.63 368.24 722.73 379.53 718.03 390.83 715.65 401.81 715.78 412.47 718.72 423.13 723.23 433.48 728.37 443.51 733.77 453.58 737.75 463.39 739.54 472.95 739.17 482.62 735.81 492.13 729.62 501.53 721.38 511.15 711.2 520.77 699.85 530.46 688.28 540.49 676.85 550.71 666.09 561.17 656.63 572.08 648.37 583.32 641.31 594.87 635.7 606.87 630.92 619.17 626.64 631.67 623.05 644.43 619.29 657.2 615.09 669.79 610.75 682.2 605.54 694.07 599.37 705.12 592.69 715.42 584.99 724.47 576.37 732 567.25 738.26 557.35 742.7 546.83 745.17 536.01 746.24 524.75 745.39 513.2 742.72 501.52 739.1 489.67 734.16 477.75 728.23 465.8 722.38 453.83 716.34 441.89 710.55 429.97 706.04 418.08 702.51 406.26 700.24 394.44 699.98 382.96 701.15 371.79 703.59 360.61 707.67 349.71 712.47 339.09 717.59 328.39 723.3 317.93 728.55 307.67 732.94 297.28 736.81 287.05 739.21 276.93 739.93 266.64 739.44 256.42 737.04 246.27 732.8 235.94 727.23 225.68 719.97 215.53 711.23 205.28 701.52 195.23 690.7 185.45 679.03 175.78 666.92 166.53 654.35 157.83 641.54 149.44 628.74 141.71 615.97 134.74 603.33 128.14 591 122.27 578.9 117.13 567.09 112.18 555.66 107.77 544.48 103.82 533.54 99.72 522.93 95.85 512.46 92.15 502.09 88.06 491.95 84.08 481.8 80.26 471.6 76.15 461.52 72.36 451.3 69.04 440.92 65.81 430.59 63.29 420.05 61.64 409.28 60.35 398.51 60.01 387.51 60.61 376.27 61.49 365.04 63.1 353.84 65.27 342.74 67.32 331.66 69.68 320.7 72.25 309.9 74.44 299.17 76.79 288.64 79.34 278.4 81.63 268.25 84.3 258.42 87.45 248.99 90.71 239.68 94.68 230.81 99.41 222.42 104.52 214.17 110.46 206.43 117.16 199.22 124.21 192.13 131.88 185.55 140.07 179.49 148.32 173.46 156.87 167.88 165.62 162.71 174.15 157.43 182.76 152.44 191.39 147.71 199.7 142.69 208.05 137.78 216.46 132.96 224.6 127.68 232.88 122.39 241.35 117.07 249.67 111.25 258.26 105.39 267.16 99.55 276.01 93.33 285.22 87.23 294.78 81.37 304.33 75.39 314.25 69.87 324.5 64.96 334.75 60.29 345.33 56.46 356.18 53.62 367.03 51.34 378.16 50.2 389.53 50.28" stroke-dasharray="0 23" transform="rotate(4.04, 400, 400)" opacity="0.44"></path><path d="M393.14 63.28C404.15 64.01 415.22 65.87 426.35 68.75 437.5 72.06 448.74 76.2 460.06 81.02 471.45 85.94 482.95 91.32 494.55 97 506.22 102.47 517.99 108.08 529.79 113.74 541.59 118.97 553.32 124.18 564.84 129.35 576.13 134.03 586.98 138.71 597.18 143.4 606.81 147.7 615.5 152.11 623.03 156.69 629.73 161.03 635.14 165.66 639.23 170.63 642.64 175.52 645.02 180.85 646.63 186.63 648.38 192.47 650.1 198.83 652.23 205.69 655.65 212.67 660.21 220.18 666.13 228.16 673.82 236.29 682.78 244.88 692.65 253.88 703.19 263 713.44 272.49 722.59 282.28 730.29 292.16 735.55 302.3 737.87 312.64 737.69 323.03 734.65 333.57 729.23 344.23 722.9 354.9 715.97 365.65 709.49 376.44 705 387.23 702.58 397.79 702.39 408.12 704.8 418.45 708.71 428.56 713.33 438.45 718.41 448.38 722.43 458.14 724.66 467.76 725.12 477.49 722.91 487.15 718.07 496.79 711.23 506.63 702.35 516.54 692.03 526.56 681.13 536.89 669.94 547.42 658.99 558.18 648.92 569.31 639.74 580.7 631.58 592.33 624.74 604.27 618.78 616.38 613.49 628.57 609.08 640.85 604.83 652.98 600.46 664.79 596.28 676.29 591.55 687.13 586.13 697.05 580.43 706.18 573.89 714.05 566.52 720.42 558.75 725.6 550.21 729.08 540.99 730.75 531.47 731.19 521.41 729.92 510.94 727.05 500.31 723.41 489.38 718.64 478.24 713.04 467.06 707.59 455.74 702.03 444.35 696.71 432.97 692.59 421.53 689.35 410.09 687.24 398.65 686.96 387.45 687.94 376.51 690.07 365.55 693.72 354.81 698.03 344.27 702.68 333.68 707.94 323.24 712.85 312.96 717.07 302.57 720.92 292.28 723.51 282.08 724.64 271.75 724.75 261.49 723.16 251.32 719.87 241.04 715.39 230.88 709.31 220.9 701.78 210.92 693.3 201.22 683.66 191.88 673.1 182.73 662.01 174.08 650.32 166.03 638.26 158.32 626.08 151.28 613.76 144.97 601.46 139 589.31 133.69 577.3 129.03 565.49 124.47 553.95 120.35 542.62 116.6 531.51 112.63 520.68 108.82 510 105.12 499.45 101.03 489.11 97.02 478.82 93.15 468.55 89.03 458.41 85.24 448.21 81.93 437.93 78.74 427.71 76.28 417.36 74.67 406.88 73.46 396.42 73.19 385.79 73.85 375.03 74.81 364.26 76.48 353.61 78.7 343.11 80.81 332.62 83.22 322.31 85.8 312.22 88 302.16 90.33 292.36 92.8 282.87 94.97 273.45 97.45 264.38 100.35 255.7 103.29 247.11 106.87 238.95 111.15 231.25 115.78 223.65 121.21 216.52 127.41 209.87 133.98 203.28 141.23 197.14 149.05 191.45 157.03 185.73 165.4 180.37 174.04 175.36 182.57 170.18 191.23 165.23 199.96 160.47 208.43 155.39 216.93 150.38 225.46 145.42 233.72 140.02 242.06 134.59 250.51 129.13 258.77 123.22 267.22 117.3 275.9 111.41 284.47 105.2 293.33 99.14 302.49 93.36 311.61 87.5 321.05 82.12 330.82 77.35 340.57 72.84 350.65 69.16 361.04 66.44 371.42 64.26 382.12 63.18 393.13 63.28" stroke-dasharray="24 21" transform="rotate(8.08, 400, 400)" opacity="0.69"></path><path d="M398.1 76.28C408.77 77 419.54 78.79 430.39 81.57 441.26 84.77 452.24 88.78 463.28 93.46 474.36 98.26 485.52 103.53 496.72 109.13 507.92 114.56 519.11 120.16 530.19 125.84 541.16 131.14 551.9 136.44 562.25 141.72 572.28 146.54 581.7 151.35 590.36 156.15 598.43 160.56 605.53 165.04 611.54 169.65 619 176.25 628.31 190.58 631.23 198.55 633.52 203.98 636.08 209.87 639.28 216.2 643.82 222.61 649.48 229.49 656.34 236.82 664.67 244.25 673.93 252.12 683.71 260.4 693.78 268.77 703.25 277.51 711.41 286.57 718.07 295.71 722.35 305.13 723.91 314.79 723.24 324.49 720.05 334.39 714.78 344.45 708.8 354.52 702.32 364.73 696.25 375.05 691.97 385.37 689.52 395.55 689.06 405.56 690.96 415.59 694.29 425.49 698.38 435.26 703.09 445.07 707.04 454.8 709.56 464.46 710.69 474.24 709.49 484.02 705.89 493.83 700.42 503.83 692.89 513.93 683.76 524.17 673.77 534.67 663.14 545.36 652.37 556.25 642.06 567.4 632.31 578.75 623.31 590.25 615.41 601.94 608.34 613.67 601.99 625.34 596.58 636.97 591.54 648.33 586.66 659.23 582.18 669.73 577.46 679.48 572.33 688.26 567.16 696.23 561.36 702.95 554.88 708.23 548.16 712.43 540.74 715.04 532.65 716.01 524.33 715.92 515.42 714.32 506.01 711.32 496.46 707.73 486.5 703.17 476.24 697.91 465.9 692.88 455.33 687.77 444.58 682.91 433.82 679.16 422.92 676.2 411.91 674.24 400.9 673.94 390.04 674.76 379.35 676.59 368.64 679.83 358.08 683.67 347.66 687.85 337.19 692.67 326.82 697.22 316.57 701.21 306.24 704.99 295.98 707.68 285.81 709.12 275.57 709.73 265.42 708.82 255.39 706.38 245.34 702.9 235.47 697.9 225.84 691.53 216.32 684.25 207.14 675.8 198.4 666.38 189.91 656.39 181.96 645.7 174.63 634.52 167.64 623.11 161.31 611.44 155.66 599.65 150.27 587.9 145.47 576.18 141.21 564.55 136.97 553.11 133.07 541.81 129.44 530.69 125.54 519.78 121.74 509.02 118.01 498.4 113.89 487.96 109.84 477.61 105.94 467.33 101.82 457.16 98.05 447 94.77 436.84 91.64 426.73 89.25 416.58 87.71 406.37 86.58 396.18 86.37 385.92 87.09 375.59 88.12 365.27 89.84 355.12 92.1 345.19 94.26 335.25 96.71 325.55 99.32 316.1 101.55 306.68 103.87 297.55 106.29 288.74 108.38 279.98 110.72 271.58 113.39 263.57 116.05 255.62 119.27 248.08 123.13 240.97 127.27 233.91 132.17 227.28 137.83 221.08 143.86 214.88 150.6 209.08 157.96 203.65 165.55 198.14 173.61 192.92 182.01 187.99 190.42 182.83 199.03 177.86 207.77 173.02 216.33 167.84 224.95 162.71 233.6 157.61 242.02 152.07 250.48 146.52 259.02 140.95 267.34 134.96 275.8 128.99 284.41 123.09 292.88 116.92 301.58 110.94 310.51 105.25 319.37 99.54 328.51 94.32 337.94 89.71 347.34 85.37 357.05 81.85 367.07 79.25 377.08 77.18 387.42 76.17 398.09 76.28" stroke-dasharray="23 5" transform="rotate(12.12, 400, 400)" opacity="0.71"></path><path d="M403.45 89.28C413.78 89.98 424.2 91.71 434.67 94.37 445.16 97.46 455.72 101.32 466.3 105.85 476.89 110.52 487.48 115.66 498 121.15 508.48 126.52 518.81 132.08 528.91 137.76 538.83 143.1 548.37 148.48 557.4 153.84 566.06 158.79 574.05 163.72 581.23 168.65 587.9 173.18 593.66 177.77 598.47 182.44 604.58 189.09 613.08 203.13 616.66 210.76 619.71 215.9 623.25 221.42 627.53 227.34 633.09 233.27 639.67 239.63 647.25 246.4 655.96 253.23 665.26 260.47 674.72 268.11 684.16 275.8 692.75 283.87 699.91 292.28 705.55 300.73 708.93 309.49 709.8 318.52 708.73 327.57 705.43 336.87 700.35 346.38 694.72 355.89 688.68 365.6 683 375.47 678.95 385.34 676.48 395.16 675.77 404.89 677.22 414.64 679.99 424.33 683.55 433.96 687.84 443.65 691.63 453.32 694.31 462.99 695.94 472.76 695.58 482.59 693.1 492.49 688.92 502.55 682.73 512.74 674.87 523.05 665.99 533.57 656.19 544.25 645.92 555.07 635.75 566.07 625.79 577.19 616.29 588.36 607.61 599.6 599.62 610.78 592.29 621.77 585.86 632.62 579.91 643.08 574.27 652.99 569.19 662.43 564.11 671.07 558.86 678.71 553.77 685.56 548.28 691.2 542.31 695.47 536.25 698.77 529.61 700.62 522.39 700.99 515.02 700.48 507.08 698.63 498.63 695.58 490.06 692.07 481.03 687.75 471.62 682.85 462.15 678.23 452.35 673.57 442.28 669.14 432.19 665.75 421.87 663.06 411.35 661.24 400.83 660.92 390.37 661.59 380 663.15 369.62 666 359.3 669.4 349.07 673.13 338.82 677.49 328.63 681.67 318.52 685.41 308.38 689.04 298.31 691.77 288.34 693.43 278.36 694.42 268.5 694.08 258.81 692.38 249.18 689.77 239.79 685.78 230.71 680.49 221.81 674.35 213.3 667.06 205.28 658.8 197.54 649.93 190.35 640.31 183.78 630.11 177.51 619.6 171.85 608.72 166.8 597.62 161.94 586.45 157.56 575.2 153.62 563.95 149.61 552.8 145.86 541.71 142.29 530.75 138.4 519.93 134.57 509.24 130.79 498.68 126.62 488.25 122.54 477.93 118.61 467.72 114.51 457.59 110.77 447.53 107.55 437.52 104.5 427.55 102.2 417.61 100.74 407.67 99.7 397.76 99.56 387.84 100.34 377.93 101.41 368.01 103.18 358.34 105.47 348.92 107.67 339.5 110.15 330.35 112.79 321.49 115.06 312.64 117.39 304.1 119.79 295.9 121.84 287.72 124.08 279.91 126.58 272.47 128.99 265.06 131.89 258.03 135.35 251.4 139.02 244.78 143.4 238.54 148.49 232.68 153.95 226.77 160.11 221.19 166.91 215.93 174.01 210.54 181.63 205.39 189.67 200.46 197.81 195.28 206.23 190.23 214.85 185.28 223.39 179.99 232.03 174.73 240.75 169.47 249.28 163.82 257.86 158.16 266.5 152.49 274.94 146.47 283.48 140.48 292.12 134.6 300.61 128.5 309.26 122.62 318.1 117.06 326.84 111.52 335.81 106.47 345.03 102.03 354.2 97.89 363.64 94.53 373.37 92.06 383.08 90.11 393.1 89.16 403.44 89.28" stroke-dasharray="10 19" transform="rotate(16.16, 400, 400)" opacity="0.67"></path><path d="M408.1 102.28C418.07 102.96 428.07 104.61 438.08 107.17 448.08 110.12 458.09 113.83 468.04 118.19 477.96 122.71 487.8 127.71 497.46 133.07 507.03 138.35 516.35 143.85 525.32 149.49 534.08 154.85 542.38 160.26 550.09 165.69 557.46 170.75 564.15 175.8 570.08 180.84 575.62 185.52 580.39 190.22 584.39 194.98 589.78 201.73 598.63 215.69 603.23 223.12 607.16 228.05 611.69 233.31 616.96 238.91 623.39 244.48 630.67 250.42 638.69 256.74 647.52 263.07 656.62 269.79 665.59 276.88 674.26 283.99 681.91 291.48 688.06 299.29 692.73 307.14 695.28 315.3 695.56 323.76 694.16 332.23 690.82 340.98 685.95 349.97 680.67 358.97 675.06 368.21 669.76 377.66 665.92 387.12 663.46 396.59 662.53 406.03 663.56 415.5 665.8 424.97 668.83 434.45 672.67 443.98 676.22 453.55 678.95 463.16 680.92 472.86 681.24 482.65 679.72 492.52 676.71 502.52 671.82 512.65 665.26 522.88 657.6 533.26 648.83 543.75 639.34 554.33 629.64 565 619.84 575.7 610.2 586.36 601.1 596.99 592.46 607.47 584.36 617.65 577.03 627.6 570.18 637.09 563.72 645.95 557.87 654.31 552.18 661.84 546.52 668.38 541.16 674.17 535.61 678.8 529.76 682.16 523.97 684.66 517.76 685.86 511.09 685.74 504.36 684.89 497.13 682.88 489.44 679.83 481.66 676.46 473.43 672.4 464.79 667.88 456.1 663.66 447.03 659.43 437.64 655.42 428.23 652.37 418.51 649.92 408.54 648.24 398.56 647.91 388.57 648.43 378.59 649.75 368.62 652.23 358.66 655.21 348.75 658.5 338.84 662.43 328.97 666.22 319.16 669.67 309.38 673.12 299.67 675.81 290.08 677.6 280.55 678.88 271.18 679 262.03 677.92 253 676.07 244.26 672.96 235.89 668.66 227.72 663.59 219.99 657.42 212.77 650.28 205.81 642.55 199.4 634.03 193.56 624.87 187.97 615.35 182.92 605.37 178.39 595.08 173.95 584.64 169.9 574.03 166.19 563.33 162.33 552.64 158.64 541.95 155.07 531.31 151.16 520.75 147.27 510.28 143.42 499.92 139.21 489.65 135.09 479.48 131.16 469.42 127.1 459.44 123.43 449.53 120.28 439.72 117.34 429.95 115.14 420.24 113.77 410.59 112.82 400.96 112.76 391.38 113.58 381.86 114.7 372.34 116.49 363.1 118.8 354.15 121.04 345.2 123.54 336.54 126.21 328.19 128.52 319.85 130.88 311.83 133.29 304.15 135.33 296.47 137.5 289.14 139.87 282.17 142.1 275.2 144.72 268.58 147.82 262.33 151.07 256.04 154.95 250.08 159.48 244.46 164.33 238.74 169.88 233.31 176.07 228.13 182.57 222.79 189.64 217.64 197.19 212.65 204.91 207.41 212.99 202.26 221.34 197.18 229.7 191.77 238.23 186.37 246.89 180.98 255.43 175.24 264.06 169.49 272.74 163.76 281.28 157.73 289.88 151.76 298.57 145.93 307.12 139.94 315.79 134.19 324.58 128.79 333.29 123.43 342.17 118.58 351.23 114.34 360.25 110.38 369.49 107.2 378.96 104.87 388.41 103.03 398.12 102.14 408.09 102.28" stroke-dasharray="16 3" transform="rotate(20.200000000000003, 400, 400)" opacity="0.32"></path><path d="M411.14 115.28C420.7 115.93 430.22 117.52 439.66 119.95 449.1 122.77 458.44 126.32 467.64 130.5 476.81 134.85 485.78 139.68 494.49 144.89 503.08 150.05 511.35 155.46 519.18 161.03 526.82 166.37 533.96 171.8 540.5 177.26 546.79 182.4 552.44 187.55 557.43 192.7 562.2 197.5 566.36 202.33 569.98 207.2 573.59 211.76 576.88 216.43 579.98 221.21 583.49 225.76 587.15 230.51 591.14 235.46 595.96 240.28 601.39 245.37 607.51 250.74 614.59 256.05 622.3 261.68 630.51 267.64 639.21 273.58 647.9 279.88 656.2 286.51 664.01 293.15 670.7 300.13 675.86 307.45 679.62 314.77 681.43 322.42 681.2 330.37 679.54 338.32 676.21 346.57 671.57 355.09 666.64 363.62 661.44 372.42 656.52 381.48 652.89 390.54 650.45 399.66 649.34 408.81 649.99 417.98 651.74 427.21 654.25 436.49 657.62 445.81 660.86 455.21 663.52 464.67 665.7 474.21 666.53 483.85 665.8 493.57 663.83 503.38 660.13 513.3 654.85 523.29 648.45 533.37 640.85 543.51 632.34 553.66 623.4 563.84 614.09 573.97 604.67 583.96 595.5 593.86 586.56 603.51 577.98 612.79 569.98 621.78 562.39 630.24 555.18 638.03 548.54 645.33 542.16 651.78 535.93 657.27 530.07 662.07 524.18 665.79 518.16 668.34 512.31 670.15 506.2 670.8 499.77 670.28 493.37 669.18 486.58 667.08 479.4 664.1 472.18 660.9 464.56 657.13 456.55 652.98 448.5 649.16 440.08 645.34 431.32 641.73 422.54 639 413.43 636.79 404.02 635.24 394.62 634.9 385.15 635.3 375.66 636.38 366.19 638.52 356.71 641.11 347.25 643.98 337.81 647.47 328.41 650.87 319.09 654.02 309.82 657.23 300.65 659.83 291.64 661.67 282.73 663.14 274.01 663.61 265.56 663.04 257.27 661.83 249.31 659.5 241.73 656.08 234.38 651.98 227.46 646.86 221.05 640.8 214.86 634.17 209.18 626.74 204.01 618.65 199.02 610.17 194.47 601.17 190.35 591.79 186.23 582.2 182.41 572.35 178.83 562.34 175.03 552.27 171.35 542.13 167.73 531.97 163.76 521.84 159.8 511.73 155.87 501.7 151.63 491.73 147.51 481.83 143.59 472.04 139.6 462.29 136.01 452.64 132.97 443.09 130.16 433.57 128.07 424.14 126.81 414.81 125.96 405.49 125.97 396.25 126.82 387.11 127.98 377.97 129.78 369.13 132.09 360.61 134.35 352.08 136.88 343.86 139.57 335.97 141.92 328.06 144.33 320.48 146.76 313.23 148.81 305.97 150.96 299.03 153.24 292.43 155.34 285.8 157.75 279.5 160.54 273.51 163.41 267.46 166.83 261.7 170.83 256.22 175.11 250.62 180.02 245.25 185.56 240.08 191.41 234.73 197.85 229.53 204.79 224.46 211.97 219.13 219.56 213.86 227.48 208.65 235.49 203.13 243.75 197.61 252.18 192.12 260.58 186.3 269.11 180.5 277.72 174.75 286.25 168.75 294.85 162.84 303.52 157.1 312.09 151.25 320.74 145.66 329.49 140.44 338.16 135.3 346.95 130.65 355.87 126.62 364.75 122.87 373.8 119.86 383 117.68 392.2 115.95 401.58 115.13 411.13 115.28" stroke-dasharray="25 7" transform="rotate(24.24, 400, 400)" opacity="0.52"></path><path d="M411.96 128.28C421.06 128.91 430.04 130.42 438.86 132.73 447.67 135.41 456.3 138.78 464.71 142.77 473.07 146.94 481.17 151.58 488.93 156.61 496.59 161.63 503.87 166.91 510.7 172.38 517.37 177.68 523.55 183.08 529.19 188.55 534.67 193.74 539.61 198.95 544.04 204.18 548.4 209.1 552.34 214.04 555.95 219.01 559.72 223.7 563.37 228.45 567.04 233.3 571.2 237.92 575.65 242.68 580.49 247.61 586.12 252.38 592.29 257.38 599.02 262.61 606.5 267.74 614.38 273.16 622.51 278.86 630.86 284.51 638.96 290.47 646.48 296.75 653.37 303 659.09 309.58 663.31 316.47 666.23 323.36 667.38 330.56 666.74 338.07 664.89 345.57 661.6 353.37 657.21 361.47 652.64 369.56 647.84 377.95 643.28 386.63 639.86 395.31 637.45 404.08 636.2 412.92 636.5 421.77 637.8 430.72 639.81 439.74 642.69 448.79 645.58 457.93 648.09 467.16 650.34 476.43 651.52 485.8 651.42 495.24 650.31 504.73 647.68 514.3 643.59 523.9 638.44 533.53 632.06 543.16 624.67 552.74 616.71 562.29 608.16 571.71 599.28 580.92 590.39 589.98 581.51 598.72 572.79 607.03 564.43 615.02 556.36 622.45 548.6 629.19 541.31 635.44 534.28 640.88 527.46 645.4 521.02 649.3 514.66 652.2 508.3 654.05 502.16 655.28 495.91 655.48 489.47 654.67 483.12 653.4 476.51 651.27 469.61 648.4 462.72 645.41 455.5 641.95 447.96 638.17 440.4 634.73 432.51 631.32 424.29 628.09 416.07 625.65 407.53 623.67 398.7 622.24 389.88 621.89 380.98 622.18 372.06 623.05 363.16 624.87 354.24 627.09 345.36 629.56 336.51 632.63 327.72 635.65 319.04 638.47 310.42 641.42 301.93 643.88 293.64 645.7 285.46 647.27 277.52 647.99 269.88 647.81 262.4 647.13 255.26 645.46 248.52 642.81 241.98 639.58 235.86 635.4 230.2 630.34 224.72 624.75 219.68 618.39 215.08 611.35 210.56 603.92 206.4 595.94 202.57 587.52 198.66 578.87 194.96 569.89 191.43 560.67 187.64 551.35 183.9 541.88 180.2 532.33 176.16 522.77 172.12 513.17 168.14 503.61 163.88 494.06 159.77 484.55 155.91 475.13 152.01 465.74 148.54 456.42 145.62 447.2 142.96 438.01 141.01 428.91 139.85 419.92 139.1 410.94 139.18 402.05 140.06 393.29 141.25 384.52 143.05 376.07 145.35 367.94 147.62 359.8 150.16 351.97 152.86 344.46 155.26 336.93 157.71 329.71 160.18 322.81 162.27 315.88 164.42 309.25 166.66 302.94 168.67 296.57 170.93 290.48 173.48 284.68 176.04 278.79 179.07 273.14 182.58 267.73 186.31 262.18 190.62 256.82 195.51 251.62 200.68 246.23 206.43 240.95 212.7 235.78 219.22 230.35 226.19 224.97 233.54 219.64 241.05 214.02 248.86 208.42 256.89 202.85 264.98 197.01 273.24 191.2 281.62 185.47 289.98 179.53 298.43 173.73 306.96 168.11 315.44 162.43 323.99 157.04 332.6 152.02 341.17 147.11 349.82 142.7 358.55 138.88 367.26 135.35 376.06 132.52 384.96 130.48 393.86 128.87 402.86 128.12 411.95 128.28" stroke-dasharray="20 1" transform="rotate(28.28, 400, 400)" opacity="0.53"></path><path d="M410.4 141.28C418.99 141.88 427.39 143.31 435.57 145.49 443.73 148.03 451.65 151.22 459.3 155.01 466.9 158.98 474.18 163.42 481.11 168.25 487.96 173.1 494.42 178.22 500.45 183.56 506.38 188.77 511.87 194.11 516.92 199.54 521.9 204.74 526.49 209.99 530.71 215.26 534.99 220.27 539.03 225.3 542.91 230.36 547.07 235.16 551.27 240.02 555.61 244.94 560.48 249.64 565.67 254.46 571.26 259.41 577.51 264.19 584.2 269.14 591.29 274.3 598.9 279.33 606.7 284.61 614.51 290.12 622.32 295.57 629.7 301.29 636.35 307.29 642.3 313.25 647.06 319.51 650.41 326.05 652.58 332.58 653.17 339.4 652.18 346.53 650.21 353.64 647.01 361.05 642.89 368.75 638.66 376.45 634.25 384.45 630.03 392.75 626.82 401.05 624.47 409.45 623.1 417.95 623.1 426.46 623.97 435.07 625.52 443.76 627.91 452.48 630.41 461.29 632.69 470.17 634.9 479.08 636.28 488.07 636.64 497.09 636.23 506.14 634.5 515.23 631.48 524.29 627.51 533.35 622.34 542.35 616.13 551.23 609.28 560.04 601.7 568.65 593.61 577 585.33 585.15 576.84 592.94 568.31 600.25 559.95 607.25 551.72 613.66 543.68 619.39 535.97 624.66 528.48 629.16 521.19 632.8 514.23 635.9 507.39 638.1 500.65 639.35 494.13 640.1 487.6 639.95 481 638.93 474.53 637.56 467.91 635.48 461.11 632.76 454.36 630 447.37 626.85 440.14 623.44 432.92 620.39 425.43 617.35 417.68 614.48 409.93 612.32 401.91 610.55 393.64 609.25 385.38 608.89 377.07 609.07 368.76 609.75 360.47 611.28 352.19 613.15 343.98 615.25 335.8 617.9 327.71 620.54 319.75 623.03 311.87 625.7 304.16 627.96 296.67 629.71 289.28 631.3 282.16 632.19 275.36 632.3 268.69 632.03 262.36 630.89 256.43 628.9 250.63 626.42 245.23 623.08 240.23 618.92 235.34 614.31 230.81 608.94 226.64 602.92 222.47 596.52 218.57 589.56 214.92 582.12 211.12 574.44 207.45 566.38 203.89 558.03 200.04 549.54 196.23 540.85 192.42 532.02 188.31 523.14 184.22 514.17 180.19 505.18 175.96 496.17 171.9 487.17 168.11 478.22 164.34 469.27 161.02 460.38 158.25 451.57 155.74 442.78 153.94 434.06 152.9 425.45 152.25 416.85 152.39 408.34 153.3 399.96 154.5 391.57 156.3 383.49 158.58 375.71 160.84 367.93 163.37 360.45 166.08 353.27 168.52 346.06 171.01 339.15 173.52 332.53 175.67 325.87 177.85 319.48 180.09 313.37 182.07 307.19 184.22 301.26 186.61 295.57 188.93 289.78 191.63 284.19 194.74 278.79 197.98 273.26 201.73 267.87 206 262.61 210.51 257.16 215.56 251.8 221.11 246.52 226.91 241.01 233.18 235.54 239.86 230.11 246.73 224.43 253.93 218.78 261.42 213.18 269.01 207.35 276.82 201.58 284.8 195.91 292.81 190.09 300.95 184.43 309.18 178.98 317.4 173.51 325.71 168.34 334.07 163.55 342.41 158.89 350.81 154.72 359.26 151.13 367.7 147.82 376.19 145.18 384.71 143.29 393.24 141.8 401.81 141.11 410.39 141.28" stroke-dasharray="1 14" transform="rotate(32.32, 400, 400)" opacity="0.28"></path><path d="M406.77 154.28C414.81 154.85 422.63 156.2 430.18 158.25 437.72 160.63 444.99 163.64 451.95 167.21 458.88 170.98 465.49 175.2 471.75 179.8 477.97 184.46 483.82 189.4 489.31 194.57 494.75 199.65 499.85 204.89 504.62 210.24 509.4 215.41 513.93 220.64 518.23 225.93 522.68 230.98 527.04 236.08 531.38 241.2 536.05 246.09 540.85 251.04 545.85 256.04 551.35 260.83 557.15 265.71 563.29 270.69 569.94 275.51 576.9 280.47 584.08 285.59 591.57 290.58 599.05 295.77 606.34 301.17 613.46 306.48 620.01 312.03 625.75 317.82 630.76 323.56 634.63 329.56 637.17 335.82 638.68 342.05 638.8 348.57 637.56 355.35 635.51 362.12 632.44 369.18 628.59 376.52 624.71 383.86 620.67 391.48 616.79 399.39 613.79 407.31 611.5 415.34 610.04 423.45 609.77 431.58 610.27 439.8 611.37 448.1 613.3 456.41 615.39 464.8 617.38 473.24 619.44 481.69 620.9 490.19 621.56 498.7 621.66 507.2 620.68 515.68 618.56 524.1 615.65 532.48 611.63 540.75 606.59 548.85 600.9 556.83 594.41 564.58 587.3 572.01 579.86 579.24 572.05 586.06 564.03 592.39 556 598.41 547.94 603.85 539.93 608.63 532.12 613.01 524.42 616.66 516.88 619.52 509.58 621.93 502.4 623.53 495.34 624.3 488.49 624.67 481.67 624.26 474.88 623.11 468.22 621.72 461.5 619.71 454.69 617.19 447.96 614.68 441.08 611.85 434.06 608.81 427.06 606.12 419.87 603.44 412.51 600.9 405.14 599.01 397.58 597.43 389.85 596.25 382.11 595.89 374.38 595.98 366.7 596.49 359.02 597.75 351.41 599.29 343.89 601.04 336.41 603.31 329.06 605.57 321.87 607.73 314.74 610.09 307.81 612.13 301.13 613.76 294.53 615.3 288.2 616.26 282.19 616.57 273.48 616.25 257.88 611.27 251 606.61 246.55 602.86 242.4 598.41 238.52 593.33 234.57 587.91 230.81 581.93 227.22 575.47 223.43 568.76 219.73 561.64 216.09 554.2 212.16 546.6 208.25 538.75 204.36 530.71 200.19 522.59 196.06 514.33 192.04 506 187.86 497.64 183.89 489.24 180.22 480.84 176.61 472.43 173.46 464.04 170.85 455.7 168.53 447.37 166.88 439.1 165.96 430.91 165.42 422.73 165.62 414.62 166.55 406.62 167.75 398.62 169.53 390.91 171.77 383.47 174.01 376.03 176.52 368.87 179.22 361.97 181.69 355.06 184.22 348.4 186.77 342.01 188.98 335.57 191.22 329.37 193.49 323.4 195.47 317.37 197.58 311.54 199.86 305.91 202.02 300.19 204.47 294.62 207.25 289.21 210.08 283.67 213.35 278.23 217.07 272.91 220.96 267.41 225.34 261.98 230.19 256.61 235.26 251.04 240.79 245.52 246.73 240.03 252.86 234.34 259.36 228.69 266.17 223.11 273.12 217.34 280.33 211.66 287.74 206.11 295.23 200.45 302.88 194.97 310.64 189.72 318.45 184.49 326.35 179.56 334.3 175.03 342.28 170.64 350.3 166.73 358.35 163.37 366.4 160.29 374.48 157.84 382.56 156.09 390.64 154.72 398.71 154.1 406.76 154.28" stroke-dasharray="25 17" transform="rotate(36.36, 400, 400)" opacity="0.22"></path><path d="M401.79 167.27C409.27 167.83 416.52 169.09 423.5 171.01 430.47 173.23 437.17 176.05 443.57 179.4 449.96 182.94 456.06 186.92 461.85 191.29 467.62 195.72 473.1 200.45 478.29 205.42 483.5 210.34 488.45 215.43 493.18 220.65 498.01 225.74 502.68 230.92 507.25 236.17 512.03 241.23 516.81 246.34 521.66 251.49 526.84 256.44 532.18 261.44 537.73 266.49 543.7 271.36 549.91 276.29 556.35 281.32 563.15 286.18 570.11 291.16 577.12 296.27 584.25 301.25 591.21 306.4 597.82 311.71 604.14 316.94 609.81 322.36 614.64 327.99 618.76 333.56 621.79 339.36 623.62 345.39 624.56 351.38 624.3 357.63 622.87 364.12 620.81 370.59 617.9 377.32 614.33 384.32 610.79 391.3 607.11 398.56 603.55 406.08 600.75 413.61 598.54 421.23 597.01 428.93 596.52 436.63 596.68 444.42 597.39 452.25 598.86 460.1 600.53 467.99 602.19 475.91 604.03 483.82 605.45 491.74 606.27 499.63 606.72 507.5 606.29 515.3 604.92 522.99 602.92 530.62 599.91 538.09 595.98 545.35 591.43 552.48 586.07 559.33 580.03 565.83 573.59 572.13 566.68 578.01 559.41 583.4 552.01 588.5 544.43 593.04 536.77 596.97 529.16 600.53 521.57 603.44 514.04 605.63 506.66 607.45 499.37 608.57 492.16 608.96 485.12 609.05 478.13 608.47 471.2 607.26 464.39 605.89 457.58 604.02 450.76 601.71 444.02 599.46 437.21 596.95 430.34 594.27 423.49 591.92 416.55 589.59 409.51 587.37 402.47 585.72 395.32 584.33 388.07 583.25 380.82 582.9 373.64 582.91 366.55 583.26 359.47 584.27 352.5 585.52 345.66 586.95 338.86 588.85 332.21 590.75 325.75 592.57 319.34 594.63 313.15 596.42 307.2 597.88 298.51 599.81 282.59 600.74 275.42 599.5 268.57 597.16 256.16 588.67 250.47 582.63 246.62 578.11 242.9 573.05 239.29 567.51 235.46 561.74 231.68 555.55 227.93 549.02 223.93 542.32 219.93 535.34 215.97 528.13 211.78 520.82 207.66 513.34 203.68 505.73 199.6 498.08 195.76 490.34 192.24 482.56 188.82 474.76 185.87 466.94 183.45 459.13 181.32 451.33 179.83 443.54 179.03 435.81 178.59 428.09 178.85 420.41 179.79 412.81 180.99 405.21 182.74 397.86 184.92 390.76 187.13 383.65 189.61 376.78 192.29 370.15 194.76 363.5 197.32 357.07 199.91 350.87 202.19 344.62 204.48 338.57 206.8 332.72 208.83 326.8 210.94 321.06 213.17 315.47 215.23 309.79 217.51 304.24 220.05 298.81 222.58 293.26 225.45 287.8 228.7 282.42 232.06 276.89 235.84 271.42 240.03 266.01 244.4 260.43 249.2 254.89 254.39 249.4 259.76 243.75 265.5 238.16 271.57 232.64 277.78 227 284.27 221.46 290.99 216.07 297.81 210.61 304.83 205.36 312 200.35 319.22 195.38 326.56 190.74 333.98 186.48 341.44 182.37 348.95 178.72 356.49 175.61 364.05 172.75 371.62 170.5 379.18 168.9 386.75 167.65 394.29 167.1 401.78 167.27" stroke-dasharray="16 21" transform="rotate(40.400000000000006, 400, 400)" opacity="0.73"></path><path d="M396.45 180.27C403.38 180.79 410.09 181.97 416.57 183.76 423.04 185.82 429.27 188.45 435.25 191.57 441.23 194.87 446.96 198.61 452.46 202.71 457.97 206.9 463.26 211.39 468.36 216.12 473.5 220.84 478.49 225.75 483.36 230.81 488.35 235.77 493.29 240.84 498.2 245.99 503.34 251.01 508.53 256.08 513.82 261.21 519.41 266.18 525.15 271.19 531.06 276.26 537.27 281.17 543.64 286.14 550.13 291.18 556.82 296.08 563.52 301.08 570.14 306.17 576.71 311.16 582.99 316.27 588.82 321.52 594.28 326.68 599.06 332.01 603 337.5 606.28 342.94 608.56 348.57 609.77 354.39 610.25 360.18 609.69 366.18 608.15 372.4 606.12 378.6 603.38 385.03 600.11 391.68 596.89 398.33 593.56 405.21 590.31 412.33 587.71 419.45 585.59 426.64 584.02 433.88 583.35 441.13 583.22 448.43 583.56 455.75 584.6 463.07 585.86 470.41 587.17 477.73 588.73 485.04 590.01 492.32 590.86 499.53 591.51 506.69 591.47 513.76 590.66 520.67 589.38 527.51 587.25 534.15 584.28 540.55 580.79 546.81 576.52 552.78 571.57 558.38 566.21 563.78 560.31 568.77 553.97 573.29 547.41 577.54 540.55 581.27 533.51 584.43 526.41 587.3 519.21 589.57 511.99 591.2 504.82 592.55 497.66 593.28 490.55 593.4 483.54 593.28 476.57 592.61 469.65 591.41 462.82 590.12 456.03 588.41 449.26 586.34 442.55 584.36 435.84 582.17 429.13 579.83 422.45 577.81 415.73 575.8 408.99 573.87 402.25 572.44 395.48 571.22 388.67 570.25 381.86 569.9 375.18 569.84 368.64 570.06 362.1 570.85 355.72 571.84 349.51 572.96 343.31 574.51 337.29 576.08 331.48 577.58 322.92 580.08 306.99 583.86 299.67 584.77 292.62 585.02 279.69 582.5 273.75 579.63 267.86 575.8 256.54 565.04 250.98 558.24 247.07 553.35 243.2 548.05 239.35 542.38 235.28 536.57 231.23 530.45 227.24 524.07 223.07 517.59 219.02 510.91 215.13 504.06 211.19 497.15 207.52 490.12 204.2 483.01 201 475.86 198.26 468.66 196.05 461.43 194.12 454.19 192.79 446.94 192.12 439.71 191.78 432.47 192.08 425.25 193.03 418.07 194.22 410.9 195.92 403.92 198.04 397.15 200.2 390.38 202.64 383.81 205.27 377.43 207.74 371.04 210.3 364.82 212.92 358.8 215.26 352.73 217.62 346.82 219.99 341.08 222.09 335.27 224.24 329.6 226.46 324.06 228.5 318.43 230.69 312.9 233.07 307.48 235.38 301.94 237.96 296.48 240.84 291.09 243.76 285.57 247.04 280.11 250.67 274.7 254.42 269.16 258.55 263.66 263.03 258.23 267.66 252.68 272.65 247.2 277.95 241.82 283.38 236.35 289.1 231 295.08 225.82 301.15 220.62 307.44 215.62 313.91 210.89 320.44 206.22 327.12 201.87 333.9 197.9 340.72 194.08 347.63 190.72 354.57 187.85 361.54 185.23 368.53 183.17 375.52 181.72 382.52 180.58 389.5 180.09 396.44 180.27" stroke-dasharray="11 21" transform="rotate(44.44, 400, 400)" opacity="0.93"></path><path d="M391.81 193.27C398.22 193.76 404.44 194.85 410.48 196.51 416.52 198.41 422.38 200.83 428.04 203.72 433.72 206.78 439.23 210.26 444.56 214.09 449.93 218.01 455.17 222.23 460.28 226.7 465.46 231.18 470.57 235.86 475.63 240.71 480.82 245.49 486.02 250.41 491.24 255.42 496.66 260.33 502.15 265.31 507.74 270.36 513.55 275.28 519.47 280.27 525.49 285.3 531.7 290.2 537.98 295.17 544.25 300.19 550.6 305.1 556.83 310.08 562.85 315.15 568.73 320.12 574.23 325.19 579.22 330.36 583.81 335.47 587.71 340.7 590.82 346.07 594.16 354.12 595.38 370.97 593.39 379.81 591.44 385.74 588.9 391.86 585.92 398.17 583.03 404.48 580.02 410.98 577.06 417.68 574.67 424.38 572.65 431.11 571.07 437.87 570.24 444.63 569.87 451.4 569.88 458.16 570.53 464.92 571.39 471.66 572.34 478.34 573.59 485.01 574.67 491.6 575.44 498.08 576.15 504.52 576.33 510.82 575.92 516.94 575.18 522.98 573.74 528.8 571.59 534.35 569.01 539.77 565.73 544.88 561.82 549.63 557.51 554.21 552.66 558.38 547.32 562.1 541.73 565.6 535.77 568.63 529.54 571.13 523.18 573.4 516.63 575.14 509.96 576.34 503.27 577.31 496.51 577.76 489.74 577.68 483.01 577.45 476.27 576.75 469.57 575.61 462.91 574.43 456.29 572.91 449.7 571.09 443.15 569.38 436.62 567.5 430.13 565.49 423.66 563.78 417.2 562.06 410.77 560.41 404.34 559.19 397.92 558.13 391.52 557.25 385.13 556.91 378.9 556.8 372.84 556.89 363.85 557.86 346.8 560.94 338.77 562.75 330.96 564.81 316.42 568 309.68 568.84 303.11 569.19 290.85 567.41 285.06 565.18 279.24 562.16 267.82 553.39 262.12 547.72 258.15 543.63 254.2 539.14 250.28 534.29 246.18 529.31 242.14 524.01 238.17 518.44 234.09 512.78 230.15 506.88 226.41 500.79 222.67 494.64 219.21 488.34 216.11 481.91 213.16 475.45 210.66 468.89 208.66 462.26 206.93 455.63 205.78 448.94 205.23 442.22 204.98 435.5 205.33 428.76 206.27 422.03 207.44 415.29 209.09 408.7 211.13 402.28 213.22 395.85 215.59 389.58 218.16 383.47 220.61 377.33 223.16 371.35 225.78 365.5 228.17 359.62 230.58 353.87 233.01 348.24 235.18 342.56 237.39 336.98 239.65 331.51 241.7 325.96 243.87 320.5 246.17 315.11 248.35 309.63 250.74 304.22 253.36 298.87 255.96 293.42 258.85 288.02 262.02 282.68 265.26 277.24 268.81 271.85 272.68 266.55 276.65 261.16 280.94 255.85 285.52 250.66 290.21 245.42 295.17 240.32 300.39 235.4 305.7 230.48 311.24 225.79 316.97 221.36 322.76 217.01 328.72 212.98 334.8 209.31 340.93 205.8 347.16 202.71 353.47 200.1 359.79 197.71 366.17 195.84 372.57 194.54 378.98 193.52 385.4 193.08 391.8 193.27" stroke-dasharray="6 18" transform="rotate(48.48, 400, 400)" opacity="0.99"></path><path d="M388.81 206.27C394.71 206.73 400.5 207.73 406.16 209.25 411.83 210.99 417.37 213.21 422.8 215.86 433.7 221.64 444.24 228.86 454.48 237.17 465.03 245.6 475.58 254.79 486.22 264.47 497.45 273.88 508.96 283.64 520.6 293.61 532.6 303.19 544.29 313.03 555.05 323.11 564.97 332.85 572.91 342.97 578.12 353.48 581.34 363.79 581.46 374.64 578.63 386 576.79 391.66 574.46 397.48 571.77 403.43 569.18 409.39 566.49 415.49 563.82 421.75 561.63 428 559.72 434.26 558.14 440.5 557.21 446.75 556.62 452.97 556.36 459.14 557.46 471.46 558.97 483.53 560.1 495.08 561.34 506.44 560.76 517.08 558.02 526.69 554.01 535.84 547.62 543.68 539.22 549.92 529.79 555.46 518.94 559.24 507.19 561.12 495.13 562.38 482.64 561.92 470.05 559.88 457.51 557.86 444.97 554.86 432.6 551.25 426.43 549.82 420.3 548.38 414.2 546.98 408.12 545.95 402.07 545.03 396.06 544.25 387.15 543.84 370.25 544.44 362.27 545.31 351.74 547.52 341.95 549.54 332.95 551.04 323.84 552.93 315.41 553.64 307.61 552.93 299.48 551.88 291.74 549.1 284.33 544.63 276.3 539.58 268.41 532.88 260.71 524.78 252.48 516.22 244.64 506.48 237.55 495.83 230.63 484.96 225.06 473.4 221.29 461.39 219.77 455.37 218.79 449.25 218.35 443.08 218.19 436.9 218.58 430.66 219.52 424.38 220.65 418.1 222.24 411.93 224.19 405.87 226.2 399.81 228.48 393.86 230.97 388.03 235.62 376.32 240.66 365 245.83 354.09 250.08 343 254.52 332.2 259.23 321.69 263.39 310.9 268.26 300.31 273.95 289.99 279.67 279.38 286.48 269.06 294.34 259.22 302.47 249.3 311.62 240.05 321.6 231.79 331.78 223.87 342.64 217.28 353.94 212.36 359.61 210.2 365.38 208.53 371.2 207.37 377.02 206.45 382.9 206.08 388.8 206.27" stroke-dasharray="23 16" transform="rotate(52.52, 400, 400)" opacity="0.10"></path><path d="M388.03 219.27C398.91 220.35 409.58 223.34 419.98 228 430.45 233.26 440.79 239.89 451.02 247.56 461.51 255.41 472.1 264.03 482.76 273.18 493.79 282.18 504.92 291.57 515.91 301.21 526.91 310.56 537.3 320.18 546.51 329.99 554.79 339.55 561.1 349.41 564.92 359.56 567.12 369.56 566.71 379.96 563.88 390.73 560.37 401.46 555.68 412.65 550.58 424.24 547.05 435.83 544.48 447.29 543 458.44 543.43 469.56 544.26 480.29 544.92 490.41 545.97 500.35 545.69 509.5 543.76 517.62 540.97 525.35 536.18 531.83 529.57 536.87 522.06 541.37 513.08 544.32 503.06 545.66 492.61 546.59 481.52 546.08 470.12 544.28 458.66 542.6 447.06 540.12 435.53 537.12 424.03 535.04 412.61 533.02 401.39 531.25 390.17 531.01 379.64 531.18 369.83 531.65 359.97 533.3 350.76 534.77 342.22 535.8 333.51 537.29 325.32 537.81 317.61 537.17 309.54 536.38 301.76 534.14 294.22 530.46 286.17 526.37 278.28 520.83 270.65 513.99 262.69 506.8 255.23 498.45 248.6 489.18 242.26 479.71 237.25 469.48 233.96 458.7 231.57 447.86 231.14 436.57 232.76 424.97 235.1 413.36 238.9 402 243.7 390.97 248.24 379.89 253.22 369.07 258.4 358.54 262.8 347.89 267.36 337.44 272.11 327.23 276.27 316.83 280.95 306.62 286.23 296.69 291.38 286.59 297.4 276.81 304.29 267.55 311.29 258.31 319.22 249.76 327.94 242.19 336.79 234.99 346.35 229.04 356.43 224.63 366.57 220.99 377.15 219.13 388.02 219.27" stroke-dasharray="8 13" transform="rotate(56.56, 400, 400)" opacity="0.92"></path><path d="M389.64 232.27C399.65 233.25 409.64 235.95 419.56 240.14 429.54 244.88 439.55 250.89 449.54 257.88 459.72 265.1 469.98 273.08 480.24 281.61 490.65 290.08 500.97 298.98 510.91 308.15 520.62 317.13 529.52 326.38 537.12 335.81 543.79 345.06 548.62 354.56 551.28 364.25 552.65 373.84 551.88 383.72 549.14 393.85 545.99 403.94 541.86 414.34 537.34 424.98 534.1 435.61 531.53 445.98 529.78 455.94 529.63 465.86 529.83 475.29 530 484.05 530.7 492.66 530.48 500.45 529.02 507.23 527.09 513.71 523.54 519.05 518.43 523.09 512.62 526.75 505.42 529.08 497.12 530.05 488.4 530.79 478.88 530.34 468.89 528.82 458.76 527.51 448.34 525.53 437.85 523.08 427.35 521.45 416.83 519.79 406.43 518.25 396.03 517.98 386.2 517.95 376.98 518.09 367.7 519.24 358.94 520.21 350.69 520.8 342.27 521.86 334.24 522.13 326.56 521.47 318.56 520.78 310.78 518.91 303.21 515.82 295.27 512.48 287.54 507.87 280.15 502.1 272.61 496.07 265.66 488.96 259.6 480.94 253.9 472.77 249.48 463.8 246.66 454.2 244.65 444.55 244.41 434.36 246 423.74 248.23 413.13 251.81 402.6 256.34 392.26 260.72 381.89 265.59 371.66 270.72 361.64 275.21 351.54 279.87 341.57 284.68 331.82 288.93 321.94 293.55 312.25 298.61 302.87 303.41 293.4 308.89 284.28 315.07 275.71 321.24 267.23 328.19 259.44 335.87 252.6 343.6 246.13 352.02 240.82 361.03 236.94 370.06 233.71 379.63 232.1 389.64 232.27" stroke-dasharray="24 13" transform="rotate(60.599999999999994, 400, 400)" opacity="1.00"></path><path d="M393.3 245.27C402.48 246.15 411.77 248.55 421.09 252.28 430.45 256.51 439.91 261.88 449.37 268.18 458.92 274.71 468.5 281.98 477.95 289.81 487.4 297.65 496.56 305.94 505.17 314.51 513.42 322.98 520.74 331.72 526.78 340.63 531.97 349.42 535.53 358.43 537.23 367.57 537.98 376.63 537 385.9 534.44 395.3 531.66 404.68 528.08 414.25 524.1 423.9 521.16 433.55 518.65 442.84 516.7 451.63 516.07 460.39 515.72 468.59 515.38 476.1 515.48 486.77 511.3 503.31 506.02 508.76 501.59 511.77 495.93 513.65 489.23 514.41 482.15 515.06 474.23 514.74 465.71 513.55 457.04 512.6 447.94 511.08 438.6 509.15 429.25 507.91 419.73 506.58 410.2 505.25 400.66 504.96 391.53 504.76 382.85 504.64 374.13 505.35 365.77 505.87 357.79 506.06 349.66 506.7 341.8 506.69 334.21 505.93 326.38 505.24 318.73 503.58 311.31 500.92 303.65 498.11 296.27 494.24 289.31 489.35 282.34 484.28 276.01 478.24 270.6 471.33 265.58 464.31 261.77 456.5 259.42 448.03 257.78 439.52 257.7 430.41 259.24 420.8 261.34 411.19 264.67 401.55 268.9 391.99 273.06 382.41 277.75 372.89 282.75 363.49 287.26 354.06 291.97 344.72 296.83 335.57 301.18 326.36 305.81 317.34 310.76 308.63 315.41 299.91 320.57 291.57 326.26 283.77 331.85 276.11 338.09 269.13 344.96 263.04 351.81 257.31 359.31 252.65 367.39 249.26 375.47 246.46 384.13 245.07 393.3 245.27" stroke-dasharray="13 17" transform="rotate(64.64, 400, 400)" opacity="0.97"></path><path d="M398.3 258.27C406.66 259.05 415.17 261.16 423.73 264.44 432.32 268.14 440.99 272.88 449.63 278.46 458.28 284.27 466.85 290.79 475.18 297.84 483.39 304.96 491.19 312.52 498.33 320.38 505.07 328.2 510.88 336.3 515.48 344.55 519.39 352.75 521.89 361.12 522.86 369.58 523.17 378.01 522.1 386.56 519.78 395.17 517.39 403.77 514.32 412.44 510.85 421.09 508.22 429.75 505.81 437.96 503.75 445.64 502.75 453.3 501.94 460.37 501.15 466.75 500.65 475.81 496.84 489.59 492.66 494.07 487.05 497.39 470.61 499.42 460.29 498.49 453.04 497.89 445.27 496.79 437.15 495.32 428.99 494.42 420.55 493.38 411.93 492.25 403.31 491.95 394.93 491.63 386.83 491.29 378.7 491.63 370.8 491.77 363.15 491.6 355.41 491.84 347.84 491.56 340.5 490.66 333 489.89 325.67 488.33 318.61 485.95 311.44 483.53 304.59 480.21 298.23 476.02 291.96 471.73 286.36 466.58 281.65 460.64 277.35 454.62 274.14 447.87 272.24 440.45 270.94 433 271 424.94 272.49 416.35 274.44 407.76 277.5 399.05 281.39 390.34 285.28 381.64 289.72 372.92 294.5 364.28 298.94 355.64 303.61 347.06 308.45 338.66 312.86 330.25 317.52 322.02 322.41 314.11 327 306.25 331.98 298.76 337.36 291.8 342.58 285.01 348.32 278.87 354.58 273.55 360.78 268.56 367.54 264.53 374.84 261.63 382.11 259.22 389.95 258.06 398.3 258.27" stroke-dasharray="20 16" transform="rotate(68.68, 400, 400)" opacity="0.72"></path><path d="M403.64 271.27C411.16 271.95 418.79 273.78 426.45 276.61 434.12 279.8 441.8 283.9 449.37 288.75 456.9 293.83 464.26 299.55 471.27 305.78 478.13 312.1 484.49 318.85 490.16 325.89 495.47 332.95 499.89 340.27 503.25 347.75 506.1 355.21 507.79 362.83 508.24 370.51 508.27 378.17 507.21 385.91 505.18 393.65 503.17 401.38 500.58 409.12 497.61 416.76 495.27 424.41 493.02 431.58 490.94 438.22 489.08 447.85 486.23 463.92 484.43 470.14 478.29 478.77 461.13 484.17 452.67 483.66 446.72 483.37 440.21 482.66 433.27 481.59 426.29 480.99 418.93 480.2 411.29 479.25 403.64 478.95 396.07 478.54 388.65 478.04 381.21 478.08 373.88 477.9 366.73 477.44 359.52 477.33 352.43 476.78 345.54 475.73 338.58 474.83 331.8 473.3 325.31 471.11 318.82 468.94 312.68 466.03 307.06 462.4 301.6 458.72 296.79 454.31 292.82 449.21 289.22 444.06 286.61 438.23 285.13 431.8 284.14 425.34 284.32 418.29 285.73 410.72 287.52 403.14 290.29 395.41 293.81 387.63 297.38 379.86 301.49 372.04 305.97 364.28 310.23 356.53 314.76 348.83 319.48 341.3 323.88 333.79 328.5 326.47 333.31 319.46 337.86 312.52 342.71 305.95 347.86 299.89 352.84 294 358.22 288.7 364 284.14 369.7 279.88 375.87 276.46 382.48 274.03 389.06 272 396.12 271.05 403.64 271.27" stroke-dasharray="14 12" transform="rotate(72.72, 400, 400)" opacity="0.35"></path><path d="M408.25 284.27C414.9 284.85 421.58 286.4 428.22 288.81 434.85 291.5 441.4 294.97 447.77 299.1 454.08 303.42 460.13 308.33 465.78 313.69 471.27 319.16 476.25 325.03 480.57 331.19 484.6 337.38 487.86 343.83 490.22 350.42 492.24 357.03 493.32 363.77 493.45 370.56 493.33 377.36 492.38 384.2 490.66 391 489.01 397.81 486.87 404.58 484.36 411.21 482.33 417.84 480.26 424.02 478.24 429.68 476.1 437.89 472.33 451.45 470.21 456.66 464.5 464.06 450.26 469.2 443.33 469.1 438.46 469.08 433.07 468.69 427.22 467.97 421.34 467.61 415.04 467.04 408.39 466.26 401.74 465.95 395.07 465.49 388.44 464.89 381.81 464.69 375.22 464.27 368.74 463.58 362.25 463.18 355.85 462.41 349.64 461.23 343.42 460.2 337.4 458.67 331.68 456.61 323.38 453.3 309.38 443.72 304.16 437.43 300.22 430.53 297.53 413.91 298.97 404.3 300.59 397.74 303.04 391 306.17 384.21 309.37 377.43 313.08 370.59 317.18 363.79 321.15 357.01 325.41 350.29 329.89 343.73 334.15 337.2 338.62 330.86 343.27 324.82 347.72 318.86 352.4 313.25 357.31 308.11 362.08 303.12 367.14 298.66 372.49 294.86 377.77 291.3 383.4 288.47 389.36 286.48 395.29 284.81 401.6 284.04 408.25 284.27" stroke-dasharray="18 15" transform="rotate(76.76, 400, 400)" opacity="0.11"></path><path d="M411.22 297.27C422.69 298.52 433.92 302.85 444.24 309.52 454.34 316.83 463.09 326.06 469.62 336.42 475.37 346.99 478.48 358.44 478.57 370.08 478.18 381.77 475.53 393.58 471.12 404.84 468.07 416.11 464.6 425.69 461 433.3 458.79 440.84 455.62 446.38 451.18 449.78 447.01 453.27 440.9 454.91 432.97 454.8 424.95 455.39 415.11 454.85 403.83 453.26 392.55 453.04 380.97 451.95 369.72 450.03 358.52 449.01 347.71 446.56 338.04 442.59 328.73 438.87 320.99 433.21 315.71 425.7 311.45 418.17 310.12 408.72 312.21 397.58 315.24 386.43 320.88 374.73 328.15 363.17 335.2 351.71 343.38 340.52 352.2 330.36 360.49 320.54 369.64 312.05 379.47 305.71 389.09 300.14 399.74 297.1 411.22 297.27" stroke-dasharray="14 11" transform="rotate(80.80000000000001, 400, 400)" opacity="0.47"></path><path d="M411.95 310.27C421.52 311.26 430.55 314.71 438.54 320.05 446.37 325.88 452.87 333.33 457.49 341.75 461.67 350.38 463.8 359.8 463.68 369.4 463.4 379.06 461.39 388.83 457.88 398.13 455.29 407.42 452.07 415.31 448.51 421.59 444.26 430.2 431.76 439.61 422.49 440.79 415.86 441.64 407.79 441.47 398.5 440.26 389.22 439.99 379.65 438.79 370.37 436.8 361.18 435.45 352.42 432.93 344.72 429.22 337.38 425.75 331.43 420.8 327.54 414.43 324.39 408.08 323.56 400.22 325.46 391.03 328.03 381.83 332.76 372.22 338.92 362.78 345.05 353.43 352.27 344.37 360.11 336.24 367.67 328.38 375.92 321.67 384.61 316.74 393.17 312.38 402.37 310.04 411.95 310.27" stroke-dasharray="1 20" transform="rotate(84.84, 400, 400)" opacity="0.34"></path><path d="M410.3 323.26C417.93 324.01 424.87 326.64 430.8 330.72 436.63 335.13 441.3 340.83 444.5 347.34 447.5 354.01 448.99 361.35 448.87 368.89 448.75 376.48 447.31 384.18 444.64 391.55 442.54 398.91 439.72 405.2 436.45 410.27 432.15 417.31 420.56 425.61 412.76 427.08 407.3 428.05 400.82 428.14 393.47 427.26 386.13 426.97 378.65 425.8 371.48 423.89 364.39 422.41 357.75 419.97 352.04 416.63 344.47 411.36 337.27 395.58 338.7 385.13 340.79 377.84 344.57 370.31 349.53 362.98 354.56 355.72 360.56 348.77 367.12 342.6 373.57 336.63 380.58 331.6 387.86 327.97 395.08 324.72 402.67 323.02 410.3 323.26" stroke-dasharray="22 21" transform="rotate(88.88, 400, 400)" opacity="0.78"></path><path d="M406.6 336.26C417.95 337.6 426.57 344.14 431.02 353.35 435.22 362.99 435.46 374.63 431.39 385.58 428.58 396.51 423.03 404.57 415.99 409.01 409.68 413.81 400.66 415.77 389.74 414.26 378.82 414.06 368.15 410.64 360.27 404.89 353.06 399.63 349.61 391.16 351.94 380.31 355.31 369.45 363.4 358.35 373.45 349.58 383.46 341.3 395.25 336.08 406.6 336.26" stroke-dasharray="14 5" transform="rotate(92.92, 400, 400)" opacity="0.87"></path><path d="M401.59 349.26C409.07 350.04 414.6 354.11 417.46 359.92 420.31 365.95 420.68 373.41 418.15 380.65 416.17 387.89 412 393.5 406.74 396.87 401.81 400.43 395.3 402.11 388.05 401.26 377.49 399.65 364.36 387.09 365.18 376.91 367.42 369.71 372.74 362.67 379.41 357.29 386.16 352.14 394.1 349.01 401.59 349.26" stroke-dasharray="3 6" transform="rotate(96.96, 400, 400)" opacity="0.55"></path></g></svg>