<svg xmlns="http://www.w3.org/2000/svg" version="1.1" xmlns:xlink="http://www.w3.org/1999/xlink" xmlns:svgjs="http://svgjs.dev/svgjs" viewBox="0 0 800 800"><defs><filter id="bbburst-blur-1" x="-100%" y="-100%" width="400%" height="400%"><feGaussianBlur in="SourceGraphic" stdDeviation="1"></feGaussianBlur></filter><filter id="bbburst-blur-2" x="-100%" y="-100%" width="400%" height="400%"><feGaussianBlur in="SourceGraphic" stdDeviation="2"></feGaussianBlur></filter><filter id="bbburst-blur-3" x="-100%" y="-100%" width="400%" height="400%"><feGaussianBlur in="SourceGraphic" stdDeviation="4"></feGaussianBlur></filter><filter id="bbburst-blur-4" x="-100%" y="-100%" width="400%" height="400%"><feGaussianBlur in="SourceGraphic" stdDeviation="12"></feGaussianBlur></filter><symbol id="bbburst-shape-1" viewBox="0 0 194 167"><path d="m97 0 96.129 166.5H.871L97 0Z"></path></symbol><symbol id="bbburst-shape-3" viewBox="0 0 131 127"><path d="m66 0 66 63.5L66 127 0 63.5 66 0Z"></path></symbol><symbol id="bbburst-shape-5" viewBox="0 0 145 145"><circle cx="72.5" cy="72.5" r="72.5"></circle></symbol><symbol id="bbburst-shape-8" viewBox="0 0 87 168"><path d="m12 12 31.2546 18.0749c16.4102 9.4902 20.014 31.6325 7.4603 45.8369L36.3296 92.1884c-12.5684 14.2206-8.9394 36.3916 7.5068 45.8636L75 156" stroke-width="14" stroke-linecap="round" stroke-linejoin="round"></path></symbol><symbol id="bbburst-shape-10" viewBox="0 0 145 145"><circle cx="72.5" cy="72.5" r="61.5" fill="none" stroke-width="22"></circle></symbol><symbol id="bbburst-shape-12" viewBox="0 0 170 151"><path d="M69.3728 54.2122 85 10.0031l15.627 44.2091c1.413 3.9958 5.19 6.6672 9.428 6.6673h49.312l-39.149 26.1447c-3.803 2.5401-5.399 7.3367-3.875 11.6488l15.179 42.94-40.9683-27.36c-3.3621-2.245-7.7453-2.245-11.1074 0l-40.9682 27.36 15.1785-42.94c1.5243-4.3121-.0712-9.1087-3.8746-11.6488L10.6333 60.8795h49.3112c4.2381-.0001 8.0159-2.6715 9.4283-6.6673Z" stroke-width="12"></path></symbol><symbol id="bbburst-shape-14" viewBox="0 0 185 109"><path d="M168 16.5C168 58.1975 134.197 92 92.5 92 50.8025 92 17 58.1975 17 16.5" stroke-width="33" stroke-linecap="round"></path></symbol></defs><use xlink:href="#bbburst-shape-5" width="6.9036339490532015" opacity="0.9251071690578174" transform="matrix(0.9030058924521555,0.42962816271362636,-0.42962816271362636,0.9030058924521555,586.6207516587563,8.750983285311634)" fill="#b30000"></use><use xlink:href="#bbburst-shape-14" width="12.627400921392713" opacity="0.6805567979319767" transform="matrix(0.7628331044528762,0.6465954335987746,-0.6465954335987746,0.7628331044528762,574.1922452972112,-28.888808611337367)" fill="none" stroke="#b30000" filter="url(#bbburst-blur-1)"></use><use xlink:href="#bbburst-shape-10" width="7.1837284414583555" opacity="0.9002564859883718" transform="matrix(0.9715984141143238,0.23663584193974285,-0.23663584193974285,0.9715984141143238,471.2608919627813,-29.719574277809556)" fill="none" stroke="#b30000"></use><use xlink:href="#bbburst-shape-3" width="5.019930524449879" opacity="0.9769519221202718" transform="matrix(0.9922486848268791,-0.12426804681545714,0.12426804681545714,0.9922486848268791,357.402761700369,7.292444555399925)" fill="#b30000"></use><use xlink:href="#bbburst-shape-1" width="6.825485743186473" opacity="0.8924384840440762" transform="matrix(0.8239915546929506,0.5666020806480454,-0.5666020806480454,0.8239915546929506,661.139038024873,37.64853780433242)" fill="#b30000"></use><use xlink:href="#bbburst-shape-5" width="27.979205725813365" opacity="0.27941981176940633" transform="matrix(1.246577577214806,-0.09243562075987997,0.09243562075987997,1.246577577214806,606.4847932913641,-289.8928190178715)" fill="#b30000" filter="url(#bbburst-blur-3)"></use><use xlink:href="#bbburst-shape-3" width="23.323756832313926" opacity="0.12812173745427446" transform="matrix(1.2085134888688833,0.3193667910443407,-0.3193667910443407,1.2085134888688833,146.26032681550012,-225.13042301499905)" fill="#b30000" filter="url(#bbburst-blur-3)"></use><use xlink:href="#bbburst-shape-5" width="8.48411120874864" opacity="0.832325819548433" transform="matrix(0.884722163568605,-0.4661187544934087,0.4661187544934087,0.884722163568605,137.75235149132658,70.50332279767883)" fill="#b30000"></use><use xlink:href="#bbburst-shape-5" width="30.88388852406395" opacity="0.33295263149987175" transform="matrix(1.0770192437037582,-0.6344521642265749,0.6344521642265749,1.0770192437037582,-95.52983232120667,177.54638652227516)" fill="#b30000" filter="url(#bbburst-blur-3)"></use><use xlink:href="#bbburst-shape-5" width="13.965694620656137" opacity="0.7063171785936498" transform="matrix(0.7675558310470583,0.6409820950897612,-0.6409820950897612,0.7675558310470583,518.8790544125277,87.58020444334142)" fill="#b30000" filter="url(#bbburst-blur-1)"></use><use xlink:href="#bbburst-shape-5" width="19.94118650996623" opacity="0.4218707483339933" transform="matrix(0.8115871833713011,-0.5842313272903449,0.5842313272903449,0.8115871833713011,415.3221815162568,41.46114920914812)" fill="#b30000" filter="url(#bbburst-blur-2)"></use><use xlink:href="#bbburst-shape-10" width="26.416125704249694" opacity="0.32319969770344315" transform="matrix(1.2280074196368849,-0.2334475900855692,0.2334475900855692,1.2280074196368849,290.8711861573952,-392.6793543130294)" fill="none" stroke="#b30000" filter="url(#bbburst-blur-3)"></use><use xlink:href="#bbburst-shape-8" width="15.07689937584096" opacity="0.6633089814216486" transform="matrix(0.9915621542463531,0.12963214981759508,-0.12963214981759508,0.9915621542463531,595.0327719134889,-13.686732902591757)" fill="none" stroke="#b30000" filter="url(#bbburst-blur-1)"></use><use xlink:href="#bbburst-shape-14" width="7.396972613291394" opacity="0.8620071646526243" transform="matrix(0.9664692954762188,0.25678220518895234,-0.25678220518895234,0.9664692954762188,472.52843297402524,-43.635297220035795)" fill="none" stroke="#b30000"></use><use xlink:href="#bbburst-shape-12" width="9.061086145923158" opacity="0.8752530748102758" transform="matrix(0.765474814861129,0.6434658559809684,-0.6434658559809684,0.765474814861129,709.8219549690024,96.10029533100447)" fill="none" stroke="#b30000"></use><use xlink:href="#bbburst-shape-5" width="39.86132183951675" opacity="0.15800547774293439" transform="matrix(1.249424935193845,-0.03791215261438815,0.03791215261438815,1.249424935193845,714.9245174316143,33.441550738904425)" fill="#b30000" filter="url(#bbburst-blur-3)"></use><use xlink:href="#bbburst-shape-3" width="5.073689976111256" opacity="0.9598613305569773" transform="matrix(0.8700613142117597,0.49294351553915955,-0.49294351553915955,0.8700613142117597,586.3808531096088,66.61391939396105)" fill="#b30000"></use><use xlink:href="#bbburst-shape-10" width="35.877506795268495" opacity="0.1891340553099713" transform="matrix(1.1394337836188955,0.5139947983666062,-0.5139947983666062,1.1394337836188955,619.5091851562886,-428.2630723780238)" fill="none" stroke="#b30000" filter="url(#bbburst-blur-3)"></use><use xlink:href="#bbburst-shape-10" width="24.76050857457364" opacity="0.32298955393855155" transform="matrix(1.191958274484303,-0.376477717651926,0.376477717651926,1.191958274484303,99.03777589228417,-344.9286206440967)" fill="none" stroke="#b30000" filter="url(#bbburst-blur-3)"></use><use xlink:href="#bbburst-shape-8" width="7.918607348936666" opacity="0.8997056737710233" transform="matrix(0.8290650473598341,0.5591521682388758,-0.5591521682388758,0.8290650473598341,631.8767643716792,109.80327238546857)" fill="none" stroke="#b30000"></use><use xlink:href="#bbburst-shape-8" width="18.45360646102655" opacity="0.5523156191408181" transform="matrix(0.8857873701731657,0.4640913001142201,-0.4640913001142201,0.8857873701731657,505.2638787651721,229.47881960538427)" fill="none" stroke="#b30000" filter="url(#bbburst-blur-2)"></use><use xlink:href="#bbburst-shape-8" width="29.996820979720713" opacity="0.21648126613856822" transform="matrix(1.081811373269754,0.6262460799591553,-0.6262460799591553,1.081811373269754,333.7408881773338,142.26152861728485)" fill="none" stroke="#b30000" filter="url(#bbburst-blur-3)"></use><use xlink:href="#bbburst-shape-3" width="13.676863882444717" opacity="0.7165824498796197" transform="matrix(0.908465580762207,-0.4179596733781694,0.4179596733781694,0.908465580762207,209.27843868300002,-86.8683715383093)" fill="#b30000" filter="url(#bbburst-blur-1)"></use><use xlink:href="#bbburst-shape-10" width="30.342619508118386" opacity="0.4795046960054532" transform="matrix(0.988714120987789,0.1498145085074996,-0.1498145085074996,0.988714120987789,633.6772333113894,140.92538863980877)" fill="none" stroke="#b30000" filter="url(#bbburst-blur-2)"></use><use xlink:href="#bbburst-shape-8" width="6.66767002960325" opacity="0.8851893826845927" transform="matrix(0.9967219775533239,-0.08090302504969353,0.08090302504969353,0.9967219775533239,359.74294450335395,53.0429267659016)" fill="none" stroke="#b30000"></use><use xlink:href="#bbburst-shape-8" width="22.535825030512402" opacity="0.37080291872265203" transform="matrix(0.7298699527291581,0.6835860239232049,-0.6835860239232049,0.7298699527291581,922.8891728717364,-16.992447075941584)" fill="none" stroke="#b30000" filter="url(#bbburst-blur-2)"></use><use xlink:href="#bbburst-shape-3" width="8.972958739153778" opacity="0.8558904410934018" transform="matrix(0.9590330896528712,0.28329407503664455,-0.28329407503664455,0.9590330896528712,454.98590571606843,51.0204484295478)" fill="#b30000"></use><use xlink:href="#bbburst-shape-12" width="6.0894622452082885" opacity="0.9539296005637712" transform="matrix(0.9996829631855563,0.02517882277918761,-0.02517882277918761,0.9996829631855563,387.11716924976315,5.8149265926192015)" fill="none" stroke="#b30000"></use><use xlink:href="#bbburst-shape-10" width="11.947733636377588" opacity="0.7175023493846853" transform="matrix(0.9998311490060154,0.01837589391868893,-0.01837589391868893,0.9998311490060154,291.45142935782616,-63.89168451279534)" fill="none" stroke="#b30000" filter="url(#bbburst-blur-1)"></use><use xlink:href="#bbburst-shape-14" width="10.745685138756725" opacity="0.7370875582766483" transform="matrix(0.7553957936766447,0.655268795911748,-0.655268795911748,0.7553957936766447,717.636169212642,196.53580282850237)" fill="none" stroke="#b30000" filter="url(#bbburst-blur-1)"></use><use xlink:href="#bbburst-shape-14" width="38.129771537614594" opacity="0.12411482013241681" transform="matrix(1.249860317912121,-0.018686511408290224,0.018686511408290224,1.249860317912121,87.29085163528896,176.45294938046362)" fill="none" stroke="#b30000" filter="url(#bbburst-blur-3)"></use><use xlink:href="#bbburst-shape-8" width="27.542574121335633" opacity="0.17103713019140787" transform="matrix(1.2397636668123986,-0.1596435105222763,0.1596435105222763,1.2397636668123986,688.8888639208909,-44.84565103170223)" fill="none" stroke="#b30000" filter="url(#bbburst-blur-3)"></use><use xlink:href="#bbburst-shape-3" width="28.35510737699078" opacity="0.4491350078136239" transform="matrix(0.8293109204720066,0.5587874347065018,-0.5587874347065018,0.8293109204720066,763.8107427747592,256.00073715386674)" fill="#b30000" filter="url(#bbburst-blur-2)"></use><use xlink:href="#bbburst-shape-5" width="28.172545655263512" opacity="0.27839406017604396" transform="matrix(1.2270196390741226,0.23858500649959105,-0.23858500649959105,1.2270196390741226,578.929461752305,214.51939610763105)" fill="#b30000" filter="url(#bbburst-blur-3)"></use><use xlink:href="#bbburst-shape-8" width="30.81235892560879" opacity="0.12505466198005932" transform="matrix(1.2452424199025827,-0.10895556743535442,0.10895556743535442,1.2452424199025827,193.055660948437,269.9591541099189)" fill="none" stroke="#b30000" filter="url(#bbburst-blur-3)"></use><use xlink:href="#bbburst-shape-14" width="14.680641600103339" opacity="0.6442922548147301" transform="matrix(0.9811987271208994,0.1930001499904258,-0.1930001499904258,0.9811987271208994,311.4881783881377,28.435712113484612)" fill="none" stroke="#b30000" filter="url(#bbburst-blur-1)"></use><use xlink:href="#bbburst-shape-8" width="6.735217227030937" opacity="0.914156511819175" transform="matrix(0.894573109288656,-0.44692163981801813,0.44692163981801813,0.894573109288656,256.04856450154546,51.49568442214496)" fill="none" stroke="#b30000"></use><use xlink:href="#bbburst-shape-10" width="31.004807494886855" opacity="0.25907542538961337" transform="matrix(1.2025806147270708,0.34102766028969067,-0.34102766028969067,1.2025806147270708,373.76800546632126,214.39718256423373)" fill="none" stroke="#b30000" filter="url(#bbburst-blur-3)"></use><use xlink:href="#bbburst-shape-14" width="5.859336322993178" opacity="0.928947706706517" transform="matrix(0.8284294168347517,0.5600934755224642,-0.5600934755224642,0.8284294168347517,612.6038009910054,36.313806608933646)" fill="none" stroke="#b30000"></use><use xlink:href="#bbburst-shape-10" width="28.967078955705333" opacity="0.3786714545233023" transform="matrix(0.9892155612310628,-0.14646697040054255,0.14646697040054255,0.9892155612310628,145.03276448156683,-205.7714274039397)" fill="none" stroke="#b30000" filter="url(#bbburst-blur-2)"></use><use xlink:href="#bbburst-shape-5" width="7.5966299477324775" opacity="0.9247427642035839" transform="matrix(0.9783925036435717,0.20675615786250146,-0.20675615786250146,0.9783925036435717,445.19976633516535,10.173914803502441)" fill="#b30000"></use><use xlink:href="#bbburst-shape-1" width="34.75488721938589" opacity="0.3197543969311264" transform="matrix(1.0033925221561713,-0.7454551941472254,0.7454551941472254,1.0033925221561713,168.62945823284355,-282.65637065897363)" fill="#b30000" filter="url(#bbburst-blur-3)"></use><use xlink:href="#bbburst-shape-8" width="14.569333214064097" opacity="0.7457128902036336" transform="matrix(0.9670056768328591,0.254754825220297,-0.254754825220297,0.9670056768328591,418.60998383703725,-73.98296584065355)" fill="none" stroke="#b30000" filter="url(#bbburst-blur-1)"></use><use xlink:href="#bbburst-shape-10" width="26.17679059426602" opacity="0.2877972026963832" transform="matrix(1.2058003107768387,-0.3294626086985881,0.3294626086985881,1.2058003107768387,250.64252746118825,242.4782715394823)" fill="none" stroke="#b30000" filter="url(#bbburst-blur-3)"></use><use xlink:href="#bbburst-shape-8" width="26.283196205668762" opacity="0.22611294408076232" transform="matrix(1.2036444772551285,-0.3372535728101753,0.3372535728101753,1.2036444772551285,542.191219070599,111.33813506573608)" fill="none" stroke="#b30000" filter="url(#bbburst-blur-3)"></use><use xlink:href="#bbburst-shape-8" width="5.819171147236827" opacity="0.9810949640633255" transform="matrix(0.8508639918008483,-0.5253860175687263,0.5253860175687263,0.8508639918008483,189.10761523478553,52.855151518083915)" fill="none" stroke="#b30000"></use><use xlink:href="#bbburst-shape-12" width="26.43595008078166" opacity="0.17327141318492378" transform="matrix(1.240500887818824,-0.15381010149112267,0.15381010149112267,1.240500887818824,663.7455720903702,-241.41260165384824)" fill="none" stroke="#b30000" filter="url(#bbburst-blur-3)"></use><use xlink:href="#bbburst-shape-10" width="6.908544796170846" opacity="0.8594573630620861" transform="matrix(0.9707292391086699,-0.24017648581720621,0.24017648581720621,0.9707292391086699,315.12326942206045,74.08638487285691)" fill="none" stroke="#b30000"></use><use xlink:href="#bbburst-shape-8" width="7.546594905704481" opacity="0.9105051898495119" transform="matrix(0.999004573270304,-0.04460787581826657,0.04460787581826657,0.999004573270304,342.52539318021866,18.891619261474318)" fill="none" stroke="#b30000"></use><use xlink:href="#bbburst-shape-14" width="26.50439347295438" opacity="0.32155137542569645" transform="matrix(1.2047244752651705,-0.3333750720990697,0.3333750720990697,1.2047244752651705,399.6488157923804,-343.92915032445876)" fill="none" stroke="#b30000" filter="url(#bbburst-blur-3)"></use><use xlink:href="#bbburst-shape-10" width="8.988624909512057" opacity="0.758951696651992" transform="matrix(0.9767732868767299,0.2142753976639163,-0.2142753976639163,0.9767732868767299,581.8882894750769,-32.31940693433461)" fill="none" stroke="#b30000" filter="url(#bbburst-blur-1)"></use><use xlink:href="#bbburst-shape-14" width="18.699956922414696" opacity="0.6538386911283707" transform="matrix(0.9541186114118483,0.2994289153664462,-0.2994289153664462,0.9541186114118483,583.271963082752,153.48692659393117)" fill="none" stroke="#b30000" filter="url(#bbburst-blur-1)"></use><use xlink:href="#bbburst-shape-8" width="19.911657762201443" opacity="0.4637545999160234" transform="matrix(0.9644511188307545,0.26426130890863664,-0.26426130890863664,0.9644511188307545,414.76933442734304,-215.60211677007985)" fill="none" stroke="#b30000" filter="url(#bbburst-blur-2)"></use><use xlink:href="#bbburst-shape-14" width="17.49601414080647" opacity="0.47754030113160795" transform="matrix(0.8393915911526225,0.5435271444024379,-0.5435271444024379,0.8393915911526225,486.6404908574038,-140.6017677981695)" fill="none" stroke="#b30000" filter="url(#bbburst-blur-2)"></use><use xlink:href="#bbburst-shape-3" width="35.508886195352005" opacity="0.20755193107133196" transform="matrix(1.2350886718656022,-0.1924992795551787,0.1924992795551787,1.2350886718656022,92.58542605326681,-380.0184300011515)" fill="#b30000" filter="url(#bbburst-blur-3)"></use><use xlink:href="#bbburst-shape-1" width="17.677409056216575" opacity="0.6161429064187859" transform="matrix(0.9688001115559518,-0.24784338572811532,0.24784338572811532,0.9688001115559518,454.4894955880806,-44.75418634125475)" fill="#b30000" filter="url(#bbburst-blur-1)"></use><use xlink:href="#bbburst-shape-10" width="18.79284377606846" opacity="0.5828851248078837" transform="matrix(0.9972855618106887,-0.07363089164161278,0.07363089164161278,0.9972855618106887,254.45100607026538,156.18470527324348)" fill="none" stroke="#b30000" filter="url(#bbburst-blur-1)"></use><use xlink:href="#bbburst-shape-10" width="29.433841208770055" opacity="0.3253139508357382" transform="matrix(1.2489116713069697,0.052150141641527197,-0.052150141641527197,1.2489116713069697,99.14739702412449,-113.27896434394694)" fill="none" stroke="#b30000" filter="url(#bbburst-blur-3)"></use><use xlink:href="#bbburst-shape-1" width="8.725207405503422" opacity="0.8435313849502164" transform="matrix(0.9997893163772724,-0.020526150585686714,0.020526150585686714,0.9997893163772724,360.52536265599986,65.25375983416524)" fill="#b30000"></use><use xlink:href="#bbburst-shape-5" width="8.480718591506056" opacity="0.787155774289038" transform="matrix(0.9909973415237647,-0.1338815487392899,0.1338815487392899,0.9909973415237647,416.3417855468289,-56.52295044312643)" fill="#b30000"></use><use xlink:href="#bbburst-shape-5" width="21.295506137667832" opacity="0.5111853915940122" transform="matrix(0.8510801136345212,0.5250358465627376,-0.5250358465627376,0.8510801136345212,417.63009858288444,-67.58845416414528)" fill="#b30000" filter="url(#bbburst-blur-2)"></use><use xlink:href="#bbburst-shape-14" width="26.908908336627963" opacity="0.09249570073800228" transform="matrix(1.5875385631630943,-0.7363567820493393,0.7363567820493393,1.5875385631630943,391.31540246917496,-494.13318962279595)" fill="none" stroke="#b30000" filter="url(#bbburst-blur-4)"></use><use xlink:href="#bbburst-shape-10" width="12.252964971348693" opacity="0.7316535023492707" transform="matrix(0.7742745305438494,0.6328498647792394,-0.6328498647792394,0.7742745305438494,540.6260202099288,140.88824366602472)" fill="none" stroke="#b30000" filter="url(#bbburst-blur-1)"></use><use xlink:href="#bbburst-shape-5" width="15.734046832731662" opacity="0.5970296176980269" transform="matrix(0.9481967919698334,0.31768355906171236,-0.31768355906171236,0.9481967919698334,508.03875209601335,199.18892325904227)" fill="#b30000" filter="url(#bbburst-blur-1)"></use><use xlink:href="#bbburst-shape-3" width="28.40424772950822" opacity="0.46935166358210156" transform="matrix(0.890213577659369,-0.45554339656163,0.45554339656163,0.890213577659369,302.94205546613193,-167.36747411811552)" fill="#b30000" filter="url(#bbburst-blur-2)"></use><use xlink:href="#bbburst-shape-3" width="8.84361384054861" opacity="0.8006284057783635" transform="matrix(0.9465765519804968,0.32247919505095807,-0.32247919505095807,0.9465765519804968,563.2635899359279,100.9741613811886)" fill="#b30000"></use><use xlink:href="#bbburst-shape-1" width="11.843798570498791" opacity="0.7128090370195674" transform="matrix(0.8752802689537437,-0.48361601584341907,0.48361601584341907,0.8752802689537437,76.25820595391417,85.1233402419478)" fill="#b30000" filter="url(#bbburst-blur-1)"></use><use xlink:href="#bbburst-shape-10" width="25.94853184430175" opacity="0.4778587354915552" transform="matrix(0.9627301624737956,-0.27046373927604256,0.27046373927604256,0.9627301624737956,249.79039892751484,251.51709960039267)" fill="none" stroke="#b30000" filter="url(#bbburst-blur-2)"></use><use xlink:href="#bbburst-shape-12" width="5.576754461781317" opacity="0.916458695119868" transform="matrix(0.9853785146209643,-0.17037952612735538,0.17037952612735538,0.9853785146209643,366.1544760899384,-0.023392483845384504)" fill="none" stroke="#b30000"></use><use xlink:href="#bbburst-shape-8" width="6.168402164388558" opacity="0.9025270683572516" transform="matrix(0.9958798305194525,-0.09068276112110077,0.09068276112110077,0.9958798305194525,387.27796469942353,36.78727148335696)" fill="none" stroke="#b30000"></use><use xlink:href="#bbburst-shape-14" width="25.809229934610794" opacity="0.1882357937859952" transform="matrix(0.9745103234249908,0.7828343563858959,-0.7828343563858959,0.9745103234249908,339.98455800331215,-58.57542679721644)" fill="none" stroke="#b30000" filter="url(#bbburst-blur-3)"></use><use xlink:href="#bbburst-shape-10" width="16.91213126729045" opacity="0.6946285684634039" transform="matrix(0.999834876781866,-0.018171933595268516,0.018171933595268516,0.999834876781866,384.9931226250371,137.6349880538388)" fill="none" stroke="#b30000" filter="url(#bbburst-blur-1)"></use><use xlink:href="#bbburst-shape-10" width="28.113396759478256" opacity="0.4038546677456111" transform="matrix(0.7757532274685871,-0.6310363936193146,0.6310363936193146,0.7757532274685871,-94.27675619938469,235.04200019969346)" fill="none" stroke="#b30000" filter="url(#bbburst-blur-2)"></use><use xlink:href="#bbburst-shape-14" width="31.673269401472176" opacity="0.3321183290547539" transform="matrix(1.2479554070563523,0.07146539021662322,-0.07146539021662322,1.2479554070563523,121.72008483130232,-189.15473962759387)" fill="none" stroke="#b30000" filter="url(#bbburst-blur-3)"></use><use xlink:href="#bbburst-shape-14" width="7.112478019186212" opacity="0.8830740972078219" transform="matrix(0.9785544310256684,0.20598841113040905,-0.20598841113040905,0.9785544310256684,428.30157401865824,22.241006799246122)" fill="none" stroke="#b30000"></use><use xlink:href="#bbburst-shape-1" width="36.16252701464053" opacity="0.21983658511172155" transform="matrix(1.2019686227426223,-0.3431784228971912,0.3431784228971912,1.2019686227426223,-66.14994825379537,-244.53944729347222)" fill="#b30000" filter="url(#bbburst-blur-3)"></use><use xlink:href="#bbburst-shape-8" width="5.666452199217666" opacity="0.9480850331354849" transform="matrix(0.9768967178002744,0.2137119621150181,-0.2137119621150181,0.9768967178002744,486.5608542158037,-14.407522503149778)" fill="none" stroke="#b30000"></use><use xlink:href="#bbburst-shape-10" width="41.9661624405437" opacity="0.027926809490318227" transform="matrix(1.5039280356668168,-0.8948186763447386,0.8948186763447386,1.5039280356668168,-352.36878184223735,61.46415015237028)" fill="none" stroke="#b30000" filter="url(#bbburst-blur-4)"></use><use xlink:href="#bbburst-shape-3" width="4.999133219601819" opacity="0.9639540404632794" transform="matrix(0.89749791609897,0.44101869642681374,-0.44101869642681374,0.89749791609897,578.486564469357,55.51948135590061)" fill="#b30000"></use><use xlink:href="#bbburst-shape-8" width="41.52741628625917" opacity="0.12330028695612483" transform="matrix(0.9109583160614809,0.8559526542972054,-0.8559526542972054,0.9109583160614809,1007.6714010939684,291.46663334504774)" fill="none" stroke="#b30000" filter="url(#bbburst-blur-3)"></use><use xlink:href="#bbburst-shape-1" width="30.11963621907536" opacity="0.03092850638964406" transform="matrix(1.3465236633328421,-1.117754008753582,1.117754008753582,1.3465236633328421,-431.78630618704835,-361.1903015062369)" fill="#b30000" filter="url(#bbburst-blur-4)"></use><use xlink:href="#bbburst-shape-10" width="7.472516062669754" opacity="0.8903541951480433" transform="matrix(0.8964989208427939,0.4430459174032709,-0.4430459174032709,0.8964989208427939,553.2522870723249,84.57204007049819)" fill="none" stroke="#b30000"></use><use xlink:href="#bbburst-shape-3" width="30.170684345490073" opacity="0.26840972456283785" transform="matrix(1.089470141225401,0.6128252698594476,-0.6128252698594476,1.089470141225401,543.3098693342631,-363.0871202613881)" fill="#b30000" filter="url(#bbburst-blur-3)"></use><use xlink:href="#bbburst-shape-8" width="19.871702824663004" opacity="0.3936343654741793" transform="matrix(0.9994058295602545,-0.034467199494295435,0.034467199494295435,0.9994058295602545,410.10612301046626,271.34028655366535)" fill="none" stroke="#b30000" filter="url(#bbburst-blur-2)"></use><use xlink:href="#bbburst-shape-14" width="26.640664329340346" opacity="0.12416413658389103" transform="matrix(1.1808774139711602,-0.4099128360673581,0.4099128360673581,1.1808774139711602,65.61931559579537,-429.3439816691589)" fill="none" stroke="#b30000" filter="url(#bbburst-blur-3)"></use><use xlink:href="#bbburst-shape-3" width="19.362140635834486" opacity="0.48590425231386813" transform="matrix(0.8564791467678741,0.5161816261276397,-0.5161816261276397,0.8564791467678741,382.56014055515124,-31.618329411041316)" fill="#b30000" filter="url(#bbburst-blur-2)"></use><use xlink:href="#bbburst-shape-10" width="6.152048130611517" opacity="0.9165551529101943" transform="matrix(0.7953774879836035,0.6061143882213098,-0.6061143882213098,0.7953774879836035,613.3901057631144,53.48977765054485)" fill="none" stroke="#b30000"></use><use xlink:href="#bbburst-shape-8" width="19.142537994358428" opacity="0.5469631102918446" transform="matrix(0.7157507842280765,-0.698355793902287,0.698355793902287,0.7157507842280765,315.4555474793173,90.39257128831542)" fill="none" stroke="#b30000" filter="url(#bbburst-blur-2)"></use><use xlink:href="#bbburst-shape-10" width="33.47180437621538" opacity="0.10562826689599236" transform="matrix(1.4517668908225596,0.9771759793974666,-0.9771759793974666,1.4517668908225596,473.00144663183903,-472.3699674994631)" fill="none" stroke="#b30000" filter="url(#bbburst-blur-4)"></use><use xlink:href="#bbburst-shape-10" width="12.903429484758822" opacity="0.7384693779913747" transform="matrix(0.9982572236058529,-0.059012841981506976,0.059012841981506976,0.9982572236058529,486.7981379326908,-13.000206429363232)" fill="none" stroke="#b30000" filter="url(#bbburst-blur-1)"></use><use xlink:href="#bbburst-shape-8" width="18.43331930037019" opacity="0.5423591002463086" transform="matrix(0.9521488498574813,-0.3056346965170603,0.3056346965170603,0.9521488498574813,354.54479570832166,209.2744089597618)" fill="none" stroke="#b30000" filter="url(#bbburst-blur-2)"></use><use xlink:href="#bbburst-shape-14" width="34.673456153162235" opacity="0.1257637900852666" transform="matrix(0.9527876221407962,-0.8091327129064103,0.8091327129064103,0.9527876221407962,239.5475487770115,-317.0187638614923)" fill="none" stroke="#b30000" filter="url(#bbburst-blur-3)"></use><use xlink:href="#bbburst-shape-3" width="18.8251567697575" opacity="0.5737311996161267" transform="matrix(0.9448039015915188,0.32763636479707736,-0.32763636479707736,0.9448039015915188,337.46813926600123,71.01635551620154)" fill="#b30000" filter="url(#bbburst-blur-1)"></use><use xlink:href="#bbburst-shape-5" width="44.49783755090255" opacity="-0.10012384109051453" transform="matrix(1.6545698825244919,-0.5699986875799706,0.5699986875799706,1.6545698825244919,489.3651987218757,96.74231729884696)" fill="#b30000" filter="url(#bbburst-blur-4)"></use><use xlink:href="#bbburst-shape-12" width="17.7764235779063" opacity="0.6769637889695418" transform="matrix(0.9903222823474965,-0.138786804437761,0.138786804437761,0.9903222823474965,375.73472852860675,-134.66581207722146)" fill="none" stroke="#b30000" filter="url(#bbburst-blur-1)"></use><use xlink:href="#bbburst-shape-3" width="21.29285848335973" opacity="0.5646667199680951" transform="matrix(0.9998699803408431,-0.016125210485509973,0.016125210485509973,0.9998699803408431,421.96312775762357,-191.72525210606779)" fill="#b30000" filter="url(#bbburst-blur-1)"></use><use xlink:href="#bbburst-shape-8" width="35.27113194588564" opacity="0.1318748203090574" transform="matrix(0.9934926024986586,0.7585990039411088,-0.7585990039411088,0.9934926024986586,319.4334709174057,124.50532992467521)" fill="none" stroke="#b30000" filter="url(#bbburst-blur-3)"></use><use xlink:href="#bbburst-shape-10" width="12.76883680398389" opacity="0.6394191487601041" transform="matrix(0.9903501377004981,0.1385878954187719,-0.1385878954187719,0.9903501377004981,333.9962304967818,117.32999341820255)" fill="none" stroke="#b30000" filter="url(#bbburst-blur-1)"></use><use xlink:href="#bbburst-shape-8" width="6.674153201269053" opacity="0.8842299751861848" transform="matrix(0.7360181925400502,0.6769617568593351,-0.6769617568593351,0.7360181925400502,661.2876235090848,51.71512924111664)" fill="none" stroke="#b30000"></use><use xlink:href="#bbburst-shape-12" width="6.438033103942314" opacity="0.8929068625592418" transform="matrix(0.968056125167528,-0.2507336007112554,0.2507336007112554,0.968056125167528,262.86190787235705,47.9979047397282)" fill="none" stroke="#b30000"></use><use xlink:href="#bbburst-shape-14" width="9.816072975931132" opacity="0.8095520742915712" transform="matrix(0.7201792619422009,0.6937880300699824,-0.6937880300699824,0.7201792619422009,751.4077744109863,71.8127097929912)" fill="none" stroke="#b30000"></use><use xlink:href="#bbburst-shape-14" width="7.917593767064487" opacity="0.8212403779573719" transform="matrix(0.7154501060708124,-0.6986638288356305,0.6986638288356305,0.7154501060708124,66.08415539754077,54.90312733408757)" fill="none" stroke="#b30000"></use><use xlink:href="#bbburst-shape-12" width="14.199160456303717" opacity="0.7027759726343654" transform="matrix(0.9032118411109012,0.42919502569001894,-0.42919502569001894,0.9032118411109012,435.8722903425653,1.8247228546380825)" fill="none" stroke="#b30000" filter="url(#bbburst-blur-1)"></use><use xlink:href="#bbburst-shape-1" width="10.568540377161778" opacity="0.7659813899758211" transform="matrix(0.9971463621652007,0.07549259844982471,-0.07549259844982471,0.9971463621652007,323.7505903395018,-28.453813174409163)" fill="#b30000" filter="url(#bbburst-blur-1)"></use><use xlink:href="#bbburst-shape-5" width="24.573684502260978" opacity="0.04015511206595068" transform="matrix(1.541293090479494,-0.8288037217822872,0.8288037217822872,1.541293090479494,413.811206684499,25.767038897295947)" fill="#b30000" filter="url(#bbburst-blur-4)"></use><use xlink:href="#bbburst-shape-3" width="16.28206968085386" opacity="0.6299461648269257" transform="matrix(0.9763735474064267,-0.21608955533525975,0.21608955533525975,0.9763735474064267,276.6309092808483,-152.76986295560192)" fill="#b30000" filter="url(#bbburst-blur-1)"></use><use xlink:href="#bbburst-shape-3" width="10.874402100819188" opacity="0.7996754004482266" transform="matrix(0.9280928116508157,-0.37234893978912253,0.37234893978912253,0.9280928116508157,168.9295538201614,77.60253222040478)" fill="#b30000"></use><use xlink:href="#bbburst-shape-14" width="7.257462548947333" opacity="0.8438984107975985" transform="matrix(0.8400867606489245,0.5424520574045198,-0.5424520574045198,0.8400867606489245,661.6241800226503,10.43532354921632)" fill="none" stroke="#b30000"></use><use xlink:href="#bbburst-shape-14" width="4.836377643537835" opacity="0.9335375879314575" transform="matrix(0.8039950393205129,0.5946360035753023,-0.5946360035753023,0.8039950393205129,645.1808879258449,105.40299909410635)" fill="none" stroke="#b30000"></use><use xlink:href="#bbburst-shape-8" width="12.090108854687735" opacity="0.6608889654344579" transform="matrix(0.9995093841804958,-0.03132077481682137,0.03132077481682137,0.9995093841804958,529.8544288776005,35.83725689917674)" fill="none" stroke="#b30000" filter="url(#bbburst-blur-1)"></use><use xlink:href="#bbburst-shape-3" width="37.338859578060905" opacity="0.042137956455617354" transform="matrix(1.2627607979956728,1.211583743306806,-1.211583743306806,1.2627607979956728,619.3237908911098,229.09783199069818)" fill="#b30000" filter="url(#bbburst-blur-4)"></use><use xlink:href="#bbburst-shape-5" width="19.873617954383185" opacity="0.5947492128481895" transform="matrix(0.8821542773517475,-0.4709605407568837,0.4709605407568837,0.8821542773517475,365.4038272691462,134.47683520959617)" fill="#b30000" filter="url(#bbburst-blur-1)"></use><use xlink:href="#bbburst-shape-1" width="27.794773334333602" opacity="0.32436389477644156" transform="matrix(1.193044502628509,-0.37302119879156137,0.37302119879156137,1.193044502628509,-50.91244086453614,33.530851299590665)" fill="#b30000" filter="url(#bbburst-blur-3)"></use><use xlink:href="#bbburst-shape-10" width="17.178356954139446" opacity="0.6539265415376179" transform="matrix(0.984120331830725,0.17750259850882127,-0.17750259850882127,0.984120331830725,420.58998668544785,154.80156101082446)" fill="none" stroke="#b30000" filter="url(#bbburst-blur-1)"></use><use xlink:href="#bbburst-shape-5" width="8.292170351995516" opacity="0.7913572282647345" transform="matrix(0.8318797704404265,0.5549558969251371,-0.5549558969251371,0.8318797704404265,572.6289771578868,-16.95507675827963)" fill="#b30000"></use><use xlink:href="#bbburst-shape-8" width="7.608047642186098" opacity="0.8548492703089232" transform="matrix(0.9998584771948874,-0.016823364155863104,0.016823364155863104,0.9998584771948874,324.26375784544274,3.9850658627312896)" fill="none" stroke="#b30000"></use><use xlink:href="#bbburst-shape-14" width="12.193645502000999" opacity="0.7725570284687981" transform="matrix(0.7458832083064544,0.6660767520087084,-0.6660767520087084,0.7458832083064544,730.255693752843,173.7498139322375)" fill="none" stroke="#b30000" filter="url(#bbburst-blur-1)"></use><use xlink:href="#bbburst-shape-14" width="22.323579613070038" opacity="0.17173737759079066" transform="matrix(1.2313747360123921,-0.21497967231906318,0.21497967231906318,1.2313747360123921,355.3980495538357,278.50554246829523)" fill="none" stroke="#b30000" filter="url(#bbburst-blur-3)"></use><use xlink:href="#bbburst-shape-8" width="35.04620731259557" opacity="0.025392340834939575" transform="matrix(1.471619732796853,0.9470139186109776,-0.9470139186109776,1.471619732796853,1007.2672425592415,152.11459902766114)" fill="none" stroke="#b30000" filter="url(#bbburst-blur-4)"></use><use xlink:href="#bbburst-shape-3" width="8.596468450421394" opacity="0.8596495615131114" transform="matrix(0.8866972662672268,0.4623504709570725,-0.4623504709570725,0.8866972662672268,611.7112115094162,98.56209334748684)" fill="#b30000"></use><use xlink:href="#bbburst-shape-5" width="18.83058078925748" opacity="0.5986445736204236" transform="matrix(0.9849951717568984,-0.1725818982848379,0.1725818982848379,0.9849951717568984,461.02687208859203,122.54456524693506)" fill="#b30000" filter="url(#bbburst-blur-1)"></use><use xlink:href="#bbburst-shape-1" width="14.316478911169382" opacity="0.6930591395947561" transform="matrix(0.9960331578396259,-0.08898285500040407,0.08898285500040407,0.9960331578396259,480.1616330139048,65.31220415339692)" fill="#b30000" filter="url(#bbburst-blur-1)"></use><use xlink:href="#bbburst-shape-10" width="28.194551942627857" opacity="0.4481569591090303" transform="matrix(0.9111860129882409,0.4119952059606924,-0.4119952059606924,0.9111860129882409,584.5900795482997,-216.4577375239645)" fill="none" stroke="#b30000" filter="url(#bbburst-blur-2)"></use><use xlink:href="#bbburst-shape-5" width="19.02819426014759" opacity="0.542678808291823" transform="matrix(0.8758814670715825,0.4825263263704192,-0.4825263263704192,0.8758814670715825,379.12397389146736,55.01746096069297)" fill="#b30000" filter="url(#bbburst-blur-2)"></use><use xlink:href="#bbburst-shape-14" width="20.60802529322685" opacity="0.47872280967442093" transform="matrix(0.837465785238349,0.5464897607047321,-0.5464897607047321,0.837465785238349,830.5967254763698,139.03614443142112)" fill="none" stroke="#b30000" filter="url(#bbburst-blur-2)"></use><use xlink:href="#bbburst-shape-8" width="12.528856276879361" opacity="0.6819792557232203" transform="matrix(0.9999149212774112,0.013044163705983765,-0.013044163705983765,0.9999149212774112,330.9987487504559,125.89833598721941)" fill="none" stroke="#b30000" filter="url(#bbburst-blur-1)"></use><use xlink:href="#bbburst-shape-8" width="7.135200876975524" opacity="0.886199712958309" transform="matrix(0.8467816239142573,-0.5319406747007915,0.5319406747007915,0.8467816239142573,233.16686361634066,48.18533153556905)" fill="none" stroke="#b30000"></use><use xlink:href="#bbburst-shape-5" width="22.104883719212943" opacity="0.5995352725727096" transform="matrix(0.8379458704679775,0.5457533492024245,-0.5457533492024245,0.8379458704679775,687.9961522441147,-103.20178183859406)" fill="#b30000" filter="url(#bbburst-blur-1)"></use><use xlink:href="#bbburst-shape-14" width="8.329973922367872" opacity="0.8456961985303062" transform="matrix(0.7103399382902775,-0.7038587728158004,0.7038587728158004,0.7103399382902775,183.73016203676394,105.88454401166564)" fill="none" stroke="#b30000"></use><use xlink:href="#bbburst-shape-5" width="11.090160549194191" opacity="0.788559677241186" transform="matrix(0.7546824470612946,0.6560902408187278,-0.6560902408187278,0.7546824470612946,710.9719941067369,15.282251963128147)" fill="#b30000"></use><use xlink:href="#bbburst-shape-14" width="7.311996622151477" opacity="0.8403286888986286" transform="matrix(0.7894567873756329,-0.6138061427409673,0.6138061427409673,0.7894567873756329,146.6915281217849,14.784748889166394)" fill="none" stroke="#b30000"></use><use xlink:href="#bbburst-shape-3" width="10.467460052347175" opacity="0.8131678061783552" transform="matrix(0.8561126548056434,-0.5167892435815914,0.5167892435815914,0.8561126548056434,104.80540087280986,55.97185176400342)" fill="#b30000"></use><use xlink:href="#bbburst-shape-3" width="6.051387905100252" opacity="0.9593650884134304" transform="matrix(0.9993902844785462,0.034915029570236844,-0.034915029570236844,0.9993902844785462,425.18488540258653,-11.301704074668635)" fill="#b30000"></use><use xlink:href="#bbburst-shape-10" width="28.26666154343933" opacity="0.3386513740939855" transform="matrix(0.7959132555702755,-0.6054106784716681,0.6054106784716681,0.7959132555702755,78.72885256836096,379.9585919578559)" fill="none" stroke="#b30000" filter="url(#bbburst-blur-2)"></use><use xlink:href="#bbburst-shape-8" width="4.4264605599449505" opacity="0.9855421981363046" transform="matrix(0.7187761958448757,-0.6952415265839411,0.6952415265839411,0.7187761958448757,113.917323585124,115.22364642817797)" fill="none" stroke="#b30000"></use><use xlink:href="#bbburst-shape-3" width="30.084020386592556" opacity="0.26278734270815396" transform="matrix(1.2322412961396287,-0.20995568124756198,0.20995568124756198,1.2322412961396287,97.06139117212518,174.75377472319985)" fill="#b30000" filter="url(#bbburst-blur-3)"></use><use xlink:href="#bbburst-shape-10" width="12.786111535165844" opacity="0.7319847789206403" transform="matrix(0.8981994897178868,0.4395880761241459,-0.4395880761241459,0.8981994897178868,651.3234760699214,-51.239536775836825)" fill="none" stroke="#b30000" filter="url(#bbburst-blur-1)"></use><use xlink:href="#bbburst-shape-12" width="10.48767202403867" opacity="0.7386318479958551" transform="matrix(0.9117763775559808,-0.4106870308773989,0.4106870308773989,0.9117763775559808,325.1490632701146,107.8343123283999)" fill="none" stroke="#b30000" filter="url(#bbburst-blur-1)"></use><use xlink:href="#bbburst-shape-5" width="15.132547110163003" opacity="0.5922383578586423" transform="matrix(0.8942671428844511,0.44753354863884875,-0.44753354863884875,0.8942671428844511,755.563284654926,46.956070510503366)" fill="#b30000" filter="url(#bbburst-blur-1)"></use><use xlink:href="#bbburst-shape-10" width="24.994292798491006" opacity="0.53451820842453" transform="matrix(0.8754759113590912,-0.4832617599499972,0.4832617599499972,0.8754759113590912,177.4515313642117,-152.8166116396054)" fill="none" stroke="#b30000" filter="url(#bbburst-blur-2)"></use><use xlink:href="#bbburst-shape-1" width="29.29281812482671" opacity="0.2550126118539916" transform="matrix(0.9138520263308753,-0.852862517625762,0.852862517625762,0.9138520263308753,-283.7261571427713,110.20866582273533)" fill="#b30000" filter="url(#bbburst-blur-3)"></use><use xlink:href="#bbburst-shape-1" width="29.738564169125983" opacity="0.2762298281182102" transform="matrix(1.2167076854795815,-0.28657007536538004,0.28657007536538004,1.2167076854795815,19.954486474604806,-294.2779842890905)" fill="#b30000" filter="url(#bbburst-blur-3)"></use><use xlink:href="#bbburst-shape-14" width="15.636091617473593" opacity="0.5804251811237586" transform="matrix(0.7884805596361647,-0.6150596776539985,0.6150596776539985,0.7884805596361647,76.57590037012088,-85.41641620572162)" fill="none" stroke="#b30000" filter="url(#bbburst-blur-1)"></use><use xlink:href="#bbburst-shape-8" width="27.048715879544215" opacity="0.3350650425952939" transform="matrix(0.9971539251208167,-0.07539263635229111,0.07539263635229111,0.9971539251208167,647.6278093164168,70.67384746436755)" fill="none" stroke="#b30000" filter="url(#bbburst-blur-2)"></use><use xlink:href="#bbburst-shape-3" width="9.611779492707537" opacity="0.840781753260281" transform="matrix(0.8842459221825357,0.46702157241776,-0.46702157241776,0.8842459221825357,523.5563826924395,3.346314642571599)" fill="#b30000"></use><use xlink:href="#bbburst-shape-12" width="10.294163984214174" opacity="0.8034539029636873" transform="matrix(0.9986323275015612,0.052282640224215415,-0.052282640224215415,0.9986323275015612,394.3779965199157,86.07810406868549)" fill="none" stroke="#b30000"></use><use xlink:href="#bbburst-shape-1" width="22.282395490877512" opacity="0.5135692877583586" transform="matrix(0.9752395269821258,-0.22115122656607528,0.22115122656607528,0.9752395269821258,136.7139330700801,157.41146228997496)" fill="#b30000" filter="url(#bbburst-blur-2)"></use><use xlink:href="#bbburst-shape-5" width="8.22712134514086" opacity="0.7989194859734496" transform="matrix(0.7834230726363769,0.621488768410965,-0.621488768410965,0.7834230726363769,735.166140845338,72.89734960997578)" fill="#b30000"></use><use xlink:href="#bbburst-shape-5" width="28.311678513219206" opacity="0.045255425713641495" transform="matrix(1.602454507243651,-0.7033061582372986,0.7033061582372986,1.602454507243651,463.1455436261317,-454.15279646872716)" fill="#b30000" filter="url(#bbburst-blur-4)"></use><use xlink:href="#bbburst-shape-14" width="6.120833756762673" opacity="0.8911661484111393" transform="matrix(0.9460208678555665,-0.3241057197610076,0.3241057197610076,0.9460208678555665,218.82025521562286,16.9128942931884)" fill="none" stroke="#b30000"></use><use xlink:href="#bbburst-shape-5" width="10.332564098717569" opacity="0.7732589980633221" transform="matrix(0.9301658755558532,-0.3671395428871875,0.3671395428871875,0.9301658755558532,246.02408178054338,131.83759753596382)" fill="#b30000" filter="url(#bbburst-blur-1)"></use><use xlink:href="#bbburst-shape-10" width="7.733197888310176" opacity="0.816596708759387" transform="matrix(0.7569333074710646,-0.653492133113257,0.653492133113257,0.7569333074710646,150.13905338888918,181.00786459608275)" fill="none" stroke="#b30000"></use><use xlink:href="#bbburst-shape-1" width="9.039812212430597" opacity="0.762811120168591" transform="matrix(0.9232113608585824,0.3842925749759477,-0.3842925749759477,0.9232113608585824,442.8057289421969,29.450496097982693)" fill="#b30000" filter="url(#bbburst-blur-1)"></use><use xlink:href="#bbburst-shape-8" width="27.300952717162886" opacity="0.35972334317786336" transform="matrix(0.7613444334045897,-0.6483476333911032,0.6483476333911032,0.7613444334045897,387.2278980319438,234.648392638473)" fill="none" stroke="#b30000" filter="url(#bbburst-blur-2)"></use><use xlink:href="#bbburst-shape-3" width="10.531930027188084" opacity="0.7732926155012881" transform="matrix(0.9568865459185091,-0.2904619394002335,0.2904619394002335,0.9568865459185091,372.47682996881304,59.04503589325748)" fill="#b30000" filter="url(#bbburst-blur-1)"></use><use xlink:href="#bbburst-shape-12" width="4.612472949150234" opacity="0.9282555225380725" transform="matrix(0.7929106866482166,0.6093378726117831,-0.6093378726117831,0.7929106866482166,669.3967851046466,64.48607958389232)" fill="none" stroke="#b30000"></use><use xlink:href="#bbburst-shape-10" width="8.196671648469922" opacity="0.8093031535770224" transform="matrix(0.7906937571284238,-0.6122118770802614,0.6122118770802614,0.7906937571284238,165.47177972578723,1.5020317573659554)" fill="none" stroke="#b30000"></use><use xlink:href="#bbburst-shape-10" width="7.649198432320827" opacity="0.7618024567661342" transform="matrix(0.9601424979203022,-0.279510972391716,0.279510972391716,0.9601424979203022,307.7659650098473,121.65065663988946)" fill="none" stroke="#b30000" filter="url(#bbburst-blur-1)"></use><use xlink:href="#bbburst-shape-1" width="15.8484697013041" opacity="0.6224086398257608" transform="matrix(0.7681107479080282,-0.6403170144140865,0.6403170144140865,0.7681107479080282,173.54384233477947,263.9593272510116)" fill="#b30000" filter="url(#bbburst-blur-1)"></use><use xlink:href="#bbburst-shape-1" width="40.84478059628739" opacity="-0.10014353154135702" transform="matrix(1.5464283249044883,0.8191821750582094,-0.8191821750582094,1.5464283249044883,346.71104607457056,115.5690414429987)" fill="#b30000" filter="url(#bbburst-blur-4)"></use><use xlink:href="#bbburst-shape-1" width="10.739779960913156" opacity="0.7195241112462726" transform="matrix(0.9639398956367133,-0.26612004358913316,0.26612004358913316,0.9639398956367133,413.3992238046309,33.188559880164746)" fill="#b30000" filter="url(#bbburst-blur-1)"></use><use xlink:href="#bbburst-shape-8" width="16.451556764689506" opacity="0.5955141284684291" transform="matrix(0.9503021574833524,0.31132910156695215,-0.31132910156695215,0.9503021574833524,405.78176233865065,-126.98938722276239)" fill="none" stroke="#b30000" filter="url(#bbburst-blur-1)"></use><use xlink:href="#bbburst-shape-3" width="11.266169390359348" opacity="0.7983623620762088" transform="matrix(0.9957274007606634,0.09234144992587792,-0.09234144992587792,0.9957274007606634,369.86259225408133,67.97196963365667)" fill="#b30000"></use><use xlink:href="#bbburst-shape-10" width="7.052035279067159" opacity="0.8481640141651443" transform="matrix(0.8790039541768069,-0.4768144802137808,0.4768144802137808,0.8790039541768069,163.83143751814842,103.70342525652904)" fill="none" stroke="#b30000"></use><use xlink:href="#bbburst-shape-12" width="8.717329743259105" opacity="0.7341494653266654" transform="matrix(0.8713278748087311,-0.4907012681676095,0.4907012681676095,0.8713278748087311,107.1849219389037,129.18045119340184)" fill="none" stroke="#b30000" filter="url(#bbburst-blur-1)"></use><use xlink:href="#bbburst-shape-3" width="13.704098692680216" opacity="0.7757122926985086" transform="matrix(0.8636628154378417,0.5040699765210983,-0.5040699765210983,0.8636628154378417,548.5578028591293,140.3164223926504)" fill="#b30000" filter="url(#bbburst-blur-1)"></use><use xlink:href="#bbburst-shape-14" width="16.329211815962218" opacity="0.5384226739974145" transform="matrix(0.9997319786010641,-0.023151046680473793,0.023151046680473793,0.9997319786010641,201.33969134053166,101.78823843820976)" fill="none" stroke="#b30000" filter="url(#bbburst-blur-2)"></use><use xlink:href="#bbburst-shape-5" width="39.36989638462471" opacity="0.2490479962341734" transform="matrix(1.236827286379845,-0.18099244090919595,0.18099244090919595,1.236827286379845,491.45650355358697,189.50294424455274)" fill="#b30000" filter="url(#bbburst-blur-3)"></use><use xlink:href="#bbburst-shape-5" width="7.464165547353394" opacity="0.841663930228871" transform="matrix(0.9752781884261698,-0.22098066698281216,0.22098066698281216,0.9752781884261698,303.4840058091695,81.82344649272682)" fill="#b30000"></use><use xlink:href="#bbburst-shape-14" width="8.072841678017564" opacity="0.8483470790358475" transform="matrix(0.9264198591945266,0.3764920244706299,-0.3764920244706299,0.9264198591945266,609.6551830354465,54.6271559058747)" fill="none" stroke="#b30000"></use><use xlink:href="#bbburst-shape-8" width="25.880010847357294" opacity="0.3298628429691691" transform="matrix(1.2155284519370404,-0.29153144346972654,0.29153144346972654,1.2155284519370404,486.4709305062446,125.07148112878906)" fill="none" stroke="#b30000" filter="url(#bbburst-blur-3)"></use><use xlink:href="#bbburst-shape-1" width="8.118509979408811" opacity="0.8271621634590294" transform="matrix(0.9385954515088875,0.34501967828926466,-0.34501967828926466,0.9385954515088875,611.0451821115872,35.13783643085941)" fill="#b30000"></use><use xlink:href="#bbburst-shape-5" width="11.65384320304399" opacity="0.7457513450692581" transform="matrix(0.9922884019478845,0.12395050366865627,-0.12395050366865627,0.9922884019478845,398.36058123090027,-102.63999444980584)" fill="#b30000" filter="url(#bbburst-blur-1)"></use><use xlink:href="#bbburst-shape-10" width="14.715173320715312" opacity="0.5682148570920831" transform="matrix(0.8445085052780141,0.5355421407443997,-0.5355421407443997,0.8445085052780141,796.7312213153375,104.46830166059112)" fill="none" stroke="#b30000" filter="url(#bbburst-blur-1)"></use><use xlink:href="#bbburst-shape-10" width="29.329624422997846" opacity="0.3872438492060768" transform="matrix(0.8539856597610694,-0.5202965432543744,0.5202965432543744,0.8539856597610694,-56.20919103940258,-77.28505723553462)" fill="none" stroke="#b30000" filter="url(#bbburst-blur-2)"></use><use xlink:href="#bbburst-shape-14" width="24.23775336960036" opacity="0.2788955985785152" transform="matrix(1.2375006181023152,0.1763298618963555,-0.1763298618963555,1.2375006181023152,780.0257312724673,-97.5154259878235)" fill="none" stroke="#b30000" filter="url(#bbburst-blur-3)"></use><use xlink:href="#bbburst-shape-14" width="5.745012177397987" opacity="0.9581716622685694" transform="matrix(0.9043621251232602,0.42676591551170134,-0.42676591551170134,0.9043621251232602,558.5050418203471,20.845805789374594)" fill="none" stroke="#b30000"></use><use xlink:href="#bbburst-shape-8" width="28.54870971123929" opacity="0.16889784682826403" transform="matrix(1.1548660742137586,0.47831407111865487,-0.47831407111865487,1.1548660742137586,524.9499085204814,-439.42739042911825)" fill="none" stroke="#b30000" filter="url(#bbburst-blur-3)"></use><use xlink:href="#bbburst-shape-14" width="13.42251137589255" opacity="0.6757725023694842" transform="matrix(0.728979335352045,-0.6845357029620083,0.6845357029620083,0.728979335352045,68.58842688971936,-23.029939623880296)" fill="none" stroke="#b30000" filter="url(#bbburst-blur-1)"></use><use xlink:href="#bbburst-shape-12" width="27.770364693791414" opacity="0.4641090474734717" transform="matrix(0.9750758781163225,0.22187165640451378,-0.22187165640451378,0.9750758781163225,670.2146943760399,-135.04426328767244)" fill="none" stroke="#b30000" filter="url(#bbburst-blur-2)"></use><use xlink:href="#bbburst-shape-12" width="20.48526113113848" opacity="0.579034266294268" transform="matrix(0.9061991234469094,0.4228512133884128,-0.4228512133884128,0.9061991234469094,677.0122745219953,182.0318807596816)" fill="none" stroke="#b30000" filter="url(#bbburst-blur-1)"></use><use xlink:href="#bbburst-shape-14" width="26.36374060470019" opacity="0.1583112463028411" transform="matrix(1.0931557492500947,-0.606226449341716,0.606226449341716,1.0931557492500947,516.1819184496686,-94.69051635347284)" fill="none" stroke="#b30000" filter="url(#bbburst-blur-3)"></use><use xlink:href="#bbburst-shape-12" width="21.442365657598472" opacity="0.45663140254988444" transform="matrix(0.9819403661192709,0.18919069053616797,-0.18919069053616797,0.9819403661192709,708.9911984528509,23.38975028241225)" fill="none" stroke="#b30000" filter="url(#bbburst-blur-2)"></use><use xlink:href="#bbburst-shape-10" width="7.5291763293410146" opacity="0.8359216938805062" transform="matrix(0.9192854059692877,0.3935915933704403,-0.3935915933704403,0.9192854059692877,584.9567415366505,-36.21699005930384)" fill="none" stroke="#b30000"></use><use xlink:href="#bbburst-shape-1" width="9.64348060806773" opacity="0.7766363837162525" transform="matrix(0.9974671051602026,-0.07112927753973854,0.07112927753973854,0.9974671051602026,466.0431006994761,16.918852794517193)" fill="#b30000" filter="url(#bbburst-blur-1)"></use><use xlink:href="#bbburst-shape-3" width="24.429347431368086" opacity="0.4078176798697326" transform="matrix(0.7319742432853171,0.681332303040805,-0.681332303040805,0.7319742432853171,772.2150356770528,342.13279644680694)" fill="#b30000" filter="url(#bbburst-blur-2)"></use><use xlink:href="#bbburst-shape-3" width="24.188800897121496" opacity="0.5954371008270076" transform="matrix(0.9996997269535828,-0.024504202270876213,0.024504202270876213,0.9996997269535828,526.324311688406,-105.16454641862134)" fill="#b30000" filter="url(#bbburst-blur-1)"></use><use xlink:href="#bbburst-shape-14" width="34.970260952596355" opacity="-0.10626438814229378" transform="matrix(1.6342827075880775,-0.6257955190624028,0.6257955190624028,1.6342827075880775,479.0122921740803,-588.7400636440155)" fill="none" stroke="#b30000" filter="url(#bbburst-blur-4)"></use><use xlink:href="#bbburst-shape-10" width="46.82345594418766" opacity="-0.10598522112149245" transform="matrix(1.4673607316953639,0.9535997499362332,-0.9535997499362332,1.4673607316953639,392.5435815643384,-558.5519222252437)" fill="none" stroke="#b30000" filter="url(#bbburst-blur-4)"></use><use xlink:href="#bbburst-shape-14" width="23.640250104373976" opacity="0.5145825935039392" transform="matrix(0.7222851569933486,0.6915953672394674,-0.6915953672394674,0.7222851569933486,704.8419855295704,318.2561787580863)" fill="none" stroke="#b30000" filter="url(#bbburst-blur-2)"></use><use xlink:href="#bbburst-shape-3" width="19.43554250225006" opacity="0.4090755598881999" transform="matrix(0.7901354093413544,0.6129323248980839,-0.6129323248980839,0.7901354093413544,593.5437794765875,-184.3245059516255)" fill="#b30000" filter="url(#bbburst-blur-2)"></use><use xlink:href="#bbburst-shape-10" width="14.10306277547373" opacity="0.6083309798675614" transform="matrix(0.7089565433920313,0.7052521673710921,-0.7052521673710921,0.7089565433920313,531.2129254374756,12.545710581875028)" fill="none" stroke="#b30000" filter="url(#bbburst-blur-1)"></use><use xlink:href="#bbburst-shape-5" width="7.215280639545039" opacity="0.9260169823709047" transform="matrix(0.7245187946162011,0.689255044412362,-0.689255044412362,0.7245187946162011,666.1879107079483,140.27531471283248)" fill="#b30000"></use><use xlink:href="#bbburst-shape-1" width="14.028887847729326" opacity="0.632791161399028" transform="matrix(0.9797864326689614,-0.20004636052133223,0.20004636052133223,0.9797864326689614,159.82205571898862,-52.19971397911564)" fill="#b30000" filter="url(#bbburst-blur-1)"></use><use xlink:href="#bbburst-shape-8" width="7.385306101572172" opacity="0.910317312901938" transform="matrix(0.9358422224153469,0.3524192598946664,-0.3524192598946664,0.9358422224153469,543.3358021311548,-15.573038770992127)" fill="none" stroke="#b30000"></use><use xlink:href="#bbburst-shape-3" width="31.46091332229085" opacity="0.12004155919029913" transform="matrix(1.2370180348419262,-0.179684115813889,0.179684115813889,1.2370180348419262,466.88145603653004,270.97683208747986)" fill="#b30000" filter="url(#bbburst-blur-3)"></use><use xlink:href="#bbburst-shape-3" width="19.23713692188319" opacity="0.4173125985027155" transform="matrix(0.8258396012345369,0.5639050922210057,-0.5639050922210057,0.8258396012345369,357.1977015373899,95.28316579603296)" fill="#b30000" filter="url(#bbburst-blur-2)"></use><use xlink:href="#bbburst-shape-3" width="19.510453575415728" opacity="0.5091632961300736" transform="matrix(0.9827488294764707,-0.18494523016997955,0.18494523016997955,0.9827488294764707,521.0821187389253,-74.20329560855123)" fill="#b30000" filter="url(#bbburst-blur-2)"></use><use xlink:href="#bbburst-shape-10" width="10.371577040691879" opacity="0.808521124598927" transform="matrix(0.9084136802298816,0.4180724644977262,-0.4180724644977262,0.9084136802298816,483.02195400174173,1.2272077636697531)" fill="none" stroke="#b30000"></use><use xlink:href="#bbburst-shape-1" width="21.488350361139542" opacity="0.29559602011501784" transform="matrix(1.2276397287575969,-0.2353735252231527,0.2353735252231527,1.2276397287575969,601.0396664930062,-161.8674888779932)" fill="#b30000" filter="url(#bbburst-blur-3)"></use><use xlink:href="#bbburst-shape-3" width="26.95483473084328" opacity="0.4578243046669559" transform="matrix(0.8330687614038116,-0.5531694485174677,0.5531694485174677,0.8330687614038116,-74.27114882389117,40.94257104070135)" fill="#b30000" filter="url(#bbburst-blur-2)"></use><use xlink:href="#bbburst-shape-3" width="7.765241080948343" opacity="0.8856060535816092" transform="matrix(0.9967954559936294,0.07999261784972712,-0.07999261784972712,0.9967954559936294,453.4191142068111,-43.849846380101496)" fill="#b30000"></use><use xlink:href="#bbburst-shape-3" width="15.41387234500771" opacity="0.7042758954629127" transform="matrix(0.8841276150075607,0.4672455033288632,-0.4672455033288632,0.8841276150075607,616.9412331315797,170.57545736120557)" fill="#b30000" filter="url(#bbburst-blur-1)"></use><use xlink:href="#bbburst-shape-14" width="7.95782600420284" opacity="0.8721867880491153" transform="matrix(0.994377147926903,-0.10589658956150581,0.10589658956150581,0.994377147926903,314.9264336639882,-39.813314164186465)" fill="none" stroke="#b30000"></use><use xlink:href="#bbburst-shape-12" width="27.034592334468677" opacity="0.4228314984337408" transform="matrix(0.9238046229307129,-0.3828642300500837,0.3828642300500837,0.9238046229307129,125.48874923244631,271.419825204084)" fill="none" stroke="#b30000" filter="url(#bbburst-blur-2)"></use><use xlink:href="#bbburst-shape-14" width="5.402229590639106" opacity="0.950415400154417" transform="matrix(0.8468899532026773,0.5317681893121917,-0.5317681893121917,0.8468899532026773,590.3193161362268,50.11834116670599)" fill="none" stroke="#b30000"></use><use xlink:href="#bbburst-shape-14" width="7.846939585704023" opacity="0.8665594018569045" transform="matrix(0.8581892390032312,-0.5133334491917071,0.5133334491917071,0.8581892390032312,202.77540426971257,-0.19509543642686822)" fill="none" stroke="#b30000"></use><use xlink:href="#bbburst-shape-5" width="21.77571458462919" opacity="0.3967557182904501" transform="matrix(0.7222394700824991,-0.6916430783684246,0.6916430783684246,0.7222394700824991,295.6071326806104,-84.45244526532395)" fill="#b30000" filter="url(#bbburst-blur-2)"></use><use xlink:href="#bbburst-shape-14" width="13.187897827617844" opacity="0.6452909837248617" transform="matrix(0.9906750734338148,-0.13624572975658952,0.13624572975658952,0.9906750734338148,206.1841388296001,93.22205880344495)" fill="none" stroke="#b30000" filter="url(#bbburst-blur-1)"></use><use xlink:href="#bbburst-shape-10" width="36.80294509531248" opacity="0.01748804101571999" transform="matrix(1.4486621984085153,0.9817728020790795,-0.9817728020790795,1.4486621984085153,510.33931217370764,-558.2115032768027)" fill="none" stroke="#b30000" filter="url(#bbburst-blur-4)"></use><use xlink:href="#bbburst-shape-3" width="11.381669111428584" opacity="0.6426277915902804" transform="matrix(0.8522197811094132,-0.5231839491859663,0.5231839491859663,0.8522197811094132,37.473921764023544,124.15980819369236)" fill="#b30000" filter="url(#bbburst-blur-1)"></use><use xlink:href="#bbburst-shape-10" width="14.99584920665474" opacity="0.7411870807530643" transform="matrix(0.8986734013397869,0.43861841927166983,-0.43861841927166983,0.8986734013397869,580.2889944647145,-78.64679240973862)" fill="none" stroke="#b30000" filter="url(#bbburst-blur-1)"></use><use xlink:href="#bbburst-shape-5" width="11.744821837907674" opacity="0.7845749997543167" transform="matrix(0.8273990573945836,0.561614458345362,-0.561614458345362,0.8273990573945836,605.6301467535301,-30.159631215386526)" fill="#b30000"></use><use xlink:href="#bbburst-shape-1" width="8.191041010692395" opacity="0.850898796030869" transform="matrix(0.9977603224798307,0.0668904992128492,-0.0668904992128492,0.9977603224798307,357.8183310515906,-16.577538318237487)" fill="#b30000"></use><use xlink:href="#bbburst-shape-10" width="8.808248385315583" opacity="0.7810206280411465" transform="matrix(0.7086742800600829,0.7055357997871712,-0.7055357997871712,0.7086742800600829,583.7289109589036,138.240749935375)" fill="none" stroke="#b30000"></use><use xlink:href="#bbburst-shape-3" width="10.722437826880995" opacity="0.8116195036429019" transform="matrix(0.8630904150421583,-0.505049438631858,0.505049438631858,0.8630904150421583,262.72200975994264,106.16662760396792)" fill="#b30000"></use><use xlink:href="#bbburst-shape-8" width="14.44339714176615" opacity="0.6919562861528619" transform="matrix(0.8403007120318812,-0.5421205708684309,0.5421205708684309,0.8403007120318812,305.8200108726384,16.391527137548906)" fill="none" stroke="#b30000" filter="url(#bbburst-blur-1)"></use><use xlink:href="#bbburst-shape-10" width="9.098556183055805" opacity="0.8654283928249797" transform="matrix(0.8824212405295457,0.4704601516199831,-0.4704601516199831,0.8824212405295457,630.034894468179,84.43311625135641)" fill="none" stroke="#b30000"></use><use xlink:href="#bbburst-shape-5" width="6.411778814623787" opacity="0.8827390927132511" transform="matrix(0.9292510250906998,-0.3694489577301358,0.3694489577301358,0.9292510250906998,202.8471078743398,4.344898354112161)" fill="#b30000"></use><use xlink:href="#bbburst-shape-14" width="9.130762790827717" opacity="0.8267248848889668" transform="matrix(0.9154120811920871,0.4025179767508176,-0.4025179767508176,0.9154120811920871,606.2478486945256,92.31719295147326)" fill="none" stroke="#b30000"></use><use xlink:href="#bbburst-shape-1" width="5.338423110407465" opacity="0.9183988016524298" transform="matrix(0.9340310709766477,-0.3571917670526806,0.3571917670526806,0.9340310709766477,220.52619358691334,13.74046280820636)" fill="#b30000"></use><use xlink:href="#bbburst-shape-3" width="20.368524719617376" opacity="0.5030088075286798" transform="matrix(0.9854339142529254,-0.17005881523801725,0.17005881523801725,0.9854339142529254,163.27607018852743,-150.12253038045364)" fill="#b30000" filter="url(#bbburst-blur-2)"></use><use xlink:href="#bbburst-shape-12" width="31.75509804357082" opacity="0.21583001567516502" transform="matrix(1.1235364977480673,-0.5478738342246392,0.5478738342246392,1.1235364977480673,388.14895634519394,-312.480018826481)" fill="none" stroke="#b30000" filter="url(#bbburst-blur-3)"></use><use xlink:href="#bbburst-shape-12" width="7.008932161999145" opacity="0.8966316538410969" transform="matrix(0.9631726745291207,-0.26888361616212403,0.26888361616212403,0.9631726745291207,329.9874419534505,37.78095711226928)" fill="none" stroke="#b30000"></use><use xlink:href="#bbburst-shape-3" width="29.51819639187542" opacity="0.01176777731753087" transform="matrix(1.5810214429621046,-0.7502474237836643,0.7502474237836643,1.5810214429621046,340.4594862708933,-579.0618907402866)" fill="#b30000" filter="url(#bbburst-blur-4)"></use><use xlink:href="#bbburst-shape-14" width="27.949505861474584" opacity="0.1756597205274143" transform="matrix(1.0905693092921425,-0.6108670736175418,0.6108670736175418,1.0905693092921425,87.61349202440465,339.52319352221167)" fill="none" stroke="#b30000" filter="url(#bbburst-blur-3)"></use><use xlink:href="#bbburst-shape-1" width="18.91321857618613" opacity="0.4703722043316614" transform="matrix(0.9977011657083583,0.06776713026374147,-0.06776713026374147,0.9977011657083583,190.79488777455023,73.30925505599271)" fill="#b30000" filter="url(#bbburst-blur-2)"></use><use xlink:href="#bbburst-shape-12" width="8.700599278136876" opacity="0.7829043110266753" transform="matrix(0.8705216960990565,-0.49213004035602415,0.49213004035602415,0.8705216960990565,120.70008206387263,-4.026479514501261)" fill="none" stroke="#b30000"></use><use xlink:href="#bbburst-shape-3" width="14.914839562719141" opacity="0.6705019301018945" transform="matrix(0.9771679125626399,0.21246851686302382,-0.21246851686302382,0.9771679125626399,368.1976902500088,-92.49662499523004)" fill="#b30000" filter="url(#bbburst-blur-1)"></use><use xlink:href="#bbburst-shape-10" width="11.153751805876173" opacity="0.7630138890247768" transform="matrix(0.8527960684547891,-0.5222440671066113,0.5222440671066113,0.8527960684547891,222.7402989374235,-38.4475056605599)" fill="none" stroke="#b30000" filter="url(#bbburst-blur-1)"></use><use xlink:href="#bbburst-shape-8" width="5.353703992131667" opacity="0.9313843459066893" transform="matrix(0.7794451033747096,-0.626470534682349,0.626470534682349,0.7794451033747096,126.40936582113287,112.61267486207817)" fill="none" stroke="#b30000"></use><use xlink:href="#bbburst-shape-14" width="27.63273469660649" opacity="0.15336186598925616" transform="matrix(1.1307059624631797,0.5329202815151759,-0.5329202815151759,1.1307059624631797,706.9791221031644,-424.52951061274877)" fill="none" stroke="#b30000" filter="url(#bbburst-blur-3)"></use><use xlink:href="#bbburst-shape-8" width="7.559658799438774" opacity="0.8527535412370513" transform="matrix(0.7530564927344504,-0.6579558638316774,0.6579558638316774,0.7530564927344504,191.27254511192734,67.99174949008517)" fill="none" stroke="#b30000"></use><use xlink:href="#bbburst-shape-10" width="16.185026732336258" opacity="0.7027319495825726" transform="matrix(0.8512999701335393,-0.5246792933313025,0.5246792933313025,0.8512999701335393,248.8818496008331,-52.8313621858681)" fill="none" stroke="#b30000" filter="url(#bbburst-blur-1)"></use><use xlink:href="#bbburst-shape-8" width="25.412792489714437" opacity="0.170375397181868" transform="matrix(1.2491735143046032,-0.04544811503118161,0.04544811503118161,1.2491735143046032,-6.68959633294158,-76.35167136430613)" fill="none" stroke="#b30000" filter="url(#bbburst-blur-3)"></use><use xlink:href="#bbburst-shape-3" width="15.439907635334631" opacity="0.701990170152001" transform="matrix(0.794663141826872,0.6070506494699143,-0.6070506494699143,0.794663141826872,746.1747677124997,0.04436039591763574)" fill="#b30000" filter="url(#bbburst-blur-1)"></use><use xlink:href="#bbburst-shape-10" width="17.601945322464132" opacity="0.5678536755097169" transform="matrix(0.9889939581493901,0.1479559081077954,-0.1479559081077954,0.9889939581493901,260.9254950638355,-40.335991832910224)" fill="none" stroke="#b30000" filter="url(#bbburst-blur-1)"></use><use xlink:href="#bbburst-shape-10" width="16.66243579119575" opacity="0.6835187990302909" transform="matrix(0.8323693093159974,-0.5542213753625977,0.5542213753625977,0.8323693093159974,269.6759317280097,174.72179887216862)" fill="none" stroke="#b30000" filter="url(#bbburst-blur-1)"></use><use xlink:href="#bbburst-shape-3" width="19.710383485688762" opacity="0.4437822447860207" transform="matrix(0.9992952731460025,0.03753607688686036,-0.03753607688686036,0.9992952731460025,252.16158950797862,198.0547432638558)" fill="#b30000" filter="url(#bbburst-blur-2)"></use><use xlink:href="#bbburst-shape-8" width="25.8788055301572" opacity="0.5327738312935977" transform="matrix(0.9716094681655036,-0.23659045071842433,0.23659045071842433,0.9716094681655036,425.57057652561497,-148.60269251234115)" fill="none" stroke="#b30000" filter="url(#bbburst-blur-2)"></use><use xlink:href="#bbburst-shape-8" width="18.0061131987236" opacity="0.6438544487680062" transform="matrix(0.8084314833550937,-0.5885902961485883,0.5885902961485883,0.8084314833550937,262.2345533398522,-39.196286212738755)" fill="none" stroke="#b30000" filter="url(#bbburst-blur-1)"></use><use xlink:href="#bbburst-shape-12" width="14.148426649570961" opacity="0.7366269727058514" transform="matrix(0.9570217100409957,0.2900162866292313,-0.2900162866292313,0.9570217100409957,480.12992145584946,130.0014692948543)" fill="none" stroke="#b30000" filter="url(#bbburst-blur-1)"></use><use xlink:href="#bbburst-shape-3" width="8.668608577503365" opacity="0.82570875261687" transform="matrix(0.9747264722767008,-0.22340166571227243,0.22340166571227243,0.9747264722767008,280.8328172238728,-63.067817305576455)" fill="#b30000"></use><use xlink:href="#bbburst-shape-5" width="5.602599656570168" opacity="0.9379700569914013" transform="matrix(0.9997853108625089,0.020720332612112088,-0.020720332612112088,0.9997853108625089,427.410474409151,17.306210398472842)" fill="#b30000"></use><use xlink:href="#bbburst-shape-14" width="5.330684085361087" opacity="0.94819062097957" transform="matrix(0.9963426277515514,0.08544804342484183,-0.08544804342484183,0.9963426277515514,454.81414988932056,2.2795307712269732)" fill="none" stroke="#b30000"></use><use xlink:href="#bbburst-shape-10" width="12.244475394394401" opacity="0.7230079217603672" transform="matrix(0.9065735743994678,-0.42204781032552774,0.42204781032552774,0.9065735743994678,147.70111791852335,137.23615034456736)" fill="none" stroke="#b30000" filter="url(#bbburst-blur-1)"></use><use xlink:href="#bbburst-shape-14" width="11.564249798644832" opacity="0.6335594394666049" transform="matrix(0.93328880364746,0.3591267310940425,-0.3591267310940425,0.93328880364746,374.02967575759254,9.671240547355467)" fill="none" stroke="#b30000" filter="url(#bbburst-blur-1)"></use><use xlink:href="#bbburst-shape-10" width="16.482859613543166" opacity="0.6462780266165067" transform="matrix(0.7691155846947672,-0.6391097068419681,0.6391097068419681,0.7691155846947672,146.24717746795392,-61.341042496819256)" fill="none" stroke="#b30000" filter="url(#bbburst-blur-1)"></use></svg>